STARTFONT 2.1
COMMENT
COMMENT Converted from OpenType font "ipam.ttf" by "otf2bdf 3.0".
COMMENT
FONT -FreeType-IPAMincho-Medium-R-Normal--32-320-72-72-P-282-ISO10646-1
SIZE 32 72 72
FONTBOUNDINGBOX 32 32 0 -4
STARTPROPERTIES 19
FOUNDRY "FreeType"
FAMILY_NAME "IPAMincho"
WEIGHT_NAME "Medium"
SLANT "R"
SETWIDTH_NAME "Normal"
ADD_STYLE_NAME ""
PIXEL_SIZE 32
POINT_SIZE 320
RESOLUTION_X 72
RESOLUTION_Y 72
SPACING "P"
AVERAGE_WIDTH 282
CHARSET_REGISTRY "ISO10646"
CHARSET_ENCODING "1"
FONT_ASCENT 28
FONT_DESCENT 3
COPYRIGHT "Copyright(c) Information-technology Promotion Agency, Japan (IPA), 2003-2011. You must accept "http://ipafont.ipa.go.jp/ipa_font_license_v1.html" to use this product."
_OTF_FONTFILE "ipam.ttf"
_OTF_PSNAME "IPAMincho"
ENDPROPERTIES
CHARS 11158
STARTCHAR 0020
ENCODING 32
SWIDTH 500 0
DWIDTH 16 0
BBX 0 0 0 0
BITMAP
ENDCHAR
STARTCHAR 0021
ENCODING 33
SWIDTH 500 0
DWIDTH 16 0
BBX 4 27 6 -1
BITMAP
60
F0
F0
F0
E0
60
60
60
60
60
60
60
60
60
60
60
60
60
40
40
00
00
00
60
F0
F0
60
ENDCHAR
STARTCHAR 0022
ENCODING 34
SWIDTH 500 0
DWIDTH 16 0
BBX 10 8 3 18
BITMAP
61C0
F3C0
F3C0
71C0
30C0
6080
4180
8300
ENDCHAR
STARTCHAR 0023
ENCODING 35
SWIDTH 500 0
DWIDTH 16 0
BBX 12 27 2 -1
BITMAP
0840
0840
0840
0840
0840
0840
0840
0880
FFF0
FFF0
1080
1080
1080
1080
1080
1080
1080
1100
FFF0
FFF0
2100
2100
2100
2100
2100
2100
2100
ENDCHAR
STARTCHAR 0024
ENCODING 36
SWIDTH 500 0
DWIDTH 16 0
BBX 13 28 1 -1
BITMAP
0300
0300
0300
0FC0
3330
2310
6330
6378
6330
7300
3300
1F00
0F00
03C0
03E0
0370
0330
6318
F318
E318
4318
6318
6330
1B60
0FC0
0300
0300
0300
ENDCHAR
STARTCHAR 0025
ENCODING 37
SWIDTH 500 0
DWIDTH 16 0
BBX 14 29 1 -2
BITMAP
000C
3C08
6408
4610
C210
C230
C320
C360
C240
4240
4680
2680
3D00
0100
0300
0200
02F0
0598
0598
0908
090C
1B0C
130C
110C
2108
2198
4198
40F0
C000
ENDCHAR
STARTCHAR 0026
ENCODING 38
SWIDTH 500 0
DWIDTH 16 0
BBX 14 23 1 1
BITMAP
0700
1980
1880
10C0
10C0
1180
1980
1B00
1E00
0C00
1C7C
3C10
6610
4610
C610
C310
C310
C1A0
C1A4
40E4
6064
31FC
1F38
ENDCHAR
STARTCHAR 0027
ENCODING 39
SWIDTH 500 0
DWIDTH 16 0
BBX 4 8 3 18
BITMAP
60
F0
F0
70
30
60
40
80
ENDCHAR
STARTCHAR 0028
ENCODING 40
SWIDTH 500 0
DWIDTH 16 0
BBX 8 29 5 -2
BITMAP
03
04
0C
18
10
30
60
60
40
C0
C0
C0
C0
80
80
80
C0
C0
C0
C0
40
60
60
20
30
18
0C
04
03
ENDCHAR
STARTCHAR 0029
ENCODING 41
SWIDTH 500 0
DWIDTH 16 0
BBX 8 29 3 -2
BITMAP
C0
60
30
18
08
0C
06
06
02
03
03
03
03
01
01
01
03
03
03
03
02
06
04
0C
08
18
30
20
C0
ENDCHAR
STARTCHAR 002A
ENCODING 42
SWIDTH 500 0
DWIDTH 16 0
BBX 12 14 2 5
BITMAP
0600
0600
C630
E670
F6E0
3DC0
0600
1D80
76E0
E670
C630
0600
0600
0600
ENDCHAR
STARTCHAR 002B
ENCODING 43
SWIDTH 500 0
DWIDTH 16 0
BBX 12 18 2 3
BITMAP
0600
0600
0600
0600
0600
0600
0600
0600
FFF0
0600
0600
0600
0600
0600
0600
0600
0600
0600
ENDCHAR
STARTCHAR 002C
ENCODING 44
SWIDTH 500 0
DWIDTH 16 0
BBX 4 9 3 -4
BITMAP
60
F0
F0
70
30
20
60
C0
80
ENDCHAR
STARTCHAR 002D
ENCODING 45
SWIDTH 500 0
DWIDTH 16 0
BBX 12 1 2 12
BITMAP
FFF0
ENDCHAR
STARTCHAR 002E
ENCODING 46
SWIDTH 500 0
DWIDTH 16 0
BBX 4 5 3 0
BITMAP
60
F0
F0
F0
70
ENDCHAR
STARTCHAR 002F
ENCODING 47
SWIDTH 500 0
DWIDTH 16 0
BBX 12 28 2 -2
BITMAP
0010
0030
0020
0020
0060
0040
00C0
0080
0180
0100
0100
0300
0200
0600
0400
0400
0C00
0800
1800
1000
1000
3000
2000
6000
4000
C000
C000
8000
ENDCHAR
STARTCHAR 0030
ENCODING 48
SWIDTH 500 0
DWIDTH 16 0
BBX 12 23 2 1
BITMAP
0F00
1980
30C0
6060
6060
6060
C030
C030
C030
C030
C030
C030
C030
C030
C030
C030
C030
6060
6060
6060
30C0
1180
0F00
ENDCHAR
STARTCHAR 0031
ENCODING 49
SWIDTH 500 0
DWIDTH 16 0
BBX 8 23 4 2
BITMAP
08
F8
18
18
18
18
18
18
18
18
18
18
18
18
18
18
18
18
18
18
18
1C
FF
ENDCHAR
STARTCHAR 0032
ENCODING 50
SWIDTH 500 0
DWIDTH 16 0
BBX 12 22 2 2
BITMAP
1F80
70C0
6060
C060
E070
E070
6060
0060
00E0
00C0
0180
0300
0600
0400
0C00
1800
1010
2010
4010
4030
FFF0
FFF0
ENDCHAR
STARTCHAR 0033
ENCODING 51
SWIDTH 500 0
DWIDTH 16 0
BBX 12 23 2 1
BITMAP
1F00
30C0
60E0
E060
E060
6060
0060
0060
00C0
0180
0E00
0180
0060
0060
0030
0030
0030
E030
E070
C060
C0E0
71C0
1F00
ENDCHAR
STARTCHAR 0034
ENCODING 52
SWIDTH 500 0
DWIDTH 16 0
BBX 14 22 1 2
BITMAP
0060
00E0
01E0
0160
0360
0260
0660
0460
0860
1860
1060
3060
2060
6060
4060
FFFC
0060
0060
0060
0060
00E0
03F8
ENDCHAR
STARTCHAR 0035
ENCODING 53
SWIDTH 500 0
DWIDTH 16 0
BBX 12 23 2 1
BITMAP
7FE0
7FE0
6000
6000
4000
4000
4000
4000
4000
4F80
70C0
4060
0060
0030
0030
0030
0030
E030
E070
E060
C0E0
61C0
1F00
ENDCHAR
STARTCHAR 0036
ENCODING 54
SWIDTH 500 0
DWIDTH 16 0
BBX 12 23 2 1
BITMAP
0780
0C60
1060
3070
6060
6000
6000
6000
C000
CF80
D8C0
E060
C070
C030
C030
C030
C030
6030
6030
6060
3060
18C0
0F80
ENDCHAR
STARTCHAR 0037
ENCODING 55
SWIDTH 500 0
DWIDTH 16 0
BBX 12 23 2 1
BITMAP
FFF0
FFF0
C020
C020
8060
8040
80C0
0080
0080
0180
0100
0300
0300
0300
0600
0600
0600
0600
0E00
0E00
0E00
0E00
0C00
ENDCHAR
STARTCHAR 0038
ENCODING 56
SWIDTH 500 0
DWIDTH 16 0
BBX 12 23 2 1
BITMAP
0F00
30C0
6060
6060
6020
6020
6060
6060
30C0
1900
0F00
1B80
31C0
60E0
C070
C030
C030
C030
C030
C030
6060
30C0
1F80
ENDCHAR
STARTCHAR 0039
ENCODING 57
SWIDTH 500 0
DWIDTH 16 0
BBX 12 23 2 1
BITMAP
1F00
3180
60C0
6060
C060
C060
C030
C030
C030
C030
E030
6070
30B0
1F30
0070
0060
0060
6060
E060
E0C0
60C0
6180
1E00
ENDCHAR
STARTCHAR 003A
ENCODING 58
SWIDTH 500 0
DWIDTH 16 0
BBX 4 15 6 2
BITMAP
60
F0
F0
60
00
00
00
00
00
00
00
60
F0
F0
60
ENDCHAR
STARTCHAR 003B
ENCODING 59
SWIDTH 500 0
DWIDTH 16 0
BBX 4 19 6 -2
BITMAP
60
F0
F0
60
00
00
00
00
00
00
00
60
F0
F0
F0
30
20
40
80
ENDCHAR
STARTCHAR 003C
ENCODING 60
SWIDTH 500 0
DWIDTH 16 0
BBX 11 20 2 2
BITMAP
0020
0060
00C0
0180
0300
0600
0C00
1800
3000
6000
E000
3000
1800
0E00
0700
0180
00C0
0060
0020
0020
ENDCHAR
STARTCHAR 003D
ENCODING 61
SWIDTH 500 0
DWIDTH 16 0
BBX 12 7 2 9
BITMAP
FFF0
0000
0000
0000
0000
0000
FFF0
ENDCHAR
STARTCHAR 003E
ENCODING 62
SWIDTH 500 0
DWIDTH 16 0
BBX 11 20 3 2
BITMAP
8000
C000
6000
3000
1800
0C00
0600
0300
0180
00C0
00E0
0180
0300
0E00
1C00
3000
6000
C000
8000
8000
ENDCHAR
STARTCHAR 003F
ENCODING 63
SWIDTH 500 0
DWIDTH 16 0
BBX 12 28 2 -2
BITMAP
1F80
30E0
4070
C030
8030
E030
E030
E030
E070
0060
00E0
00C0
0180
0300
0200
0200
0200
0200
0400
0400
0400
0000
0000
0000
0600
0F00
0F00
0600
ENDCHAR
STARTCHAR 0040
ENCODING 64
SWIDTH 500 0
DWIDTH 16 0
BBX 14 25 1 0
BITMAP
07C0
0C30
1810
3008
2008
600C
43A4
4664
C464
CC64
CC64
C864
C844
C844
C844
C844
CCC8
CCC8
4730
6000
6004
3004
1808
0C30
07E0
ENDCHAR
STARTCHAR 0041
ENCODING 65
SWIDTH 500 0
DWIDTH 16 0
BBX 14 23 1 2
BITMAP
0200
0300
0300
0300
0700
0580
0580
0580
0C80
08C0
08C0
08C0
18C0
1060
1FE0
1060
3030
2030
2030
2030
4038
4038
F07C
ENDCHAR
STARTCHAR 0042
ENCODING 66
SWIDTH 500 0
DWIDTH 16 0
BBX 13 22 1 2
BITMAP
FF80
30E0
3030
3030
3030
3030
3030
3030
3060
30C0
3F80
3060
3030
3018
3018
3018
3018
3018
3018
3038
3070
FFC0
ENDCHAR
STARTCHAR 0043
ENCODING 67
SWIDTH 500 0
DWIDTH 16 0
BBX 12 23 2 1
BITMAP
0F90
18F0
3070
2030
6030
6020
6010
C000
C000
C000
C000
C000
C000
C000
C000
C010
E010
6010
6020
3020
3040
18C0
0F80
ENDCHAR
STARTCHAR 0044
ENCODING 68
SWIDTH 500 0
DWIDTH 16 0
BBX 13 22 1 2
BITMAP
FF00
30C0
3060
3030
3030
3018
3018
3018
3018
3018
3018
3018
3018
3018
3018
3018
3018
3030
3030
3060
30C0
FF00
ENDCHAR
STARTCHAR 0045
ENCODING 69
SWIDTH 500 0
DWIDTH 16 0
BBX 13 22 1 2
BITMAP
FFF8
3018
3018
3008
3008
3008
3000
3040
3040
3040
3FC0
3040
3040
3040
3000
3000
3008
3008
3008
3008
3018
FFF8
ENDCHAR
STARTCHAR 0046
ENCODING 70
SWIDTH 500 0
DWIDTH 16 0
BBX 13 22 1 2
BITMAP
FFF8
3818
3008
3008
3008
3008
3000
3020
3020
3060
3FE0
3060
3020
3020
3000
3000
3000
3000
3000
3000
3800
FE00
ENDCHAR
STARTCHAR 0047
ENCODING 71
SWIDTH 500 0
DWIDTH 16 0
BBX 13 23 2 1
BITMAP
0FA0
18E0
3060
6020
6020
E020
C000
C000
C000
C000
C000
C000
C0F8
C070
C020
C020
C020
6020
6020
6060
3060
18A0
0F20
ENDCHAR
STARTCHAR 0048
ENCODING 72
SWIDTH 500 0
DWIDTH 16 0
BBX 14 22 1 2
BITMAP
F87C
7038
3030
2030
2030
2030
2030
2030
2030
2030
3FF0
2030
2030
2030
2030
2030
2030
2030
2030
2030
7030
F87C
ENDCHAR
STARTCHAR 0049
ENCODING 73
SWIDTH 500 0
DWIDTH 16 0
BBX 6 22 5 2
BITMAP
FC
30
30
30
30
30
30
30
30
30
30
30
30
30
30
30
30
30
30
30
30
FC
ENDCHAR
STARTCHAR 004A
ENCODING 74
SWIDTH 500 0
DWIDTH 16 0
BBX 13 23 2 1
BITMAP
03F8
00C0
00C0
00C0
00C0
00C0
00C0
00C0
00C0
00C0
00C0
00C0
00C0
00C0
00C0
00C0
00C0
E0C0
E0C0
E0C0
4180
6300
1E00
ENDCHAR
STARTCHAR 004B
ENCODING 75
SWIDTH 500 0
DWIDTH 16 0
BBX 14 22 1 2
BITMAP
F8F8
3060
3040
3040
3080
3180
3100
3300
3200
3700
3700
3D00
3980
3180
30C0
30C0
3060
3060
3030
3030
3038
F87C
ENDCHAR
STARTCHAR 004C
ENCODING 76
SWIDTH 500 0
DWIDTH 16 0
BBX 12 22 2 2
BITMAP
FC00
7000
3000
3000
3000
3000
3000
3000
3000
3000
3000
3000
3000
3000
3000
3000
3010
3010
3010
3030
7070
FFF0
ENDCHAR
STARTCHAR 004D
ENCODING 77
SWIDTH 500 0
DWIDTH 16 0
BBX 16 22 0 2
BITMAP
F81F
381C
381C
281C
281C
2C2C
2C2C
2C2C
242C
244C
264C
264C
264C
224C
228C
238C
238C
238C
218C
210C
210C
F83F
ENDCHAR
STARTCHAR 004E
ENCODING 78
SWIDTH 500 0
DWIDTH 16 0
BBX 14 23 1 1
BITMAP
F07C
3010
3810
3810
2C10
2C10
2610
2610
2610
2310
2310
2190
2190
20D0
20D0
20D0
2070
2070
2030
2030
2030
F810
0010
ENDCHAR
STARTCHAR 004F
ENCODING 79
SWIDTH 500 0
DWIDTH 16 0
BBX 12 23 2 1
BITMAP
0F00
1880
3040
6060
6060
C030
C030
C030
C030
C030
C030
C030
C030
C030
C030
C030
C030
C030
6060
6060
20C0
1180
0F00
ENDCHAR
STARTCHAR 0050
ENCODING 80
SWIDTH 500 0
DWIDTH 16 0
BBX 14 22 1 2
BITMAP
FFC0
3070
3038
3018
301C
300C
300C
301C
3018
3038
3070
3FC0
3000
3000
3000
3000
3000
3000
3000
3000
3000
FE00
ENDCHAR
STARTCHAR 0051
ENCODING 81
SWIDTH 500 0
DWIDTH 16 0
BBX 13 25 2 -1
BITMAP
0F00
3180
60C0
6060
6060
C030
C030
C030
C030
C030
C030
C030
C030
C030
C030
CE30
DF30
DB30
5160
71E0
31C0
39C0
0F88
00C8
0070
ENDCHAR
STARTCHAR 0052
ENCODING 82
SWIDTH 500 0
DWIDTH 16 0
BBX 14 22 1 2
BITMAP
FF80
30E0
3030
3030
3038
3038
3038
3030
3070
30E0
3F80
3300
3180
3180
30C0
30C0
3060
3060
3060
3030
3038
FC1C
ENDCHAR
STARTCHAR 0053
ENCODING 83
SWIDTH 500 0
DWIDTH 16 0
BBX 12 23 2 1
BITMAP
1F20
61E0
6060
4060
C020
4020
6000
7000
3800
1C00
0F00
0380
01C0
00E0
0060
8070
8030
C030
C030
C060
E060
B0C0
8F80
ENDCHAR
STARTCHAR 0054
ENCODING 84
SWIDTH 500 0
DWIDTH 16 0
BBX 12 22 2 2
BITMAP
FFF0
C630
8610
8610
8610
8610
0600
0600
0600
0600
0600
0600
0600
0600
0600
0600
0600
0600
0600
0600
0600
1F80
ENDCHAR
STARTCHAR 0055
ENCODING 85
SWIDTH 500 0
DWIDTH 16 0
BBX 14 23 1 1
BITMAP
F87C
7018
6018
6018
6018
6018
6018
6018
6018
6018
6018
6018
6018
6018
6018
6018
6018
2018
3010
3010
3030
1860
0780
ENDCHAR
STARTCHAR 0056
ENCODING 86
SWIDTH 500 0
DWIDTH 16 0
BBX 14 23 1 1
BITMAP
F87C
7018
3018
3010
3010
3010
1830
1820
1820
1820
0C60
0C40
0C40
0C40
04C0
0680
0680
0680
0300
0300
0300
0300
0200
ENDCHAR
STARTCHAR 0057
ENCODING 87
SWIDTH 500 0
DWIDTH 16 0
BBX 16 23 0 1
BITMAP
FBCF
7186
2184
3184
31C4
31C4
31C4
31C4
3148
1248
1248
1A68
1A68
1A68
1A68
1C28
0C30
0C30
0C30
0C30
0C30
0C30
0810
ENDCHAR
STARTCHAR 0058
ENCODING 88
SWIDTH 500 0
DWIDTH 16 0
BBX 14 22 1 2
BITMAP
FCFC
3030
3020
1820
1840
0C40
0C80
0680
0700
0300
0300
0380
0580
04C0
08C0
08C0
1060
1060
2030
2030
6038
F87C
ENDCHAR
STARTCHAR 0059
ENCODING 89
SWIDTH 500 0
DWIDTH 16 0
BBX 15 22 1 2
BITMAP
F87E
7018
3010
3010
3030
1820
1820
0C40
0C40
0C80
0680
0680
0300
0300
0300
0300
0300
0300
0300
0300
0300
0FC0
ENDCHAR
STARTCHAR 005A
ENCODING 90
SWIDTH 500 0
DWIDTH 16 0
BBX 12 22 2 2
BITMAP
FFF0
E060
C060
C0C0
80C0
8180
0180
0300
0300
0600
0600
0C00
0C00
1800
1800
3000
3010
6010
6030
E030
C070
FFF0
ENDCHAR
STARTCHAR 005B
ENCODING 91
SWIDTH 500 0
DWIDTH 16 0
BBX 8 28 5 -2
BITMAP
FF
C0
C0
C0
C0
C0
C0
C0
C0
C0
C0
C0
C0
C0
C0
C0
C0
C0
C0
C0
C0
C0
C0
C0
C0
C0
C0
FF
ENDCHAR
STARTCHAR 005C
ENCODING 92
SWIDTH 500 0
DWIDTH 16 0
BBX 16 22 0 2
BITMAP
FC3F
300C
3008
1808
1808
0C10
0C10
0C30
0620
3FFC
0240
0340
0380
0180
3FFC
0180
0180
0180
0180
0180
0180
07E0
ENDCHAR
STARTCHAR 005D
ENCODING 93
SWIDTH 500 0
DWIDTH 16 0
BBX 8 28 3 -2
BITMAP
FF
03
03
03
03
03
03
03
03
03
03
03
03
03
03
03
03
03
03
03
03
03
03
03
03
03
03
FF
ENDCHAR
STARTCHAR 005E
ENCODING 94
SWIDTH 500 0
DWIDTH 16 0
BBX 12 4 2 20
BITMAP
0F00
1F80
30C0
E070
ENDCHAR
STARTCHAR 005F
ENCODING 95
SWIDTH 500 0
DWIDTH 16 0
BBX 16 1 0 -4
BITMAP
FFFF
ENDCHAR
STARTCHAR 0060
ENCODING 96
SWIDTH 500 0
DWIDTH 16 0
BBX 10 4 2 20
BITMAP
FC00
1E00
0700
00C0
ENDCHAR
STARTCHAR 0061
ENCODING 97
SWIDTH 500 0
DWIDTH 16 0
BBX 13 16 2 1
BITMAP
1F00
6180
60C0
70C0
6040
0040
07C0
1C40
7040
6040
C040
C040
C040
C0C8
6148
3E70
ENDCHAR
STARTCHAR 0062
ENCODING 98
SWIDTH 500 0
DWIDTH 16 0
BBX 13 24 1 1
BITMAP
1000
F000
3000
3000
3000
3000
3000
3000
37C0
3C60
3030
3030
3018
3018
3018
3018
3018
3018
3018
3018
3030
3030
3C60
37C0
ENDCHAR
STARTCHAR 0063
ENCODING 99
SWIDTH 500 0
DWIDTH 16 0
BBX 11 16 3 1
BITMAP
1F00
30C0
60C0
C0C0
C0C0
C000
C000
C000
C000
C000
C000
C020
C020
6040
3080
1F00
ENDCHAR
STARTCHAR 0064
ENCODING 100
SWIDTH 500 0
DWIDTH 16 0
BBX 13 24 2 1
BITMAP
0060
01E0
0060
0060
0060
0060
0060
0060
1F60
38E0
7060
6060
E060
C060
C060
C060
C060
C060
C060
4060
6060
60E0
3178
1E40
ENDCHAR
STARTCHAR 0065
ENCODING 101
SWIDTH 500 0
DWIDTH 16 0
BBX 12 16 2 1
BITMAP
0F00
30C0
2040
6060
6060
C020
FFF0
C000
C000
C000
6000
6020
6020
3040
18C0
0F00
ENDCHAR
STARTCHAR 0066
ENCODING 102
SWIDTH 500 0
DWIDTH 16 0
BBX 12 22 2 2
BITMAP
03E0
0630
0C70
0C30
0C00
0C00
0C00
FFC0
0C00
0C00
0C00
0C00
0C00
0C00
0C00
0C00
0C00
0C00
0C00
0C00
0C00
3F00
ENDCHAR
STARTCHAR 0067
ENCODING 103
SWIDTH 500 0
DWIDTH 16 0
BBX 14 20 1 -3
BITMAP
0FFC
18EC
3060
6030
6030
6030
3060
38C0
1F80
2000
6000
3800
1FC0
31F0
6018
C018
C00C
6018
7038
1FE0
ENDCHAR
STARTCHAR 0068
ENCODING 104
SWIDTH 500 0
DWIDTH 16 0
BBX 14 23 1 2
BITMAP
1000
F000
3000
3000
3000
3000
3000
3000
33C0
3C60
3030
3030
3030
3030
3030
3030
3030
3030
3030
3030
3030
3030
FCFC
ENDCHAR
STARTCHAR 0069
ENCODING 105
SWIDTH 500 0
DWIDTH 16 0
BBX 6 22 5 2
BITMAP
30
78
30
00
00
00
10
F0
30
30
30
30
30
30
30
30
30
30
30
30
30
FC
ENDCHAR
STARTCHAR 006A
ENCODING 106
SWIDTH 500 0
DWIDTH 16 0
BBX 8 27 3 -3
BITMAP
07
07
07
00
00
00
00
0F
07
03
03
03
03
03
03
03
03
03
03
03
03
03
C3
C3
C2
C6
7C
ENDCHAR
STARTCHAR 006B
ENCODING 107
SWIDTH 500 0
DWIDTH 16 0
BBX 14 23 1 2
BITMAP
1000
F000
3000
3000
3000
3000
3000
3000
31F8
3060
30C0
3180
3300
3600
3700
3980
3180
30C0
30E0
3060
3030
3038
FCFC
ENDCHAR
STARTCHAR 006C
ENCODING 108
SWIDTH 500 0
DWIDTH 16 0
BBX 6 23 5 2
BITMAP
30
F0
30
30
30
30
30
30
30
30
30
30
30
30
30
30
30
30
30
30
30
30
FC
ENDCHAR
STARTCHAR 006D
ENCODING 109
SWIDTH 500 0
DWIDTH 16 0
BBX 16 16 0 2
BITMAP
2000
E738
39CC
318C
318C
318C
318C
318C
318C
318C
318C
318C
318C
318C
318C
7BDF
ENDCHAR
STARTCHAR 006E
ENCODING 110
SWIDTH 500 0
DWIDTH 16 0
BBX 14 16 1 2
BITMAP
1000
F3C0
3C60
3830
3030
3030
3030
3030
3030
3030
3030
3030
3030
3030
3030
FCFC
ENDCHAR
STARTCHAR 006F
ENCODING 111
SWIDTH 500 0
DWIDTH 16 0
BBX 12 16 2 1
BITMAP
0F00
30C0
6040
6060
E060
C030
C030
C030
C030
C030
C030
4060
6060
2060
30C0
0F00
ENDCHAR
STARTCHAR 0070
ENCODING 112
SWIDTH 500 0
DWIDTH 16 0
BBX 12 21 2 -3
BITMAP
2000
E780
78C0
2060
2020
2030
2030
2030
2030
2030
2030
2060
2060
30C0
2F80
2000
2000
2000
2000
7000
F800
ENDCHAR
STARTCHAR 0071
ENCODING 113
SWIDTH 500 0
DWIDTH 16 0
BBX 13 21 2 -3
BITMAP
0020
1FA0
38E0
7060
6060
E060
C060
C060
C060
C060
C060
6060
6060
30E0
1F60
0060
0060
0060
0060
0060
01F8
ENDCHAR
STARTCHAR 0072
ENCODING 114
SWIDTH 500 0
DWIDTH 16 0
BBX 11 16 3 2
BITMAP
1000
F1C0
36E0
3CE0
3800
3000
3000
3000
3000
3000
3000
3000
3000
3000
3000
FC00
ENDCHAR
STARTCHAR 0073
ENCODING 115
SWIDTH 500 0
DWIDTH 16 0
BBX 10 16 3 1
BITMAP
3E40
61C0
C0C0
C0C0
C040
6000
7800
1E00
0780
01C0
80C0
8040
C040
C0C0
E180
9F00
ENDCHAR
STARTCHAR 0074
ENCODING 116
SWIDTH 500 0
DWIDTH 16 0
BBX 10 21 3 1
BITMAP
0800
0800
1800
1800
7800
FF80
1800
1800
1800
1800
1800
1800
1800
1800
1800
1800
1800
1840
1840
1880
0F00
ENDCHAR
STARTCHAR 0075
ENCODING 117
SWIDTH 500 0
DWIDTH 16 0
BBX 14 17 1 1
BITMAP
1010
F0F0
3030
3030
3030
3030
3030
3030
3030
3030
3030
3030
3030
3030
1070
18BC
0F30
ENDCHAR
STARTCHAR 0076
ENCODING 118
SWIDTH 500 0
DWIDTH 16 0
BBX 14 16 1 1
BITMAP
FC7C
7018
3010
3030
1820
1820
1860
0C40
0C40
0C40
0680
0680
0680
0300
0300
0200
ENDCHAR
STARTCHAR 0077
ENCODING 119
SWIDTH 500 0
DWIDTH 16 0
BBX 16 16 0 1
BITMAP
FBCF
7186
3084
3084
31C4
31C4
1148
1948
1A68
1A68
1A70
0A30
0C30
0C30
0C30
0420
ENDCHAR
STARTCHAR 0078
ENCODING 120
SWIDTH 500 0
DWIDTH 16 0
BBX 14 15 1 2
BITMAP
FCF8
3020
1860
0C40
0C80
0780
0300
0300
0580
04C0
08C0
1060
1030
2038
F8FC
ENDCHAR
STARTCHAR 0079
ENCODING 121
SWIDTH 500 0
DWIDTH 16 0
BBX 15 20 1 -3
BITMAP
FC7E
7018
3010
1010
1830
1820
0C20
0C40
0440
0640
0680
0380
0380
0100
0100
0200
0200
6600
7400
3800
ENDCHAR
STARTCHAR 007A
ENCODING 122
SWIDTH 500 0
DWIDTH 16 0
BBX 12 15 2 2
BITMAP
7FE0
6060
40C0
4180
4180
0300
0600
0600
0C00
1800
1810
3010
6030
6070
FFF0
ENDCHAR
STARTCHAR 007B
ENCODING 123
SWIDTH 500 0
DWIDTH 16 0
BBX 8 30 5 -3
BITMAP
01
06
0C
18
18
18
18
18
18
18
18
10
30
30
C0
60
30
10
10
18
18
18
18
18
18
18
08
0C
06
01
ENDCHAR
STARTCHAR 007C
ENCODING 124
SWIDTH 500 0
DWIDTH 16 0
BBX 2 32 7 -4
BITMAP
C0
C0
C0
C0
C0
C0
C0
C0
C0
C0
C0
C0
C0
C0
C0
C0
C0
C0
C0
C0
C0
C0
C0
C0
C0
C0
C0
C0
C0
C0
C0
C0
ENDCHAR
STARTCHAR 007D
ENCODING 125
SWIDTH 500 0
DWIDTH 16 0
BBX 8 30 3 -3
BITMAP
80
60
30
18
18
18
18
18
18
18
18
08
08
0C
03
06
0C
08
08
18
18
18
18
18
18
18
10
30
60
80
ENDCHAR
STARTCHAR 007E
ENCODING 126
SWIDTH 500 0
DWIDTH 16 0
BBX 12 3 2 21
BITMAP
3C30
7FE0
C3C0
ENDCHAR
STARTCHAR 00A0
ENCODING 160
SWIDTH 500 0
DWIDTH 16 0
BBX 0 0 0 0
BITMAP
ENDCHAR
STARTCHAR 00A1
ENCODING 161
SWIDTH 500 0
DWIDTH 16 0
BBX 4 27 6 -1
BITMAP
60
F0
F0
60
00
00
00
00
40
60
60
60
60
60
60
60
60
60
60
60
60
60
E0
F0
F0
F0
60
ENDCHAR
STARTCHAR 00A2
ENCODING 162
SWIDTH 1000 0
DWIDTH 32 0
BBX 14 23 9 1
BITMAP
0020
0060
0040
07C0
1CF0
3098
6098
61BC
E118
C100
C300
C200
C200
C600
E404
6404
3408
3C30
0FE0
0800
1800
1000
3000
ENDCHAR
STARTCHAR 00A3
ENCODING 163
SWIDTH 1000 0
DWIDTH 32 0
BBX 19 24 7 1
BITMAP
00F800
018600
030300
060300
060780
0E0700
0E0000
0E0000
060000
060000
070000
3FFC00
030000
038000
018000
018000
018000
3F8000
C38040
81C020
81F040
8138C0
431F80
3C0700
ENDCHAR
STARTCHAR 00A4
ENCODING 164
SWIDTH 500 0
DWIDTH 16 0
BBX 12 11 2 7
BITMAP
4020
EF70
38C0
2040
2040
2040
2040
2040
30C0
6F60
C030
ENDCHAR
STARTCHAR 00A5
ENCODING 165
SWIDTH 1000 0
DWIDTH 32 0
BBX 23 22 4 2
BITMAP
FF81FE
1C0038
0C0030
060020
060040
030040
038080
018180
00C100
3FFFFC
006200
007400
003800
001800
3FFFFC
001800
001800
001800
001800
001800
001800
00FF00
ENDCHAR
STARTCHAR 00A6
ENCODING 166
SWIDTH 500 0
DWIDTH 16 0
BBX 2 30 7 -3
BITMAP
C0
C0
C0
C0
C0
C0
C0
C0
C0
C0
C0
C0
C0
00
00
00
C0
C0
C0
C0
C0
C0
C0
C0
C0
C0
C0
C0
C0
C0
ENDCHAR
STARTCHAR 00A7
ENCODING 167
SWIDTH 1000 0
DWIDTH 32 0
BBX 14 29 9 -2
BITMAP
0FC0
1860
3030
6038
6038
6038
6000
7000
3C00
1F00
1FC0
21E0
4078
4038
C01C
600C
700C
3C08
0F18
03F0
00F0
0038
0018
600C
F00C
E008
6018
3030
0FC0
ENDCHAR
STARTCHAR 00A8
ENCODING 168
SWIDTH 1000 0
DWIDTH 32 0
BBX 12 4 10 21
BITMAP
E070
E070
E070
E070
ENDCHAR
STARTCHAR 00A9
ENCODING 169
SWIDTH 500 0
DWIDTH 16 0
BBX 14 15 1 5
BITMAP
0F80
1860
2010
47C8
8844
9044
9004
9004
9004
9824
8844
4788
2010
1860
0FC0
ENDCHAR
STARTCHAR 00AA
ENCODING 170
SWIDTH 500 0
DWIDTH 16 0
BBX 10 13 1 11
BITMAP
7C00
6200
6300
0700
3B00
6300
4300
C340
4740
7980
0000
0000
7F80
ENDCHAR
STARTCHAR 00AB
ENCODING 171
SWIDTH 500 0
DWIDTH 16 0
BBX 10 13 4 3
BITMAP
0640
0C80
0900
1300
2600
6400
C800
6400
2600
1300
0900
0C80
0640
ENDCHAR
STARTCHAR 00AC
ENCODING 172
SWIDTH 1000 0
DWIDTH 32 0
BBX 27 12 2 6
BITMAP
FFFFFFE0
00000020
00000020
00000020
00000020
00000020
00000020
00000020
00000020
00000020
00000020
00000020
ENDCHAR
STARTCHAR 00AD
ENCODING 173
SWIDTH 500 0
DWIDTH 16 0
BBX 12 1 2 12
BITMAP
FFF0
ENDCHAR
STARTCHAR 00AE
ENCODING 174
SWIDTH 500 0
DWIDTH 16 0
BBX 14 15 1 5
BITMAP
0F80
1860
2010
5FC8
886C
8824
8824
8844
8F84
8884
88C4
4848
3C70
1020
0FC0
ENDCHAR
STARTCHAR 00AF
ENCODING 175
SWIDTH 500 0
DWIDTH 16 0
BBX 10 2 3 21
BITMAP
FFC0
FFC0
ENDCHAR
STARTCHAR 00B0
ENCODING 176
SWIDTH 1000 0
DWIDTH 32 0
BBX 7 7 1 20
BITMAP
38
44
42
82
42
46
3C
ENDCHAR
STARTCHAR 00B1
ENCODING 177
SWIDTH 1000 0
DWIDTH 32 0
BBX 22 22 5 2
BITMAP
003000
003000
003000
003000
003000
003000
003000
003000
FFFFFC
003000
003000
003000
003000
003000
003000
003000
003000
003000
000000
000000
000000
FFFFFC
ENDCHAR
STARTCHAR 00B2
ENCODING 178
SWIDTH 500 0
DWIDTH 16 0
BBX 7 11 2 16
BITMAP
7C
46
E6
46
04
0C
18
32
62
42
FE
ENDCHAR
STARTCHAR 00B3
ENCODING 179
SWIDTH 500 0
DWIDTH 16 0
BBX 7 12 2 15
BITMAP
38
46
C6
06
04
38
0C
06
C2
C6
C6
7C
ENDCHAR
STARTCHAR 00B4
ENCODING 180
SWIDTH 1000 0
DWIDTH 32 0
BBX 10 4 12 20
BITMAP
0FC0
1E00
3800
C000
ENDCHAR
STARTCHAR 00B6
ENCODING 182
SWIDTH 1000 0
DWIDTH 32 0
BBX 13 29 8 -2
BITMAP
0FF8
3E18
7E18
FE18
FE18
FE18
FE18
FE18
7E18
3E18
1E18
0218
0218
0218
0218
0218
0218
0218
0218
0218
0218
0218
0218
0218
0218
0218
0218
0218
0218
ENDCHAR
STARTCHAR 00B7
ENCODING 183
SWIDTH 500 0
DWIDTH 16 0
BBX 4 5 6 10
BITMAP
60
F0
F0
F0
70
ENDCHAR
STARTCHAR 00B8
ENCODING 184
SWIDTH 500 0
DWIDTH 16 0
BBX 7 7 5 -1
BITMAP
60
40
40
FC
06
06
FC
ENDCHAR
STARTCHAR 00B9
ENCODING 185
SWIDTH 500 0
DWIDTH 16 0
BBX 4 12 4 16
BITMAP
20
E0
60
60
60
60
60
60
60
60
60
F0
ENDCHAR
STARTCHAR 00BA
ENCODING 186
SWIDTH 500 0
DWIDTH 16 0
BBX 8 13 2 11
BITMAP
3C
42
C3
83
83
83
83
C3
66
3C
00
00
FF
ENDCHAR
STARTCHAR 00BB
ENCODING 187
SWIDTH 500 0
DWIDTH 16 0
BBX 10 13 2 3
BITMAP
9800
4C00
2400
3200
1900
0980
04C0
0980
1900
3200
2400
4C00
9800
ENDCHAR
STARTCHAR 00BC
ENCODING 188
SWIDTH 500 0
DWIDTH 16 0
BBX 14 28 1 -2
BITMAP
E008
6008
2010
2010
2030
2020
2060
2040
2040
2080
2080
2100
3100
FB00
0210
0630
0470
0450
0890
0890
1910
1110
3210
2210
27FC
4010
4010
C07C
ENDCHAR
STARTCHAR 00BD
ENCODING 189
SWIDTH 500 0
DWIDTH 16 0
BBX 14 28 1 -2
BITMAP
E008
6008
2010
2010
2030
2020
2060
2040
2040
2080
2080
2100
3100
FB00
0270
0688
0488
04CC
0808
0808
1818
1010
3030
2020
2044
40C4
408C
C1FC
ENDCHAR
STARTCHAR 00BE
ENCODING 190
SWIDTH 500 0
DWIDTH 16 0
BBX 14 28 1 -2
BITMAP
380C
4C08
4418
C610
0410
0C20
3820
0460
0640
C6C0
C680
C680
4D00
7900
0310
0230
0670
0450
0490
0890
0910
1110
1210
3210
27FC
6010
4010
407C
ENDCHAR
STARTCHAR 00BF
ENCODING 191
SWIDTH 500 0
DWIDTH 16 0
BBX 12 27 2 -1
BITMAP
0600
0F00
0F00
0600
0000
0000
0000
0400
0400
0400
0400
0400
0400
0C00
0800
1800
3000
6000
E000
C070
C070
C070
C010
C030
E020
7040
1F80
ENDCHAR
STARTCHAR 00C0
ENCODING 192
SWIDTH 500 0
DWIDTH 16 0
BBX 14 26 1 2
BITMAP
3C00
0600
0180
0200
0300
0300
0300
0700
0580
0580
0580
0C80
08C0
08C0
08C0
18C0
1060
1FE0
1060
3030
2030
2030
2030
4038
4038
F07C
ENDCHAR
STARTCHAR 00C1
ENCODING 193
SWIDTH 500 0
DWIDTH 16 0
BBX 14 26 1 2
BITMAP
01E0
0300
0600
0200
0300
0300
0300
0700
0580
0580
0580
0C80
08C0
08C0
08C0
18C0
1060
1FE0
1060
3030
2030
2030
2030
4038
4038
F07C
ENDCHAR
STARTCHAR 00C2
ENCODING 194
SWIDTH 500 0
DWIDTH 16 0
BBX 14 26 1 2
BITMAP
0300
0780
0840
1220
0300
0300
0300
0700
0580
0580
0580
0C80
08C0
08C0
08C0
18C0
1060
1FE0
1060
3030
2030
2030
2030
4038
4038
F07C
ENDCHAR
STARTCHAR 00C3
ENCODING 195
SWIDTH 500 0
DWIDTH 16 0
BBX 14 26 1 2
BITMAP
0E00
1320
21C0
0200
0300
0300
0300
0700
0580
0580
0580
0C80
08C0
08C0
08C0
18C0
1060
1FE0
1060
3030
2030
2030
2030
4038
4038
F07C
ENDCHAR
STARTCHAR 00C4
ENCODING 196
SWIDTH 500 0
DWIDTH 16 0
BBX 14 26 1 2
BITMAP
1860
3870
1860
0200
0300
0300
0300
0700
0580
0580
0580
0C80
08C0
08C0
08C0
18C0
1060
1FE0
1060
3030
2030
2030
2030
4038
4038
F07C
ENDCHAR
STARTCHAR 00C5
ENCODING 197
SWIDTH 500 0
DWIDTH 16 0
BBX 14 26 1 2
BITMAP
0300
0480
0480
0480
0300
0300
0300
0300
0580
0580
0580
0C80
08C0
08C0
08C0
18C0
1060
1FE0
1060
3030
2030
2030
2030
4038
4038
F07C
ENDCHAR
STARTCHAR 00C6
ENCODING 198
SWIDTH 500 0
DWIDTH 16 0
BBX 15 22 0 2
BITMAP
01FC
01CC
01C4
03C4
02C4
02C0
02C0
06C8
04C8
04C8
04F8
08C8
08C8
0FC8
18C0
10C0
10C0
10C2
30C2
20C2
60C6
FBFE
ENDCHAR
STARTCHAR 00C7
ENCODING 199
SWIDTH 500 0
DWIDTH 16 0
BBX 12 28 2 -4
BITMAP
0F90
18F0
3070
2030
6030
6020
6010
C000
C000
C000
C000
C000
C000
C000
C000
C010
E010
6010
6020
7020
3040
18C0
0F80
0400
0F80
0080
0080
0F80
ENDCHAR
STARTCHAR 00C8
ENCODING 200
SWIDTH 500 0
DWIDTH 16 0
BBX 13 26 1 2
BITMAP
3C00
0600
0180
0000
FFF8
3018
3018
3008
3008
3008
3000
3040
3040
3040
3FC0
3040
3040
3040
3000
3000
3008
3008
3008
3008
3018
FFF8
ENDCHAR
STARTCHAR 00C9
ENCODING 201
SWIDTH 500 0
DWIDTH 16 0
BBX 13 26 1 2
BITMAP
01E0
0300
0600
0000
FFF8
3018
3018
3008
3008
3008
3000
3040
3040
3040
3FC0
3040
3040
3040
3000
3000
3008
3008
3008
3008
3018
FFF8
ENDCHAR
STARTCHAR 00CA
ENCODING 202
SWIDTH 500 0
DWIDTH 16 0
BBX 13 26 1 2
BITMAP
0300
0780
0840
1020
FFF8
3018
3018
3008
3008
3008
3000
3040
3040
3040
3FC0
3040
3040
3040
3000
3000
3008
3008
3008
3008
3018
FFF8
ENDCHAR
STARTCHAR 00CB
ENCODING 203
SWIDTH 500 0
DWIDTH 16 0
BBX 13 26 1 2
BITMAP
1860
3870
1860
0000
FFF8
3018
3018
3008
3008
3008
3000
3040
3040
3040
3FC0
3040
3040
3040
3000
3000
3008
3008
3008
3008
3018
FFF8
ENDCHAR
STARTCHAR 00CC
ENCODING 204
SWIDTH 500 0
DWIDTH 16 0
BBX 8 26 3 2
BITMAP
F0
18
06
00
3F
0C
0C
0C
0C
0C
0C
0C
0C
0C
0C
0C
0C
0C
0C
0C
0C
0C
0C
0C
0C
3F
ENDCHAR
STARTCHAR 00CD
ENCODING 205
SWIDTH 500 0
DWIDTH 16 0
BBX 7 26 5 2
BITMAP
1E
30
60
00
FC
30
30
30
30
30
30
30
30
30
30
30
30
30
30
30
30
30
30
30
30
FC
ENDCHAR
STARTCHAR 00CE
ENCODING 206
SWIDTH 500 0
DWIDTH 16 0
BBX 8 26 4 2
BITMAP
18
3C
42
81
7E
18
18
18
18
18
18
18
18
18
18
18
18
18
18
18
18
18
18
18
18
7E
ENDCHAR
STARTCHAR 00CF
ENCODING 207
SWIDTH 500 0
DWIDTH 16 0
BBX 10 26 3 2
BITMAP
6180
E1C0
6180
0000
3F00
0C00
0C00
0C00
0C00
0C00
0C00
0C00
0C00
0C00
0C00
0C00
0C00
0C00
0C00
0C00
0C00
0C00
0C00
0C00
0C00
3F00
ENDCHAR
STARTCHAR 00D0
ENCODING 208
SWIDTH 500 0
DWIDTH 16 0
BBX 13 22 1 2
BITMAP
FF00
30C0
3060
3030
3030
3018
3018
3018
3018
3018
FE18
3018
3018
3018
3018
3018
3018
3030
3030
3060
30C0
FF00
ENDCHAR
STARTCHAR 00D1
ENCODING 209
SWIDTH 500 0
DWIDTH 16 0
BBX 14 27 1 1
BITMAP
0E00
1320
21C0
0000
F07C
3010
3810
3810
2C10
2C10
2610
2610
2610
2310
2310
2190
2190
20D0
20D0
20D0
2070
2070
2030
2030
2030
F810
0010
ENDCHAR
STARTCHAR 00D2
ENCODING 210
SWIDTH 500 0
DWIDTH 16 0
BBX 12 27 2 1
BITMAP
7800
0C00
0300
0000
0F00
1880
3040
6060
6060
C030
C030
C030
C030
C030
C030
C030
C030
C030
C030
C030
C030
C030
6060
6060
20C0
1180
0F00
ENDCHAR
STARTCHAR 00D3
ENCODING 211
SWIDTH 500 0
DWIDTH 16 0
BBX 12 27 2 1
BITMAP
03C0
0600
0C00
0000
0F00
1880
3040
6060
6060
C030
C030
C030
C030
C030
C030
C030
C030
C030
C030
C030
C030
C030
6060
6060
20C0
1180
0F00
ENDCHAR
STARTCHAR 00D4
ENCODING 212
SWIDTH 500 0
DWIDTH 16 0
BBX 12 27 2 1
BITMAP
0600
0F00
1080
2040
0F00
1880
3040
6060
6060
C030
C030
C030
C030
C030
C030
C030
C030
C030
C030
C030
C030
C030
6060
6060
20C0
1180
0F00
ENDCHAR
STARTCHAR 00D5
ENCODING 213
SWIDTH 500 0
DWIDTH 16 0
BBX 12 27 2 1
BITMAP
1C00
2640
4380
0000
0F00
1880
3040
6060
6060
C030
C030
C030
C030
C030
C030
C030
C030
C030
C030
C030
C030
C030
6060
6060
20C0
1180
0F00
ENDCHAR
STARTCHAR 00D6
ENCODING 214
SWIDTH 500 0
DWIDTH 16 0
BBX 12 27 2 1
BITMAP
30C0
70E0
30C0
0000
0F00
1880
3040
6060
6060
C030
C030
C030
C030
C030
C030
C030
C030
C030
C030
C030
C030
C030
6060
6060
20C0
1180
0F00
ENDCHAR
STARTCHAR 00D7
ENCODING 215
SWIDTH 1000 0
DWIDTH 32 0
BBX 20 19 6 3
BITMAP
400020
E00070
3000C0
180180
0C0300
060600
030C00
019800
00F000
006000
00F000
019800
030C00
060600
0C0300
180180
3000C0
600060
C00030
ENDCHAR
STARTCHAR 00D8
ENCODING 216
SWIDTH 500 0
DWIDTH 16 0
BBX 12 26 2 0
BITMAP
0010
0010
0F30
18E0
3060
6060
60E0
C0B0
C0B0
C130
C130
C230
C230
C430
C430
C830
C830
D830
D030
F030
6060
6060
70C0
7180
8F00
8000
ENDCHAR
STARTCHAR 00D9
ENCODING 217
SWIDTH 500 0
DWIDTH 16 0
BBX 14 27 1 1
BITMAP
3C00
0600
0180
0000
F87C
7018
6018
6018
6018
6018
6018
6018
6018
6018
6018
6018
6018
6018
6018
6018
6018
2018
3010
3010
3030
1860
0780
ENDCHAR
STARTCHAR 00DA
ENCODING 218
SWIDTH 500 0
DWIDTH 16 0
BBX 14 27 1 1
BITMAP
01E0
0300
0600
0000
F87C
7018
6018
6018
6018
6018
6018
6018
6018
6018
6018
6018
6018
6018
6018
6018
6018
2018
3010
3010
3030
1860
0780
ENDCHAR
STARTCHAR 00DB
ENCODING 219
SWIDTH 500 0
DWIDTH 16 0
BBX 14 27 1 1
BITMAP
0300
0780
0840
1020
F87C
7018
6018
6018
6018
6018
6018
6018
6018
6018
6018
6018
6018
6018
6018
6018
6018
2018
3010
3010
3030
1860
0780
ENDCHAR
STARTCHAR 00DC
ENCODING 220
SWIDTH 500 0
DWIDTH 16 0
BBX 14 27 1 1
BITMAP
1860
1C70
1860
0000
F87C
7018
6018
6018
6018
6018
6018
6018
6018
6018
6018
6018
6018
6018
6018
6018
6018
2018
3010
3010
3030
1860
0780
ENDCHAR
STARTCHAR 00DD
ENCODING 221
SWIDTH 500 0
DWIDTH 16 0
BBX 15 26 1 2
BITMAP
01E0
0300
0600
0000
F87E
7018
3010
3010
3030
1820
1820
0C40
0C40
0C80
0680
0680
0300
0300
0300
0300
0300
0300
0300
0300
0300
0FC0
ENDCHAR
STARTCHAR 00DE
ENCODING 222
SWIDTH 500 0
DWIDTH 16 0
BBX 14 22 1 2
BITMAP
FE00
3800
3000
3000
3000
3FC0
3070
3038
3018
301C
301C
301C
301C
3018
3038
3070
3FC0
3000
3000
3000
3000
FE00
ENDCHAR
STARTCHAR 00DF
ENCODING 223
SWIDTH 500 0
DWIDTH 16 0
BBX 13 23 1 1
BITMAP
0780
18E0
1060
3030
3030
3030
3020
3060
30C0
3700
30C0
3060
3030
3038
3018
3018
3018
3018
3018
3610
3630
F660
03C0
ENDCHAR
STARTCHAR 00E0
ENCODING 224
SWIDTH 500 0
DWIDTH 16 0
BBX 13 21 2 1
BITMAP
3C00
0600
0300
0000
0000
1F00
6180
60C0
70C0
6040
0040
07C0
1C40
7040
6040
C040
C040
C040
C0C8
6148
3E70
ENDCHAR
STARTCHAR 00E1
ENCODING 225
SWIDTH 500 0
DWIDTH 16 0
BBX 13 21 2 1
BITMAP
03C0
0600
0C00
0000
0000
1F00
6180
60C0
70C0
6040
0040
07C0
1C40
7040
6040
C040
C040
C040
C0C8
6148
3E70
ENDCHAR
STARTCHAR 00E2
ENCODING 226
SWIDTH 500 0
DWIDTH 16 0
BBX 13 21 2 1
BITMAP
0600
0F00
1080
2040
0000
1F00
6180
60C0
70C0
6040
0040
07C0
1C40
7040
6040
C040
C040
C040
C0C8
6148
3E70
ENDCHAR
STARTCHAR 00E3
ENCODING 227
SWIDTH 500 0
DWIDTH 16 0
BBX 13 21 2 1
BITMAP
1C40
2780
0000
0000
0000
1F00
6180
60C0
70C0
6040
0040
07C0
1C40
7040
6040
C040
C040
C040
C0C8
6148
3E70
ENDCHAR
STARTCHAR 00E4
ENCODING 228
SWIDTH 500 0
DWIDTH 16 0
BBX 13 21 2 1
BITMAP
30C0
70E0
30C0
0000
0000
1F00
6180
60C0
70C0
6040
0040
07C0
1C40
7040
6040
C040
C040
C040
C0C8
6148
3E70
ENDCHAR
STARTCHAR 00E5
ENCODING 229
SWIDTH 500 0
DWIDTH 16 0
BBX 13 22 2 1
BITMAP
0700
0900
0900
0600
0000
0000
1F00
6180
60C0
70C0
6040
0040
07C0
1C40
7040
6040
C040
C040
C040
C0C8
6148
3E70
ENDCHAR
STARTCHAR 00E6
ENCODING 230
SWIDTH 500 0
DWIDTH 16 0
BBX 12 16 2 1
BITMAP
39C0
4720
C630
E630
0630
0630
0FF0
3600
6600
C600
C620
C610
C610
C620
CB20
71C0
ENDCHAR
STARTCHAR 00E7
ENCODING 231
SWIDTH 500 0
DWIDTH 16 0
BBX 11 21 3 -4
BITMAP
1F00
30C0
60C0
C0C0
C0C0
C000
C000
C000
C000
C000
C000
C020
C020
6040
3080
1F00
0800
1F00
0100
0100
1F00
ENDCHAR
STARTCHAR 00E8
ENCODING 232
SWIDTH 500 0
DWIDTH 16 0
BBX 12 21 2 1
BITMAP
3C00
0600
0300
0000
0000
0F00
30C0
2040
6060
6060
C020
FFF0
C000
C000
C000
6000
6020
6020
3040
18C0
0F00
ENDCHAR
STARTCHAR 00E9
ENCODING 233
SWIDTH 500 0
DWIDTH 16 0
BBX 12 21 2 1
BITMAP
03C0
0600
0C00
0000
0000
0F00
30C0
2040
6060
6060
C020
FFF0
C000
C000
C000
6000
6020
6020
3040
18C0
0F00
ENDCHAR
STARTCHAR 00EA
ENCODING 234
SWIDTH 500 0
DWIDTH 16 0
BBX 12 21 2 1
BITMAP
0600
0F00
1080
2040
0000
0F00
30C0
2040
6060
6060
C020
FFF0
C000
C000
C000
6000
6020
6020
3040
18C0
0F00
ENDCHAR
STARTCHAR 00EB
ENCODING 235
SWIDTH 500 0
DWIDTH 16 0
BBX 12 21 2 1
BITMAP
30C0
70E0
30C0
0000
0000
0F00
30C0
2040
6060
6060
C020
FFF0
C000
C000
C000
6000
6020
6020
3040
18C0
0F00
ENDCHAR
STARTCHAR 00EC
ENCODING 236
SWIDTH 500 0
DWIDTH 16 0
BBX 7 20 4 2
BITMAP
F0
18
0C
00
08
78
18
18
18
18
18
18
18
18
18
18
18
18
18
7E
ENDCHAR
STARTCHAR 00ED
ENCODING 237
SWIDTH 500 0
DWIDTH 16 0
BBX 7 20 5 2
BITMAP
1E
30
40
80
10
F0
30
30
30
30
30
30
30
30
30
30
30
30
30
FC
ENDCHAR
STARTCHAR 00EE
ENCODING 238
SWIDTH 500 0
DWIDTH 16 0
BBX 8 20 4 2
BITMAP
18
3C
42
81
08
78
18
18
18
18
18
18
18
18
18
18
18
18
18
7E
ENDCHAR
STARTCHAR 00EF
ENCODING 239
SWIDTH 500 0
DWIDTH 16 0
BBX 10 20 3 2
BITMAP
6180
E1C0
6180
0000
0400
3C00
0C00
0C00
0C00
0C00
0C00
0C00
0C00
0C00
0C00
0C00
0C00
0C00
0C00
3F00
ENDCHAR
STARTCHAR 00F0
ENCODING 240
SWIDTH 500 0
DWIDTH 16 0
BBX 12 24 2 1
BITMAP
2080
5B00
0C00
0E00
3300
4180
0080
00C0
0F40
31E0
60E0
6060
C070
C070
C030
C030
C030
C030
C060
C060
6060
60C0
3180
0F00
ENDCHAR
STARTCHAR 00F1
ENCODING 241
SWIDTH 500 0
DWIDTH 16 0
BBX 14 20 1 2
BITMAP
0E20
13C0
0000
0000
1000
F3C0
3C60
3830
3030
3030
3030
3030
3030
3030
3030
3030
3030
3030
3030
FCFC
ENDCHAR
STARTCHAR 00F2
ENCODING 242
SWIDTH 500 0
DWIDTH 16 0
BBX 12 21 2 1
BITMAP
3C00
0600
0300
0000
0000
0F00
30C0
6040
6060
E060
C030
C030
C030
C030
C030
C030
4060
6060
2060
30C0
0F00
ENDCHAR
STARTCHAR 00F3
ENCODING 243
SWIDTH 500 0
DWIDTH 16 0
BBX 12 21 2 1
BITMAP
03C0
0600
0C00
0000
0000
0F00
30C0
6040
6060
E060
C030
C030
C030
C030
C030
C030
4060
6060
2060
30C0
0F00
ENDCHAR
STARTCHAR 00F4
ENCODING 244
SWIDTH 500 0
DWIDTH 16 0
BBX 12 21 2 1
BITMAP
0600
0F00
1080
2040
0000
0F00
30C0
6040
6060
E060
C030
C030
C030
C030
C030
C030
4060
6060
2060
30C0
0F00
ENDCHAR
STARTCHAR 00F5
ENCODING 245
SWIDTH 500 0
DWIDTH 16 0
BBX 12 21 2 1
BITMAP
1C40
2380
0000
0000
0000
0F00
30C0
6040
6060
E060
C030
C030
C030
C030
C030
C030
4060
6060
2060
30C0
0F00
ENDCHAR
STARTCHAR 00F6
ENCODING 246
SWIDTH 500 0
DWIDTH 16 0
BBX 12 21 2 1
BITMAP
30C0
70E0
30C0
0000
0000
0F00
30C0
6040
6060
E060
C030
C030
C030
C030
C030
C030
4060
6060
2060
30C0
0F00
ENDCHAR
STARTCHAR 00F7
ENCODING 247
SWIDTH 1000 0
DWIDTH 32 0
BBX 22 16 5 5
BITMAP
003000
007800
007800
003000
000000
000000
000000
000000
FFFFFC
000000
000000
000000
003000
007800
007800
003000
ENDCHAR
STARTCHAR 00F8
ENCODING 248
SWIDTH 500 0
DWIDTH 16 0
BBX 12 19 2 0
BITMAP
0020
0020
0FE0
30C0
60E0
60E0
E130
C130
C230
C230
C430
CC30
C830
5860
7060
6040
30C0
4F00
4000
ENDCHAR
STARTCHAR 00F9
ENCODING 249
SWIDTH 500 0
DWIDTH 16 0
BBX 14 21 1 1
BITMAP
1E00
0300
0180
0000
0000
F0F0
3030
3030
3030
3030
3030
3030
3030
3030
3030
3030
3030
3030
3070
18F0
0F3C
ENDCHAR
STARTCHAR 00FA
ENCODING 250
SWIDTH 500 0
DWIDTH 16 0
BBX 14 21 1 1
BITMAP
01E0
0300
0600
0000
0000
F0F0
3030
3030
3030
3030
3030
3030
3030
3030
3030
3030
3030
3030
3070
18F0
0F3C
ENDCHAR
STARTCHAR 00FB
ENCODING 251
SWIDTH 500 0
DWIDTH 16 0
BBX 14 21 1 1
BITMAP
0300
0780
0840
1020
0000
F0F0
3030
3030
3030
3030
3030
3030
3030
3030
3030
3030
3030
3030
3070
18F0
0F3C
ENDCHAR
STARTCHAR 00FC
ENCODING 252
SWIDTH 500 0
DWIDTH 16 0
BBX 14 21 1 1
BITMAP
1860
3870
1860
0000
0000
7070
F0F0
3030
3030
3030
3030
3030
3030
3030
3030
3030
3030
3030
3070
18F0
0F3C
ENDCHAR
STARTCHAR 00FD
ENCODING 253
SWIDTH 500 0
DWIDTH 16 0
BBX 15 25 1 -3
BITMAP
01E0
0300
0600
0000
0000
FC7E
7018
3010
1010
1820
1820
0C20
0C40
0440
0640
0680
0380
0380
0100
0100
0200
0200
6600
7400
3800
ENDCHAR
STARTCHAR 00FE
ENCODING 254
SWIDTH 500 0
DWIDTH 16 0
BBX 12 28 2 -3
BITMAP
2000
E000
6000
2000
2000
2000
2000
2000
2780
38C0
3060
2060
2030
2030
2030
2030
2030
2030
2030
2030
2060
3060
28C0
2780
2000
2000
7000
FC00
ENDCHAR
STARTCHAR 00FF
ENCODING 255
SWIDTH 500 0
DWIDTH 16 0
BBX 15 25 1 -3
BITMAP
1C70
1C70
1C30
0000
0000
FC7E
7018
3010
1010
1830
1820
0C20
0C40
0440
0640
0680
0380
0380
0100
0100
0300
0200
6600
7400
3800
ENDCHAR
STARTCHAR 0100
ENCODING 256
SWIDTH 500 0
DWIDTH 16 0
BBX 14 25 1 2
BITMAP
1FE0
0000
0200
0300
0300
0300
0700
0580
0580
0580
0C80
08C0
08C0
08C0
1860
1060
1FE0
1060
3030
2030
2030
2030
4038
4038
F07C
ENDCHAR
STARTCHAR 0101
ENCODING 257
SWIDTH 500 0
DWIDTH 16 0
BBX 13 20 2 1
BITMAP
3FC0
0000
0000
0000
1F00
6180
60C0
70C0
6040
0040
07C0
1C40
7040
6040
C040
C040
C040
C0C8
6148
3E70
ENDCHAR
STARTCHAR 0102
ENCODING 258
SWIDTH 500 0
DWIDTH 16 0
BBX 14 26 1 2
BITMAP
1060
0840
0780
0000
0300
0300
0300
0300
0580
0580
0580
0C80
08C0
08C0
08C0
18C0
1060
1FE0
1060
3030
2030
2030
2030
4038
4038
F07C
ENDCHAR
STARTCHAR 0103
ENCODING 259
SWIDTH 500 0
DWIDTH 16 0
BBX 13 21 2 1
BITMAP
20C0
1080
0F00
0000
0000
1F00
6180
60C0
70C0
6040
0040
07C0
1C40
7040
6040
C040
C040
C040
C0C8
6148
3E70
ENDCHAR
STARTCHAR 0104
ENCODING 260
SWIDTH 500 0
DWIDTH 16 0
BBX 14 29 1 -4
BITMAP
0200
0300
0300
0300
0700
0580
0580
0580
0C80
08C0
08C0
08C0
18C0
1060
1FE0
1060
3030
2030
2030
2030
4038
4038
F07C
0030
0060
0040
0044
00C4
0078
ENDCHAR
STARTCHAR 0105
ENCODING 261
SWIDTH 500 0
DWIDTH 16 0
BBX 13 21 2 -4
BITMAP
1F00
6180
60C0
70C0
6040
0040
07C0
1C40
7040
6040
C040
C040
C040
C0C8
6148
3E70
0040
0080
0180
0188
00F0
ENDCHAR
STARTCHAR 0106
ENCODING 262
SWIDTH 500 0
DWIDTH 16 0
BBX 12 27 2 1
BITMAP
03C0
0600
0C00
0000
0F90
18F0
3070
2030
6030
6020
6010
C000
C000
C000
C000
C000
C000
C000
C000
C010
E010
6010
6020
3020
3040
18C0
0F80
ENDCHAR
STARTCHAR 0107
ENCODING 263
SWIDTH 500 0
DWIDTH 16 0
BBX 11 21 3 1
BITMAP
0780
0C00
1800
0000
0000
1F00
30C0
60C0
C0C0
C0C0
C000
C000
C000
C000
C000
C000
C020
C020
6040
3080
1F00
ENDCHAR
STARTCHAR 0108
ENCODING 264
SWIDTH 500 0
DWIDTH 16 0
BBX 12 27 2 1
BITMAP
0700
0D80
10C0
0000
0F90
18F0
3070
2030
6030
6020
6010
C000
C000
C000
C000
C000
C000
C000
C000
C010
E010
6010
6020
3020
3040
18C0
0F80
ENDCHAR
STARTCHAR 0109
ENCODING 265
SWIDTH 500 0
DWIDTH 16 0
BBX 11 21 3 1
BITMAP
0E00
1B00
3080
0000
0000
1F00
30C0
60C0
C0C0
C0C0
C000
C000
C000
C000
C000
C000
C020
C020
6040
3080
1F00
ENDCHAR
STARTCHAR 010C
ENCODING 268
SWIDTH 500 0
DWIDTH 16 0
BBX 12 27 2 1
BITMAP
10C0
0D80
0700
0000
0F90
18F0
3070
3030
6030
6030
6010
C000
C000
C000
C000
C000
C000
C000
C000
C010
6010
6010
6020
3020
3040
18C0
0F80
ENDCHAR
STARTCHAR 010D
ENCODING 269
SWIDTH 500 0
DWIDTH 16 0
BBX 11 21 3 1
BITMAP
3080
1B00
0E00
0000
0000
1F00
30C0
60C0
C0C0
C0C0
C000
C000
C000
C000
C000
C000
C020
C020
6040
3080
1F00
ENDCHAR
STARTCHAR 010E
ENCODING 270
SWIDTH 500 0
DWIDTH 16 0
BBX 13 26 1 2
BITMAP
30C0
0F00
0600
0000
FF00
30C0
3060
3030
3030
3018
3018
3018
3018
3018
3018
3018
3018
3018
3018
3018
3018
3030
3030
3060
30C0
FF00
ENDCHAR
STARTCHAR 010F
ENCODING 271
SWIDTH 500 0
DWIDTH 16 0
BBX 15 26 1 1
BITMAP
000C
001E
005E
01DC
00C4
0048
0050
0040
0040
0040
0F40
30C0
7040
6040
6040
C040
C040
C040
C040
C040
C040
6040
60C0
60C0
3140
1E70
ENDCHAR
STARTCHAR 0111
ENCODING 273
SWIDTH 500 0
DWIDTH 16 0
BBX 13 23 2 1
BITMAP
01E0
00E0
0060
0060
03F8
0060
0060
1F60
38E0
7060
6060
E060
C060
C060
C060
C060
C060
C060
4060
6060
60E0
30E0
1F78
ENDCHAR
STARTCHAR 0112
ENCODING 274
SWIDTH 500 0
DWIDTH 16 0
BBX 13 25 1 2
BITMAP
1FE0
0000
0000
FFF8
3018
3018
3008
3008
3008
3000
3040
3040
3040
3FC0
3040
3040
3040
3000
3000
3008
3008
3008
3008
3018
FFF8
ENDCHAR
STARTCHAR 0113
ENCODING 275
SWIDTH 500 0
DWIDTH 16 0
BBX 12 20 2 1
BITMAP
3FC0
0000
0000
0000
0F00
30C0
2040
6060
6060
C020
FFF0
C000
C000
C000
6000
6020
6020
3040
18C0
0F00
ENDCHAR
STARTCHAR 0118
ENCODING 280
SWIDTH 500 0
DWIDTH 16 0
BBX 13 28 1 -4
BITMAP
FFF8
3018
3018
3008
3008
3008
3000
3040
3040
3040
3FC0
3040
3040
3040
3000
3000
3008
3008
3008
3008
3018
FFF8
0300
0600
0400
0C40
0C40
0780
ENDCHAR
STARTCHAR 0119
ENCODING 281
SWIDTH 500 0
DWIDTH 16 0
BBX 12 21 2 -4
BITMAP
0F00
30C0
2040
6060
6060
C020
FFF0
C000
C000
C000
6000
6020
6020
3060
38C0
0F80
0400
0C00
0800
0880
0F00
ENDCHAR
STARTCHAR 011A
ENCODING 282
SWIDTH 500 0
DWIDTH 16 0
BBX 13 26 1 2
BITMAP
1860
0780
0300
0000
FFF8
3018
3018
3008
3008
3008
3000
3040
3040
3040
3FC0
3040
3040
3040
3000
3000
3008
3008
3008
3008
3018
FFF8
ENDCHAR
STARTCHAR 011B
ENCODING 283
SWIDTH 500 0
DWIDTH 16 0
BBX 12 21 2 1
BITMAP
30C0
0F00
0600
0000
0000
0F00
30C0
2040
6060
6060
C020
FFF0
C000
C000
C000
6000
6020
6020
3040
18C0
0F00
ENDCHAR
STARTCHAR 011C
ENCODING 284
SWIDTH 500 0
DWIDTH 16 0
BBX 13 27 2 1
BITMAP
0700
0D80
10C0
0000
0FA0
18E0
3060
6020
6020
E020
C000
C000
C000
C000
C000
C000
C0F8
C070
C020
C020
C020
6020
6020
6060
3060
18A0
0F20
ENDCHAR
STARTCHAR 011D
ENCODING 285
SWIDTH 500 0
DWIDTH 16 0
BBX 14 25 1 -3
BITMAP
0700
0D80
1840
0000
0000
0FFC
18EC
3060
6030
6030
6030
3060
38C0
1F80
2000
6000
3800
1FC0
31F0
6018
C018
C00C
6018
7038
1FE0
ENDCHAR
STARTCHAR 0124
ENCODING 292
SWIDTH 500 0
DWIDTH 16 0
BBX 14 26 1 2
BITMAP
0300
0780
0840
1020
F87C
7038
3030
2030
2030
2030
2030
2030
2030
2030
3FF0
2030
2030
2030
2030
2030
2030
2030
2030
2030
7030
F87C
ENDCHAR
STARTCHAR 0125
ENCODING 293
SWIDTH 500 0
DWIDTH 16 0
BBX 14 26 1 2
BITMAP
0380
06C0
0860
0000
F000
3000
3000
3000
3000
3000
3000
33C0
3C60
3030
3030
3030
3030
3030
3030
3030
3030
3030
3030
3030
3030
FCFC
ENDCHAR
STARTCHAR 0127
ENCODING 295
SWIDTH 500 0
DWIDTH 16 0
BBX 14 22 1 2
BITMAP
F000
7000
3000
3000
FE00
3000
3000
33C0
3C60
3030
3030
3030
3030
3030
3030
3030
3030
3030
3030
3030
3030
FCFC
ENDCHAR
STARTCHAR 012A
ENCODING 298
SWIDTH 500 0
DWIDTH 16 0
BBX 8 25 4 2
BITMAP
FF
00
00
7E
18
18
18
18
18
18
18
18
18
18
18
18
18
18
18
18
18
18
18
18
7E
ENDCHAR
STARTCHAR 012B
ENCODING 299
SWIDTH 500 0
DWIDTH 16 0
BBX 8 19 4 2
BITMAP
FF
00
00
00
78
18
18
18
18
18
18
18
18
18
18
18
18
18
7E
ENDCHAR
STARTCHAR 0134
ENCODING 308
SWIDTH 500 0
DWIDTH 16 0
BBX 13 27 2 1
BITMAP
00C0
01E0
0210
0408
03F8
00C0
00C0
00C0
00C0
00C0
00C0
00C0
00C0
00C0
00C0
00C0
00C0
00C0
00C0
00C0
00C0
E0C0
E0C0
E0C0
4180
6300
1E00
ENDCHAR
STARTCHAR 0135
ENCODING 309
SWIDTH 500 0
DWIDTH 16 0
BBX 10 25 3 -3
BITMAP
0700
0D80
10C0
0000
0100
0F00
0300
0300
0300
0300
0300
0300
0300
0300
0300
0300
0300
0300
0300
0300
C300
C300
C200
C600
7C00
ENDCHAR
STARTCHAR 0139
ENCODING 313
SWIDTH 500 0
DWIDTH 16 0
BBX 12 26 2 2
BITMAP
03C0
0600
0800
1000
FC00
7000
3000
3000
3000
3000
3000
3000
3000
3000
3000
3000
3000
3000
3000
3000
3010
3010
3010
3030
7070
FFF0
ENDCHAR
STARTCHAR 013A
ENCODING 314
SWIDTH 500 0
DWIDTH 16 0
BBX 7 26 5 2
BITMAP
1E
30
40
90
F0
30
30
30
30
30
30
30
30
30
30
30
30
30
30
30
30
30
30
30
30
FC
ENDCHAR
STARTCHAR 013D
ENCODING 317
SWIDTH 500 0
DWIDTH 16 0
BBX 12 24 2 2
BITMAP
00E0
00E0
FCE0
7020
3060
30C0
3000
3000
3000
3000
3000
3000
3000
3000
3000
3000
3000
3000
3010
3010
3010
3030
7070
FFF0
ENDCHAR
STARTCHAR 013E
ENCODING 318
SWIDTH 500 0
DWIDTH 16 0
BBX 10 25 4 2
BITMAP
0180
03C0
13C0
F1C0
3080
1080
1100
1200
1000
1000
1000
1000
1000
1000
1000
1000
1000
1000
1000
1000
1000
1000
1000
3800
FC00
ENDCHAR
STARTCHAR 0141
ENCODING 321
SWIDTH 500 0
DWIDTH 16 0
BBX 13 22 1 2
BITMAP
FE00
3800
1800
1800
1800
1800
1A00
1B00
1C00
1800
1800
3800
5800
9800
1800
1800
1808
1808
1808
1818
3838
FFF8
ENDCHAR
STARTCHAR 0142
ENCODING 322
SWIDTH 500 0
DWIDTH 16 0
BBX 10 23 3 2
BITMAP
0C00
3C00
0C00
0C00
0C00
0C00
0C00
0CC0
0D80
0E00
0C00
0C00
1C00
2C00
4C00
8C00
0C00
0C00
0C00
0C00
0C00
0C00
3F00
ENDCHAR
STARTCHAR 0143
ENCODING 323
SWIDTH 500 0
DWIDTH 16 0
BBX 14 27 1 1
BITMAP
01E0
0300
0600
0000
F07C
3010
3810
3810
2C10
2C10
2610
2610
2610
2310
2310
2190
2190
20D0
20D0
20D0
2070
2070
2030
2030
2030
F810
0010
ENDCHAR
STARTCHAR 0144
ENCODING 324
SWIDTH 500 0
DWIDTH 16 0
BBX 14 20 1 2
BITMAP
01E0
0300
0600
0000
1000
F3C0
3C60
3830
3030
3030
3030
3030
3030
3030
3030
3030
3030
3030
3030
FCFC
ENDCHAR
STARTCHAR 0147
ENCODING 327
SWIDTH 500 0
DWIDTH 16 0
BBX 14 27 1 1
BITMAP
1860
0780
0300
0000
F07C
3010
3810
3810
2C10
2C10
2610
2610
2610
2310
2310
2190
2190
20D0
20D0
20D0
2070
2070
2030
2030
2030
F810
0010
ENDCHAR
STARTCHAR 0148
ENCODING 328
SWIDTH 500 0
DWIDTH 16 0
BBX 14 20 1 2
BITMAP
1860
0780
0300
0000
1000
F3C0
3C60
3830
3030
3030
3030
3030
3030
3030
3030
3030
3030
3030
3030
FCFC
ENDCHAR
STARTCHAR 014B
ENCODING 331
SWIDTH 500 0
DWIDTH 16 0
BBX 12 21 1 -3
BITMAP
1000
F3C0
3C60
3830
3030
3030
3030
3030
3030
3030
3030
3030
3030
3030
3030
FC30
0030
0030
0730
0660
03C0
ENDCHAR
STARTCHAR 014C
ENCODING 332
SWIDTH 500 0
DWIDTH 16 0
BBX 12 26 2 1
BITMAP
3FC0
0000
0000
0F00
1880
3040
6060
6060
C030
C030
C030
C030
C030
C030
C030
C030
C030
C030
C030
C030
C030
6060
6060
20C0
1180
0F00
ENDCHAR
STARTCHAR 014D
ENCODING 333
SWIDTH 500 0
DWIDTH 16 0
BBX 12 20 2 1
BITMAP
3FC0
0000
0000
0000
0F00
30C0
6040
6060
E060
C030
C030
C030
C030
C030
C030
4060
6060
2060
30C0
0F00
ENDCHAR
STARTCHAR 0150
ENCODING 336
SWIDTH 500 0
DWIDTH 16 0
BBX 13 27 2 1
BITMAP
0FF8
1CC0
3100
0200
0F00
1980
30C0
6060
6060
C030
C030
C030
C030
C030
C030
C030
C030
C030
C030
C030
C030
C030
6060
6060
20C0
1180
0F00
ENDCHAR
STARTCHAR 0151
ENCODING 337
SWIDTH 500 0
DWIDTH 16 0
BBX 13 21 2 1
BITMAP
0FF8
1CC0
3100
0000
0000
0F00
30C0
6040
6060
E060
C030
C030
C030
C030
C030
C030
4060
6060
2060
30C0
0F00
ENDCHAR
STARTCHAR 0152
ENCODING 338
SWIDTH 500 0
DWIDTH 16 0
BBX 13 23 2 1
BITMAP
1FF0
3310
2310
6310
4310
C300
C300
C320
C320
C320
C3E0
C320
C320
C320
C300
C300
C300
C308
4308
6318
6318
33F8
1C00
ENDCHAR
STARTCHAR 0153
ENCODING 339
SWIDTH 500 0
DWIDTH 16 0
BBX 12 16 2 1
BITMAP
39C0
4D20
4730
C630
C630
8630
87F0
8600
8600
8600
8620
C610
C610
C710
4D20
39C0
ENDCHAR
STARTCHAR 0154
ENCODING 340
SWIDTH 500 0
DWIDTH 16 0
BBX 14 26 1 2
BITMAP
01E0
0300
0400
0800
FF80
30E0
3030
3030
3038
3038
3038
3030
3070
30E0
3F80
3300
3180
3180
30C0
30C0
3060
3060
3060
3030
3038
FC1C
ENDCHAR
STARTCHAR 0155
ENCODING 341
SWIDTH 500 0
DWIDTH 16 0
BBX 11 20 3 2
BITMAP
0780
0C00
1800
0000
1000
F1C0
36E0
3CE0
3800
3000
3000
3000
3000
3000
3000
3000
3000
3000
3000
FC00
ENDCHAR
STARTCHAR 0158
ENCODING 344
SWIDTH 500 0
DWIDTH 16 0
BBX 14 26 1 2
BITMAP
10C0
0D80
0700
0000
FF80
30E0
3030
3030
3038
3038
3038
3030
3070
30E0
3F80
3300
3180
3180
30C0
30C0
3060
3060
3060
3030
3038
FC1C
ENDCHAR
STARTCHAR 0159
ENCODING 345
SWIDTH 500 0
DWIDTH 16 0
BBX 11 20 3 2
BITMAP
6180
1E00
0C00
0000
1000
F1C0
36E0
3CE0
3800
3000
3000
3000
3000
3000
3000
3000
3000
3000
3000
FC00
ENDCHAR
STARTCHAR 015A
ENCODING 346
SWIDTH 500 0
DWIDTH 16 0
BBX 12 27 2 1
BITMAP
03C0
0600
0800
1000
1F20
61E0
6060
4060
C020
4020
6000
7000
3800
1C00
0F00
0380
01C0
00E0
0060
8070
8030
C030
C030
C060
E060
B0C0
8F80
ENDCHAR
STARTCHAR 015B
ENCODING 347
SWIDTH 500 0
DWIDTH 16 0
BBX 10 21 3 1
BITMAP
0780
0C00
1800
0000
0000
3E40
61C0
C0C0
C0C0
C040
6000
7800
1E00
0780
01C0
80C0
8040
C040
C0C0
E180
9F00
ENDCHAR
STARTCHAR 015C
ENCODING 348
SWIDTH 500 0
DWIDTH 16 0
BBX 12 27 2 1
BITMAP
0600
0F00
1080
2040
1F20
30E0
6060
6060
C020
C020
6000
6000
3000
3C00
0E00
0780
01C0
00E0
0060
8070
8030
C030
C030
C060
E060
B0C0
8F80
ENDCHAR
STARTCHAR 015D
ENCODING 349
SWIDTH 500 0
DWIDTH 16 0
BBX 10 21 3 1
BITMAP
0C00
1E00
2100
4080
0000
3E40
61C0
C0C0
C0C0
C040
6000
7800
1E00
0780
01C0
80C0
8040
C040
C0C0
E180
9F00
ENDCHAR
STARTCHAR 015E
ENCODING 350
SWIDTH 500 0
DWIDTH 16 0
BBX 12 28 2 -4
BITMAP
1F20
30E0
6060
4060
C020
4020
6000
7000
3800
1C00
0F00
0380
01C0
0060
8060
8030
C030
C030
C020
E060
90C0
0F80
0600
0F00
0F00
0600
0200
0C00
ENDCHAR
STARTCHAR 015F
ENCODING 351
SWIDTH 500 0
DWIDTH 16 0
BBX 10 21 3 -4
BITMAP
7FC0
61C0
C0C0
C040
6000
3000
1E00
0380
00C0
80C0
8040
C0C0
E1C0
BF00
0000
0E00
0E00
0E00
0E00
0400
0800
ENDCHAR
STARTCHAR 0160
ENCODING 352
SWIDTH 500 0
DWIDTH 16 0
BBX 12 27 2 1
BITMAP
30C0
0F00
0600
0000
1F20
31E0
6060
6060
C020
C020
6000
6000
3000
3C00
0E00
0780
01C0
00E0
0060
8070
8030
C030
C030
C020
E060
B0C0
8F80
ENDCHAR
STARTCHAR 0161
ENCODING 353
SWIDTH 500 0
DWIDTH 16 0
BBX 10 21 3 1
BITMAP
6180
1E00
0C00
0000
0000
3E40
61C0
C0C0
C0C0
C040
6000
7800
1E00
0780
01C0
80C0
8040
C040
C0C0
E180
9F00
ENDCHAR
STARTCHAR 0162
ENCODING 354
SWIDTH 500 0
DWIDTH 16 0
BBX 12 28 2 -4
BITMAP
FFF0
C630
8610
8610
8610
8610
0600
0600
0600
0600
0600
0600
0600
0600
0600
0600
0600
0600
0600
0600
1F80
0000
0600
0F00
0700
0200
0600
0800
ENDCHAR
STARTCHAR 0163
ENCODING 355
SWIDTH 500 0
DWIDTH 16 0
BBX 10 26 3 -4
BITMAP
0800
0800
1800
1800
7800
FF80
1800
1800
1800
1800
1800
1800
1800
1800
1800
1800
1840
1880
0F00
0000
0C00
1E00
0E00
0400
0C00
1000
ENDCHAR
STARTCHAR 0164
ENCODING 356
SWIDTH 500 0
DWIDTH 16 0
BBX 12 26 2 2
BITMAP
30C0
0F00
0600
0000
FFF0
C630
8610
8610
8610
8610
0600
0600
0600
0600
0600
0600
0600
0600
0600
0600
0600
0600
0600
0600
0600
1F80
ENDCHAR
STARTCHAR 0165
ENCODING 357
SWIDTH 500 0
DWIDTH 16 0
BBX 10 26 3 1
BITMAP
01C0
01C0
01C0
01C0
0040
0880
0900
1800
1800
7800
FF80
1800
1800
1800
1800
1800
1800
1800
1800
1800
1800
1800
1840
1840
1880
0F00
ENDCHAR
STARTCHAR 016A
ENCODING 362
SWIDTH 500 0
DWIDTH 16 0
BBX 14 26 1 1
BITMAP
1FE0
0000
0000
F87C
7018
6018
6018
6018
6018
6018
6018
6018
6018
6018
6018
6018
6018
6018
6018
6018
2018
3010
3010
3030
1860
0780
ENDCHAR
STARTCHAR 016B
ENCODING 363
SWIDTH 500 0
DWIDTH 16 0
BBX 14 20 1 1
BITMAP
1FE0
0000
0000
0000
F0F0
3030
3030
3030
3030
3030
3030
3030
3030
3030
3030
3030
3030
3070
18F0
0F3C
ENDCHAR
STARTCHAR 016C
ENCODING 364
SWIDTH 500 0
DWIDTH 16 0
BBX 14 27 1 1
BITMAP
1060
0840
0780
0000
F87C
7018
6018
6018
6018
6018
6018
6018
6018
6018
6018
6018
6018
6018
6018
6018
6018
2018
3010
3010
3030
1860
0780
ENDCHAR
STARTCHAR 016D
ENCODING 365
SWIDTH 500 0
DWIDTH 16 0
BBX 14 21 1 1
BITMAP
1060
0840
0780
0000
0000
F0F0
7030
3030
3030
3030
3030
3030
3030
3030
3030
3030
3030
3030
3070
18F0
0F3C
ENDCHAR
STARTCHAR 016E
ENCODING 366
SWIDTH 500 0
DWIDTH 16 0
BBX 14 27 1 1
BITMAP
0380
0480
04C0
0480
FB7C
7018
6018
6018
6018
6018
6018
6018
6018
6018
6018
6018
6018
6018
6018
6018
6018
2018
3010
3010
3030
1860
0780
ENDCHAR
STARTCHAR 016F
ENCODING 367
SWIDTH 500 0
DWIDTH 16 0
BBX 14 22 1 1
BITMAP
0300
0480
0480
0480
0300
0000
7070
F0F0
3030
3030
3030
3030
3030
3030
3030
3030
3030
3030
3030
3070
18F0
0F3C
ENDCHAR
STARTCHAR 0170
ENCODING 368
SWIDTH 500 0
DWIDTH 16 0
BBX 14 27 1 1
BITMAP
07FC
0E60
1880
0000
F87C
7018
6018
6018
6018
6018
6018
6018
6018
6018
6018
6018
6018
6018
6018
6018
6018
2018
3010
3010
3030
1860
0780
ENDCHAR
STARTCHAR 0171
ENCODING 369
SWIDTH 500 0
DWIDTH 16 0
BBX 14 21 1 1
BITMAP
07FC
0E60
1880
0000
0000
F0F0
7030
3030
3030
3030
3030
3030
3030
3030
3030
3030
3030
3030
3070
18F0
0F3C
ENDCHAR
STARTCHAR 0179
ENCODING 377
SWIDTH 500 0
DWIDTH 16 0
BBX 12 26 2 2
BITMAP
03C0
0600
0C00
0000
FFF0
E060
C060
C0C0
80C0
8180
0180
0300
0300
0600
0600
0C00
0C00
1800
1800
3000
3010
6010
6030
E030
C070
FFF0
ENDCHAR
STARTCHAR 017A
ENCODING 378
SWIDTH 500 0
DWIDTH 16 0
BBX 12 20 2 2
BITMAP
01E0
0300
0C00
0000
0000
7FE0
6060
40C0
4180
4180
0300
0600
0600
0C00
1800
1810
3010
6030
6070
FFF0
ENDCHAR
STARTCHAR 017B
ENCODING 379
SWIDTH 500 0
DWIDTH 16 0
BBX 12 26 2 2
BITMAP
0600
0F00
0600
0000
FFF0
E060
C060
C0C0
80C0
8180
0180
0300
0300
0600
0600
0C00
0C00
1800
1800
3000
3010
6010
6030
E030
C070
FFF0
ENDCHAR
STARTCHAR 017C
ENCODING 380
SWIDTH 500 0
DWIDTH 16 0
BBX 12 21 2 2
BITMAP
0700
0700
0700
0000
0000
0000
7FE0
6060
40C0
4180
4180
0300
0600
0600
0C00
1800
1810
3010
6030
6070
FFF0
ENDCHAR
STARTCHAR 017D
ENCODING 381
SWIDTH 500 0
DWIDTH 16 0
BBX 12 26 2 2
BITMAP
30C0
0F00
0600
0000
FFF0
E060
C060
C0C0
80C0
8180
0180
0300
0300
0600
0600
0C00
0C00
1800
1800
3000
3010
6010
6030
E030
C070
FFF0
ENDCHAR
STARTCHAR 017E
ENCODING 382
SWIDTH 500 0
DWIDTH 16 0
BBX 12 20 2 2
BITMAP
30C0
0F00
0600
0000
0000
7FE0
6060
40C0
4180
4180
0300
0600
0600
0C00
1800
1810
3010
6030
6070
FFF0
ENDCHAR
STARTCHAR 0193
ENCODING 403
SWIDTH 500 0
DWIDTH 16 0
BBX 14 27 2 1
BITMAP
0070
0048
00CC
00DC
1FDC
31C0
20C0
60C0
60C0
C040
C000
C000
C000
C000
C000
C000
C3E0
C0C0
C0C0
C0C0
C0C0
C0C0
60C0
60C0
61C0
33C0
1E40
ENDCHAR
STARTCHAR 01C2
ENCODING 450
SWIDTH 500 0
DWIDTH 16 0
BBX 10 28 3 -3
BITMAP
0C00
0C00
0C00
0C00
0C00
0C00
0C00
0C00
FFC0
0C00
0C00
0C00
0C00
0C00
0C00
0C00
0C00
0C00
FFC0
0C00
0C00
0C00
0C00
0C00
0C00
0C00
0C00
0C00
ENDCHAR
STARTCHAR 01CD
ENCODING 461
SWIDTH 1000 0
DWIDTH 32 0
BBX 25 26 4 2
BITMAP
00C30000
00660000
003C0000
00000000
00180000
00180000
003C0000
002C0000
006C0000
00460000
00460000
00870000
00830000
01838000
01018000
0301C000
0200C000
07FFC000
0400E000
0C006000
08007000
08003000
18003800
10001800
30001C00
FE00FF80
ENDCHAR
STARTCHAR 01CE
ENCODING 462
SWIDTH 1000 0
DWIDTH 32 0
BBX 16 21 9 1
BITMAP
1CE0
0780
0300
0000
0000
1FC0
70E0
6070
7030
7030
0030
07F0
1C30
3030
6030
E030
C030
C031
6073
619E
1E1C
ENDCHAR
STARTCHAR 01D0
ENCODING 464
SWIDTH 1000 0
DWIDTH 32 0
BBX 8 21 12 2
BITMAP
81
66
3C
18
00
08
F8
18
18
18
18
18
18
18
18
18
18
18
18
18
FF
ENDCHAR
STARTCHAR 01D1
ENCODING 465
SWIDTH 1000 0
DWIDTH 32 0
BBX 22 27 5 1
BITMAP
018600
00CC00
007800
000000
00FC00
070300
0E01C0
1C00E0
380070
300030
700038
700038
600018
600018
E0001C
E0001C
E0001C
600018
600018
700038
700038
300030
380070
1C00E0
0E01C0
070380
01FC00
ENDCHAR
STARTCHAR 01D2
ENCODING 466
SWIDTH 1000 0
DWIDTH 32 0
BBX 16 21 8 1
BITMAP
0E70
03C0
0180
0000
0000
07E0
1C38
380C
300C
6006
6006
E007
E007
E007
E007
6006
6006
700E
381C
1C38
07E0
ENDCHAR
STARTCHAR 01D4
ENCODING 468
SWIDTH 1000 0
DWIDTH 32 0
BBX 18 21 7 1
BITMAP
061800
03F000
01E000
000000
000000
F81E00
380600
180600
180600
180600
180600
180600
180600
180600
180600
180600
180600
180600
1C0B00
0E1380
03E3C0
ENDCHAR
STARTCHAR 01D6
ENCODING 470
SWIDTH 1000 0
DWIDTH 32 0
BBX 18 23 7 1
BITMAP
0FFC00
1C0E00
1C0E00
1C0E00
000000
000000
080200
F81E00
380600
180600
180600
180600
180600
180600
180600
180600
180600
180600
180600
180600
1C0B00
0E1380
03E340
ENDCHAR
STARTCHAR 01D8
ENCODING 472
SWIDTH 1000 0
DWIDTH 32 0
BBX 18 23 7 1
BITMAP
007C00
1CCE00
1D0E00
1C0E00
000000
000000
080200
F81E00
380600
180600
180600
180600
180600
180600
180600
180600
180600
180600
180600
180600
1C0B00
0E1380
03E340
ENDCHAR
STARTCHAR 01DA
ENCODING 474
SWIDTH 1000 0
DWIDTH 32 0
BBX 18 24 7 1
BITMAP
040800
033000
1DEE00
1C0E00
1C0E00
000000
000000
080200
F81E00
380600
180600
180600
180600
180600
180600
180600
180600
180600
180600
180600
180600
1C0B00
0E1380
03E340
ENDCHAR
STARTCHAR 01DC
ENCODING 476
SWIDTH 1000 0
DWIDTH 32 0
BBX 18 23 7 1
BITMAP
0F8000
1CCE00
1C2E00
1C0E00
000000
000000
080200
F81E00
380600
180600
180600
180600
180600
180600
180600
180600
180600
180600
180600
180600
1C0B00
0E1380
03E340
ENDCHAR
STARTCHAR 01F8
ENCODING 504
SWIDTH 500 0
DWIDTH 16 0
BBX 14 27 1 1
BITMAP
3C00
0600
0180
0000
F07C
3010
3810
3810
2C10
2C10
2610
2610
2610
2310
2310
2190
2190
20D0
20D0
20D0
2070
2070
2030
2030
2030
F810
0010
ENDCHAR
STARTCHAR 01F9
ENCODING 505
SWIDTH 500 0
DWIDTH 16 0
BBX 14 20 1 2
BITMAP
3C00
0600
0100
0080
1000
F3C0
3C60
3830
3030
3030
3030
3030
3030
3030
3030
3030
3030
3030
3030
FCFC
ENDCHAR
STARTCHAR 01FD
ENCODING 509
SWIDTH 500 0
DWIDTH 16 0
BBX 12 21 2 1
BITMAP
03C0
0600
0C00
0000
0000
39C0
4720
C630
E630
0630
0630
0FF0
3600
6600
C600
C620
C610
C610
C620
CB20
71C0
ENDCHAR
STARTCHAR 0250
ENCODING 592
SWIDTH 500 0
DWIDTH 16 0
BBX 13 16 1 1
BITMAP
73E0
9C30
9818
1018
1018
1018
1030
1060
1380
1C00
1000
1030
1870
1830
0C60
07C0
ENDCHAR
STARTCHAR 0251
ENCODING 593
SWIDTH 500 0
DWIDTH 16 0
BBX 13 17 2 1
BITMAP
0040
1F40
31C0
60C0
60C0
E0C0
C0C0
C0C0
C0C0
C0C0
C0C0
C0C0
C0C0
60C0
60C8
3150
1E70
ENDCHAR
STARTCHAR 0252
ENCODING 594
SWIDTH 500 0
DWIDTH 16 0
BBX 13 16 1 1
BITMAP
73C0
9460
1830
1830
1818
1818
1818
1818
1818
1818
1818
1830
1830
1830
1C60
2780
ENDCHAR
STARTCHAR 0253
ENCODING 595
SWIDTH 500 0
DWIDTH 16 0
BBX 11 23 3 1
BITMAP
1F00
3180
60C0
41C0
C1C0
C0C0
C000
CF00
D180
E0C0
C0C0
C0C0
C060
C060
C060
C060
C060
C060
C0C0
C0C0
C0C0
E180
9F00
ENDCHAR
STARTCHAR 0254
ENCODING 596
SWIDTH 500 0
DWIDTH 16 0
BBX 11 16 2 1
BITMAP
1F00
2180
40C0
8060
0060
0060
0060
0060
0060
0060
0060
6060
6040
60C0
6180
1F00
ENDCHAR
STARTCHAR 0255
ENCODING 597
SWIDTH 500 0
DWIDTH 16 0
BBX 11 17 3 0
BITMAP
1F00
30C0
60C0
C0C0
C0C0
C000
C000
C000
C000
C1C0
C220
C420
C820
7040
30C0
5F00
8000
ENDCHAR
STARTCHAR 0256
ENCODING 598
SWIDTH 500 0
DWIDTH 16 0
BBX 15 28 1 -3
BITMAP
0040
01C0
00C0
0040
0040
0040
0040
0040
0F40
38C0
3040
6040
6040
6040
C040
C040
C040
C040
6040
6040
60C0
30C0
3140
1E4E
004E
004E
0064
0038
ENDCHAR
STARTCHAR 0257
ENCODING 599
SWIDTH 500 0
DWIDTH 16 0
BBX 15 23 1 1
BITMAP
003C
0066
004E
004E
0040
0040
0040
0F40
38C0
3040
6040
6040
6040
C040
C040
C040
C040
4040
6040
60C0
30C0
3160
1E70
ENDCHAR
STARTCHAR 0258
ENCODING 600
SWIDTH 500 0
DWIDTH 16 0
BBX 12 16 2 1
BITMAP
0F00
3180
2040
6060
6060
C030
FFF0
0030
0030
0030
0060
8060
4060
20C0
3180
0F00
ENDCHAR
STARTCHAR 0259
ENCODING 601
SWIDTH 500 0
DWIDTH 16 0
BBX 12 16 2 1
BITMAP
1F00
21C0
40E0
4060
0060
0070
0030
0030
FFF0
C030
6060
6060
6060
30C0
3980
0F00
ENDCHAR
STARTCHAR 025A
ENCODING 602
SWIDTH 500 0
DWIDTH 16 0
BBX 14 16 2 1
BITMAP
3C00
4600
8200
8300
8340
01C4
07A4
09A8
3198
4180
C180
C180
C100
6300
3200
1C00
ENDCHAR
STARTCHAR 025C
ENCODING 604
SWIDTH 500 0
DWIDTH 16 0
BBX 12 16 2 1
BITMAP
1F00
70C0
6040
4060
4060
00C0
00C0
1F00
00C0
0060
8060
8070
C060
C060
E0C0
3F80
ENDCHAR
STARTCHAR 025E
ENCODING 606
SWIDTH 500 0
DWIDTH 16 0
BBX 12 16 2 1
BITMAP
0F80
3FE0
3030
4010
4010
8010
8020
87C0
8020
8010
8010
4010
4030
3060
3FE0
0F80
ENDCHAR
STARTCHAR 025F
ENCODING 607
SWIDTH 500 0
DWIDTH 16 0
BBX 12 20 1 -3
BITMAP
07E0
0180
0180
0180
0180
0180
0180
0180
0180
0180
0180
1FF0
0180
0180
0180
0180
6180
E300
6300
3C00
ENDCHAR
STARTCHAR 0260
ENCODING 608
SWIDTH 500 0
DWIDTH 16 0
BBX 15 27 1 -3
BITMAP
003C
0066
004E
004E
0040
0040
0040
1F40
30C0
6040
6040
6040
C040
C040
C040
4040
6040
60C0
31C0
1E40
0040
7040
70C0
70C0
60C0
3180
1F00
ENDCHAR
STARTCHAR 0261
ENCODING 609
SWIDTH 500 0
DWIDTH 16 0
BBX 11 21 2 -3
BITMAP
0020
1F20
30E0
6060
6060
E060
C060
C060
C060
C060
6060
6060
30E0
1F60
0060
6060
7060
7060
60C0
3180
1F00
ENDCHAR
STARTCHAR 0264
ENCODING 612
SWIDTH 500 0
DWIDTH 16 0
BBX 14 16 1 1
BITMAP
6018
703C
9864
8C44
0C80
0780
0700
0300
0300
0380
0580
0580
0480
0480
0480
0300
ENDCHAR
STARTCHAR 0265
ENCODING 613
SWIDTH 500 0
DWIDTH 16 0
BBX 14 20 1 -3
BITMAP
FCFC
3030
3030
3030
3030
3030
3030
3030
3030
3030
3030
3030
3030
3070
18B0
0F30
0030
0030
003C
0030
ENDCHAR
STARTCHAR 0266
ENCODING 614
SWIDTH 500 0
DWIDTH 16 0
BBX 14 22 1 2
BITMAP
07C0
1830
1070
3070
3000
3000
3000
33C0
3C60
3030
3030
3030
3030
3030
3030
3030
3030
3030
3030
3030
3030
FCFC
ENDCHAR
STARTCHAR 0267
ENCODING 615
SWIDTH 500 0
DWIDTH 16 0
BBX 12 27 1 -3
BITMAP
07C0
1830
1070
3070
3000
3000
3000
33C0
3C60
3030
3030
3030
3030
3030
3030
3030
3030
3030
3030
3030
3030
FC30
0030
0030
0730
0660
03C0
ENDCHAR
STARTCHAR 0268
ENCODING 616
SWIDTH 500 0
DWIDTH 16 0
BBX 8 22 4 2
BITMAP
18
3C
18
00
00
00
08
78
18
18
18
18
18
FF
18
18
18
18
18
18
18
7E
ENDCHAR
STARTCHAR 026C
ENCODING 620
SWIDTH 500 0
DWIDTH 16 0
BBX 9 23 3 2
BITMAP
0C00
3C00
0C00
0C00
0C00
0C00
0C00
0C00
EC00
9C00
8C00
8C00
4C00
3F80
0C00
0C00
0C00
0C00
0C00
0C00
0C00
0C00
3F00
ENDCHAR
STARTCHAR 026D
ENCODING 621
SWIDTH 500 0
DWIDTH 16 0
BBX 10 27 4 -3
BITMAP
F000
3000
3000
1000
1000
1000
1000
1000
1000
1000
1000
1000
1000
1000
1000
1000
1000
1000
1000
1000
1000
1000
10C0
11C0
19C0
18C0
0F00
ENDCHAR
STARTCHAR 026E
ENCODING 622
SWIDTH 500 0
DWIDTH 16 0
BBX 14 28 1 -3
BITMAP
1000
F000
3000
3000
3000
3000
3000
3000
3FF8
3FF0
3830
3060
30C0
3180
3100
33E0
3430
3038
3018
3018
3018
301C
FC18
0018
0018
1C30
1870
07C0
ENDCHAR
STARTCHAR 026F
ENCODING 623
SWIDTH 500 0
DWIDTH 16 0
BBX 16 16 0 1
BITMAP
FBDF
318C
318C
318C
318C
318C
318C
318C
318C
318C
318C
318C
318C
318C
3296
1CE7
ENDCHAR
STARTCHAR 0270
ENCODING 624
SWIDTH 500 0
DWIDTH 16 0
BBX 16 20 0 -3
BITMAP
FBDF
318C
318C
318C
318C
318C
318C
318C
318C
318C
318C
318C
318C
318C
3294
1CE4
0004
0004
0007
0004
ENDCHAR
STARTCHAR 0271
ENCODING 625
SWIDTH 500 0
DWIDTH 16 0
BBX 14 21 0 -3
BITMAP
2000
E738
39CC
318C
318C
318C
318C
318C
318C
318C
318C
318C
318C
318C
318C
7BCC
000C
000C
00EC
00CC
0078
ENDCHAR
STARTCHAR 0272
ENCODING 626
SWIDTH 500 0
DWIDTH 16 0
BBX 15 21 0 -3
BITMAP
0400
1CF0
0518
0618
0408
0408
0408
0408
0408
0408
0408
0408
0408
0408
041C
043E
E400
E400
CC00
4C00
3800
ENDCHAR
STARTCHAR 0273
ENCODING 627
SWIDTH 500 0
DWIDTH 16 0
BBX 15 21 1 -3
BITMAP
2000
E700
6880
30C0
20C0
2040
2040
2040
2040
2040
2040
2040
2040
2040
6040
F840
004E
004E
006E
0064
0038
ENDCHAR
STARTCHAR 0275
ENCODING 629
SWIDTH 500 0
DWIDTH 16 0
BBX 12 16 2 1
BITMAP
1F00
30C0
6040
6060
C020
C030
C030
FFF0
C030
C030
C030
6060
6060
2060
30C0
0F00
ENDCHAR
STARTCHAR 0279
ENCODING 633
SWIDTH 500 0
DWIDTH 16 0
BBX 11 16 2 1
BITMAP
07E0
0180
0180
0180
0180
0180
0180
0180
0180
0180
0180
0180
0380
E580
E9E0
71C0
ENDCHAR
STARTCHAR 027A
ENCODING 634
SWIDTH 500 0
DWIDTH 16 0
BBX 11 23 2 1
BITMAP
07E0
0180
0180
0180
0180
0180
0180
0180
0180
0180
0180
0180
0180
0180
0180
0180
0180
0180
0180
0380
E580
E9C0
71E0
ENDCHAR
STARTCHAR 027B
ENCODING 635
SWIDTH 500 0
DWIDTH 16 0
BBX 14 20 1 -3
BITMAP
07E0
0180
0180
0180
0180
0180
0180
0180
0180
0180
0180
0180
0380
6380
E580
7998
019C
009C
00C8
0070
ENDCHAR
STARTCHAR 027D
ENCODING 637
SWIDTH 500 0
DWIDTH 16 0
BBX 11 21 3 -3
BITMAP
1000
F1C0
36E0
3CE0
3800
3000
3000
3000
3000
3000
3000
3000
3000
3000
3000
3000
3180
31C0
11C0
1880
0F00
ENDCHAR
STARTCHAR 027E
ENCODING 638
SWIDTH 500 0
DWIDTH 16 0
BBX 10 15 4 2
BITMAP
0F80
18C0
30C0
30C0
3000
3000
3000
3000
3000
3000
3000
3000
3000
3000
FC00
ENDCHAR
STARTCHAR 0281
ENCODING 641
SWIDTH 500 0
DWIDTH 16 0
BBX 13 15 2 2
BITMAP
F838
6070
6060
60C0
60C0
6180
6300
6300
7F80
60E0
6060
6030
6060
6060
FFC0
ENDCHAR
STARTCHAR 0282
ENCODING 642
SWIDTH 500 0
DWIDTH 16 0
BBX 10 20 3 -3
BITMAP
3E40
61C0
C0C0
C0C0
C040
6000
7800
1E00
0780
01C0
80C0
8040
C040
C0C0
E180
9F00
8000
9800
9800
7800
ENDCHAR
STARTCHAR 0283
ENCODING 643
SWIDTH 500 0
DWIDTH 16 0
BBX 14 27 1 -3
BITMAP
00F0
018C
011C
031C
0300
0300
0300
0300
0300
0300
0300
0300
0300
0300
0300
0300
0300
0300
0300
0300
0300
0300
0300
E300
E200
C600
7C00
ENDCHAR
STARTCHAR 0284
ENCODING 644
SWIDTH 500 0
DWIDTH 16 0
BBX 14 27 1 -3
BITMAP
00F0
018C
011C
031C
0300
0300
0300
0300
0300
0300
0300
0300
0300
0300
0300
0300
0300
0300
1FE0
0300
0300
0300
0300
E300
E200
C600
3C00
ENDCHAR
STARTCHAR 0288
ENCODING 648
SWIDTH 500 0
DWIDTH 16 0
BBX 11 25 3 -3
BITMAP
0800
0800
1800
1800
7800
FF80
1800
1800
1800
1800
1800
1800
1800
1800
1800
1800
1800
1800
1800
1800
18C0
18E0
18C0
0CC0
0780
ENDCHAR
STARTCHAR 0289
ENCODING 649
SWIDTH 500 0
DWIDTH 16 0
BBX 14 17 1 1
BITMAP
1010
F0F0
3030
3030
3030
3030
3030
FFFC
3030
3030
3030
3030
3030
3030
3070
18F0
0F3C
ENDCHAR
STARTCHAR 028A
ENCODING 650
SWIDTH 500 0
DWIDTH 16 0
BBX 12 16 2 1
BITMAP
F9F0
30C0
2040
4020
4020
C030
C030
C030
C030
C030
C030
C030
6060
6060
30C0
0F00
ENDCHAR
STARTCHAR 028B
ENCODING 651
SWIDTH 500 0
DWIDTH 16 0
BBX 12 17 1 1
BITMAP
1000
F060
3060
3070
3030
3010
3010
3010
3010
3010
3010
3010
3030
3020
3060
18C0
0F00
ENDCHAR
STARTCHAR 028C
ENCODING 652
SWIDTH 500 0
DWIDTH 16 0
BBX 14 16 1 2
BITMAP
0200
0300
0300
0300
0580
0580
08C0
08C0
08C0
1860
1060
1060
3030
2030
6038
F8FC
ENDCHAR
STARTCHAR 028D
ENCODING 653
SWIDTH 500 0
DWIDTH 16 0
BBX 16 16 0 2
BITMAP
0420
0C30
0C30
0C30
0C50
0E50
1658
1658
1298
1288
238C
238C
210C
210C
6186
F3DF
ENDCHAR
STARTCHAR 028E
ENCODING 654
SWIDTH 500 0
DWIDTH 16 0
BBX 16 22 0 2
BITMAP
001E
0037
0026
0040
0040
0080
0080
0100
0100
0100
0380
0380
04C0
04C0
0460
0860
0830
0830
1010
1018
3018
FC7E
ENDCHAR
STARTCHAR 0290
ENCODING 656
SWIDTH 500 0
DWIDTH 16 0
BBX 15 20 1 -3
BITMAP
7FC0
60C0
4180
4180
4300
0600
0600
0C00
0C00
1800
3040
3040
6040
60C0
FFC0
0040
0040
002E
0026
001C
ENDCHAR
STARTCHAR 0291
ENCODING 657
SWIDTH 500 0
DWIDTH 16 0
BBX 13 18 2 -1
BITMAP
7FE0
6060
40C0
4180
4180
0300
0600
0600
0C00
1800
1870
3098
6108
6218
FFF0
0800
1800
1000
ENDCHAR
STARTCHAR 0292
ENCODING 658
SWIDTH 500 0
DWIDTH 16 0
BBX 11 20 2 -3
BITMAP
7FE0
7FC0
4080
4100
4200
0400
1800
3F00
6180
00C0
0060
0060
0060
0060
0060
6060
E060
40C0
6180
1F00
ENDCHAR
STARTCHAR 0294
ENCODING 660
SWIDTH 500 0
DWIDTH 16 0
BBX 9 22 4 2
BITMAP
3C00
4600
C300
E180
C180
0180
0180
0180
0180
0180
0300
0600
0C00
1000
1000
1000
1000
1000
1000
1000
3800
FC00
ENDCHAR
STARTCHAR 0295
ENCODING 661
SWIDTH 500 0
DWIDTH 16 0
BBX 9 22 3 2
BITMAP
1E00
7100
6180
C380
C180
C000
C000
C000
C000
C000
6000
3000
1800
0400
0400
0400
0400
0400
0400
0400
0E00
1F80
ENDCHAR
STARTCHAR 0298
ENCODING 664
SWIDTH 500 0
DWIDTH 16 0
BBX 12 16 2 1
BITMAP
0F00
30C0
6060
4020
8010
8010
8610
8F10
8F10
8610
8010
8010
4020
6060
30C0
0F00
ENDCHAR
STARTCHAR 029D
ENCODING 669
SWIDTH 500 0
DWIDTH 16 0
BBX 11 27 1 -3
BITMAP
0300
0780
0300
0000
0000
0000
0000
0F00
0300
0300
0300
0300
0300
0300
0300
0300
0300
0300
0300
0300
0300
0300
3B00
4700
C380
4640
3C20
ENDCHAR
STARTCHAR 02A1
ENCODING 673
SWIDTH 500 0
DWIDTH 16 0
BBX 10 22 3 2
BITMAP
1E00
2300
6180
70C0
60C0
00C0
00C0
00C0
00C0
00C0
0180
0180
0700
0C00
0800
0800
FF80
0800
0800
0800
1C00
7E00
ENDCHAR
STARTCHAR 02A2
ENCODING 674
SWIDTH 500 0
DWIDTH 16 0
BBX 10 22 3 2
BITMAP
1E00
7100
6180
C380
C180
C000
C000
C000
C000
C000
6000
6000
3800
0C00
0400
0400
7FC0
0400
0400
0400
0E00
1F80
ENDCHAR
STARTCHAR 02C7
ENCODING 711
SWIDTH 500 0
DWIDTH 16 0
BBX 12 4 2 20
BITMAP
E070
30C0
1F80
0F00
ENDCHAR
STARTCHAR 02C8
ENCODING 712
SWIDTH 500 0
DWIDTH 16 0
BBX 2 4 7 24
BITMAP
C0
C0
C0
C0
ENDCHAR
STARTCHAR 02CC
ENCODING 716
SWIDTH 500 0
DWIDTH 16 0
BBX 2 4 7 -2
BITMAP
C0
C0
C0
C0
ENDCHAR
STARTCHAR 02D0
ENCODING 720
SWIDTH 500 0
DWIDTH 16 0
BBX 4 15 6 2
BITMAP
F0
70
60
20
00
00
00
00
00
00
00
40
60
F0
F0
ENDCHAR
STARTCHAR 02D1
ENCODING 721
SWIDTH 500 0
DWIDTH 16 0
BBX 4 4 6 13
BITMAP
F0
70
60
20
ENDCHAR
STARTCHAR 02D8
ENCODING 728
SWIDTH 500 0
DWIDTH 16 0
BBX 10 4 3 20
BITMAP
8040
C1C0
7F80
1E00
ENDCHAR
STARTCHAR 02D9
ENCODING 729
SWIDTH 500 0
DWIDTH 16 0
BBX 4 4 6 20
BITMAP
60
F0
F0
60
ENDCHAR
STARTCHAR 02DB
ENCODING 731
SWIDTH 500 0
DWIDTH 16 0
BBX 7 7 4 -2
BITMAP
18
30
60
40
C2
C2
7C
ENDCHAR
STARTCHAR 02DC
ENCODING 732
SWIDTH 500 0
DWIDTH 16 0
BBX 12 3 2 21
BITMAP
3C30
7FE0
C3C0
ENDCHAR
STARTCHAR 02DD
ENCODING 733
SWIDTH 500 0
DWIDTH 16 0
BBX 13 4 1 20
BITMAP
1F78
38E0
3180
C600
ENDCHAR
STARTCHAR 02DE
ENCODING 734
SWIDTH 500 0
DWIDTH 16 0
BBX 10 6 3 8
BITMAP
3000
F000
9840
0CC0
0F80
0700
ENDCHAR
STARTCHAR 02E5
ENCODING 741
SWIDTH 500 0
DWIDTH 16 0
BBX 9 32 3 -4
BITMAP
FF80
0180
0180
0180
0180
0180
0180
0180
0180
0180
0180
0180
0180
0180
0180
0180
0180
0180
0180
0180
0180
0180
0180
0180
0180
0180
0180
0180
0180
0180
0180
0180
ENDCHAR
STARTCHAR 02E6
ENCODING 742
SWIDTH 500 0
DWIDTH 16 0
BBX 9 32 3 -4
BITMAP
0180
0180
0180
0180
0180
0180
0180
FF80
0180
0180
0180
0180
0180
0180
0180
0180
0180
0180
0180
0180
0180
0180
0180
0180
0180
0180
0180
0180
0180
0180
0180
0180
ENDCHAR
STARTCHAR 02E7
ENCODING 743
SWIDTH 500 0
DWIDTH 16 0
BBX 9 32 3 -4
BITMAP
0180
0180
0180
0180
0180
0180
0180
0180
0180
0180
0180
0180
0180
0180
0180
FF80
0180
0180
0180
0180
0180
0180
0180
0180
0180
0180
0180
0180
0180
0180
0180
0180
ENDCHAR
STARTCHAR 02E8
ENCODING 744
SWIDTH 500 0
DWIDTH 16 0
BBX 9 32 3 -4
BITMAP
0180
0180
0180
0180
0180
0180
0180
0180
0180
0180
0180
0180
0180
0180
0180
0180
0180
0180
0180
0180
0180
0180
0180
FF80
0180
0180
0180
0180
0180
0180
0180
0180
ENDCHAR
STARTCHAR 02E9
ENCODING 745
SWIDTH 500 0
DWIDTH 16 0
BBX 9 32 3 -4
BITMAP
0180
0180
0180
0180
0180
0180
0180
0180
0180
0180
0180
0180
0180
0180
0180
0180
0180
0180
0180
0180
0180
0180
0180
0180
0180
0180
0180
0180
0180
0180
0180
FF80
ENDCHAR
STARTCHAR 0300
ENCODING 768
SWIDTH 500 0
DWIDTH 16 0
BBX 6 3 4 25
BITMAP
F0
18
0C
ENDCHAR
STARTCHAR 0301
ENCODING 769
SWIDTH 500 0
DWIDTH 16 0
BBX 6 3 6 25
BITMAP
3C
60
C0
ENDCHAR
STARTCHAR 0302
ENCODING 770
SWIDTH 500 0
DWIDTH 16 0
BBX 8 3 4 25
BITMAP
18
3C
C3
ENDCHAR
STARTCHAR 0303
ENCODING 771
SWIDTH 500 0
DWIDTH 16 0
BBX 8 3 4 25
BITMAP
70
99
8E
ENDCHAR
STARTCHAR 0304
ENCODING 772
SWIDTH 500 0
DWIDTH 16 0
BBX 8 1 4 26
BITMAP
FF
ENDCHAR
STARTCHAR 0306
ENCODING 774
SWIDTH 500 0
DWIDTH 16 0
BBX 8 3 4 25
BITMAP
83
42
3C
ENDCHAR
STARTCHAR 0308
ENCODING 776
SWIDTH 500 0
DWIDTH 16 0
BBX 10 3 3 25
BITMAP
6180
E1C0
6180
ENDCHAR
STARTCHAR 030B
ENCODING 779
SWIDTH 500 0
DWIDTH 16 0
BBX 11 3 4 25
BITMAP
3FE0
7300
C400
ENDCHAR
STARTCHAR 030C
ENCODING 780
SWIDTH 500 0
DWIDTH 16 0
BBX 8 3 4 25
BITMAP
C3
3C
18
ENDCHAR
STARTCHAR 030F
ENCODING 783
SWIDTH 500 0
DWIDTH 16 0
BBX 11 3 1 25
BITMAP
FF80
19C0
0460
ENDCHAR
STARTCHAR 0318
ENCODING 792
SWIDTH 500 0
DWIDTH 16 0
BBX 4 4 5 -4
BITMAP
10
F0
10
10
ENDCHAR
STARTCHAR 0319
ENCODING 793
SWIDTH 500 0
DWIDTH 16 0
BBX 4 4 7 -4
BITMAP
80
F0
80
80
ENDCHAR
STARTCHAR 031A
ENCODING 794
SWIDTH 500 0
DWIDTH 16 0
BBX 6 3 9 25
BITMAP
FC
04
04
ENDCHAR
STARTCHAR 031C
ENCODING 796
SWIDTH 500 0
DWIDTH 16 0
BBX 3 5 6 -4
BITMAP
20
C0
C0
40
20
ENDCHAR
STARTCHAR 031D
ENCODING 797
SWIDTH 500 0
DWIDTH 16 0
BBX 6 3 5 -3
BITMAP
30
30
FC
ENDCHAR
STARTCHAR 031E
ENCODING 798
SWIDTH 500 0
DWIDTH 16 0
BBX 6 3 5 -3
BITMAP
FC
30
30
ENDCHAR
STARTCHAR 031F
ENCODING 799
SWIDTH 500 0
DWIDTH 16 0
BBX 6 5 5 -4
BITMAP
30
30
FC
30
30
ENDCHAR
STARTCHAR 0320
ENCODING 800
SWIDTH 500 0
DWIDTH 16 0
BBX 6 1 5 -2
BITMAP
FC
ENDCHAR
STARTCHAR 0324
ENCODING 804
SWIDTH 500 0
DWIDTH 16 0
BBX 10 3 3 -3
BITMAP
6180
E1C0
6180
ENDCHAR
STARTCHAR 0325
ENCODING 805
SWIDTH 500 0
DWIDTH 16 0
BBX 4 4 6 -4
BITMAP
E0
90
90
60
ENDCHAR
STARTCHAR 0329
ENCODING 809
SWIDTH 500 0
DWIDTH 16 0
BBX 2 4 7 -4
BITMAP
C0
C0
C0
C0
ENDCHAR
STARTCHAR 032A
ENCODING 810
SWIDTH 500 0
DWIDTH 16 0
BBX 8 3 4 -3
BITMAP
FF
C3
C3
ENDCHAR
STARTCHAR 032C
ENCODING 812
SWIDTH 500 0
DWIDTH 16 0
BBX 8 3 4 -3
BITMAP
C3
3C
18
ENDCHAR
STARTCHAR 032F
ENCODING 815
SWIDTH 500 0
DWIDTH 16 0
BBX 8 3 4 -3
BITMAP
3C
42
C3
ENDCHAR
STARTCHAR 0330
ENCODING 816
SWIDTH 500 0
DWIDTH 16 0
BBX 8 3 4 -3
BITMAP
71
99
0E
ENDCHAR
STARTCHAR 0334
ENCODING 820
SWIDTH 500 0
DWIDTH 16 0
BBX 8 3 4 11
BITMAP
71
99
0E
ENDCHAR
STARTCHAR 0339
ENCODING 825
SWIDTH 500 0
DWIDTH 16 0
BBX 3 5 7 -4
BITMAP
80
60
60
40
80
ENDCHAR
STARTCHAR 033A
ENCODING 826
SWIDTH 500 0
DWIDTH 16 0
BBX 8 3 4 -3
BITMAP
C3
C3
FF
ENDCHAR
STARTCHAR 033B
ENCODING 827
SWIDTH 500 0
DWIDTH 16 0
BBX 6 3 5 -3
BITMAP
FC
84
FC
ENDCHAR
STARTCHAR 033C
ENCODING 828
SWIDTH 500 0
DWIDTH 16 0
BBX 10 2 3 -2
BITMAP
7380
CCC0
ENDCHAR
STARTCHAR 033D
ENCODING 829
SWIDTH 500 0
DWIDTH 16 0
BBX 10 3 3 25
BITMAP
7380
0C00
F3C0
ENDCHAR
STARTCHAR 0361
ENCODING 865
SWIDTH 500 0
DWIDTH 16 0
BBX 14 4 1 24
BITMAP
0FC0
3030
4008
8004
ENDCHAR
STARTCHAR 0391
ENCODING 913
SWIDTH 1000 0
DWIDTH 32 0
BBX 25 23 4 2
BITMAP
00100000
00180000
00180000
003C0000
002C0000
006E0000
00460000
00C60000
00830000
00830000
01838000
01018000
0301C000
0200C000
07FFE000
0400E000
0C006000
08007000
08003000
18003800
10001800
30001C00
FE00FF80
ENDCHAR
STARTCHAR 0392
ENCODING 914
SWIDTH 1000 0
DWIDTH 32 0
BBX 20 22 6 2
BITMAP
FFFC00
1C0700
180180
1801C0
1800C0
1800C0
1801C0
1801C0
180380
180E00
1FF800
180780
1801C0
1800E0
180060
180070
180070
180070
180060
1800E0
1C0380
FFFE00
ENDCHAR
STARTCHAR 0393
ENCODING 915
SWIDTH 1000 0
DWIDTH 32 0
BBX 18 22 7 2
BITMAP
FFFFC0
3C03C0
1800C0
180040
180040
180040
180000
180000
180000
180000
180000
180000
180000
180000
180000
180000
180000
180000
180000
180000
380000
FF0000
ENDCHAR
STARTCHAR 0394
ENCODING 916
SWIDTH 1000 0
DWIDTH 32 0
BBX 22 23 5 2
BITMAP
003000
003000
007000
005800
005800
008C00
008C00
018E00
010600
030700
020300
060380
040180
0C0180
0800C0
0800C0
1000E0
100060
300070
200030
600038
7FFFF8
FFFFFC
ENDCHAR
STARTCHAR 0395
ENCODING 917
SWIDTH 1000 0
DWIDTH 32 0
BBX 19 22 6 2
BITMAP
FFFFC0
3C01C0
180040
180040
180040
180040
180000
180400
180400
180C00
1FFC00
180C00
180400
180400
180400
180000
180020
180020
180020
180060
3C01E0
FFFFE0
ENDCHAR
STARTCHAR 0396
ENCODING 918
SWIDTH 1000 0
DWIDTH 32 0
BBX 18 22 7 2
BITMAP
7FFF80
700180
600380
400700
400E00
401C00
001C00
003800
007000
00E000
00C000
01C000
038000
070000
060000
0E0040
1C0040
380040
3000C0
7000C0
E003C0
FFFFC0
ENDCHAR
STARTCHAR 0397
ENCODING 919
SWIDTH 1000 0
DWIDTH 32 0
BBX 22 22 5 2
BITMAP
FF03FC
380070
380070
180060
180060
180060
180060
180060
180060
180060
1FFFE0
180060
180060
180060
180060
180060
180060
180060
180060
380060
380070
FF03FC
ENDCHAR
STARTCHAR 0398
ENCODING 920
SWIDTH 1000 0
DWIDTH 32 0
BBX 22 23 5 1
BITMAP
00FC00
070300
0E01C0
1C00E0
380070
300030
700038
700038
640098
640098
E7FF9C
E7FF9C
E4009C
640098
600018
700038
700038
300030
380070
1C00E0
0E01C0
070380
01FE00
ENDCHAR
STARTCHAR 0399
ENCODING 921
SWIDTH 1000 0
DWIDTH 32 0
BBX 8 22 12 2
BITMAP
FF
3C
18
18
18
18
18
18
18
18
18
18
18
18
18
18
18
18
18
18
3C
FF
ENDCHAR
STARTCHAR 039A
ENCODING 922
SWIDTH 1000 0
DWIDTH 32 0
BBX 23 22 5 2
BITMAP
FF07F8
1C01C0
180180
180300
180600
180C00
181800
183000
186000
18E000
19F000
1B3800
1E1C00
1C0E00
180600
180700
180380
1801C0
1800E0
180070
1C0078
FF01FE
ENDCHAR
STARTCHAR 039B
ENCODING 923
SWIDTH 1000 0
DWIDTH 32 0
BBX 24 23 4 2
BITMAP
001000
001800
001800
003C00
002C00
006E00
004600
004600
008700
008300
018380
010180
030180
0201C0
0200C0
0600E0
0400E0
0C0060
080070
080030
180038
38003C
FF01FF
ENDCHAR
STARTCHAR 039C
ENCODING 924
SWIDTH 1000 0
DWIDTH 32 0
BBX 26 22 3 2
BITMAP
FC0007C0
3C000F00
3C000E00
1E001E00
16001600
17001600
13002600
13002600
11806600
11804600
11C04600
10C08600
10E08600
10610600
10610600
10730600
10320600
103A0600
101C0600
301C0600
300C0700
FE083FC0
ENDCHAR
STARTCHAR 039D
ENCODING 925
SWIDTH 1000 0
DWIDTH 32 0
BBX 24 23 4 1
BITMAP
FC007F
1E0018
160008
170008
138008
11C008
10E008
106008
107008
103808
101C08
100C08
100E08
100708
100388
1001C8
1001C8
1000E8
100078
100038
180038
FE0018
000008
ENDCHAR
STARTCHAR 039E
ENCODING 926
SWIDTH 1000 0
DWIDTH 32 0
BBX 18 22 7 2
BITMAP
7FFF80
7FFF80
400080
400080
400080
000000
000000
000000
100400
080400
0FFC00
0FFC00
080400
100400
000000
000000
000000
800040
800040
800040
FFFFC0
FFFFC0
ENDCHAR
STARTCHAR 039F
ENCODING 927
SWIDTH 1000 0
DWIDTH 32 0
BBX 22 23 5 1
BITMAP
00FC00
070300
0E01C0
1C00E0
380070
300030
700038
700018
600018
600018
E0001C
E0001C
E0001C
600018
600018
700038
700038
300030
380070
1C00E0
0E01C0
070380
01FE00
ENDCHAR
STARTCHAR 03A0
ENCODING 928
SWIDTH 1000 0
DWIDTH 32 0
BBX 22 22 5 2
BITMAP
FFFFFC
380070
380070
180060
180060
180060
180060
180060
180060
180060
180060
180060
180060
180060
180060
180060
180060
180060
180060
380060
380070
FF03FC
ENDCHAR
STARTCHAR 03A1
ENCODING 929
SWIDTH 1000 0
DWIDTH 32 0
BBX 19 22 7 2
BITMAP
FFFC00
3C0780
1801C0
1800C0
1800E0
1800E0
1800E0
1800E0
1800C0
1801C0
180700
1FFC00
180000
180000
180000
180000
180000
180000
180000
180000
180000
FF0000
ENDCHAR
STARTCHAR 03A3
ENCODING 931
SWIDTH 1000 0
DWIDTH 32 0
BBX 20 22 6 2
BITMAP
FFFFE0
7000E0
380060
1C0020
0E0020
070000
038000
01C000
00E000
007000
003800
006000
00C000
018000
030000
060010
0C0010
180030
300030
6000F0
FFFFF0
FFFFF0
ENDCHAR
STARTCHAR 03A4
ENCODING 932
SWIDTH 1000 0
DWIDTH 32 0
BBX 20 22 6 2
BITMAP
FFFFF0
E06070
806010
806010
806010
806010
006000
006000
006000
006000
006000
006000
006000
006000
006000
006000
006000
006000
006000
006000
006000
03FC00
ENDCHAR
STARTCHAR 03A5
ENCODING 933
SWIDTH 1000 0
DWIDTH 32 0
BBX 22 22 5 2
BITMAP
0F03C0
1FCFE0
30CC30
607818
407808
403008
80300C
003000
003000
003000
003000
003000
003000
003000
003000
003000
003000
003000
003000
003000
003000
01FE00
ENDCHAR
STARTCHAR 03A6
ENCODING 934
SWIDTH 1000 0
DWIDTH 32 0
BBX 22 22 5 2
BITMAP
01FE00
003000
003000
003000
07FF80
1C30E0
383070
703030
603018
603018
E03018
E0301C
603018
603018
703038
383070
1C30E0
07B780
007800
003000
003000
01FE00
ENDCHAR
STARTCHAR 03A7
ENCODING 935
SWIDTH 1000 0
DWIDTH 32 0
BBX 24 22 4 2
BITMAP
7FC1FC
1E0070
0E0060
0700C0
038080
018100
00C300
00E600
007400
003800
001800
003C00
006E00
004700
008380
010180
0301C0
0600E0
0C0070
180038
3C003C
FF01FF
ENDCHAR
STARTCHAR 03A8
ENCODING 936
SWIDTH 1000 0
DWIDTH 32 0
BBX 26 22 3 2
BITMAP
387F8700
7C0C0F80
4C0C0C80
8E0C1C40
0E0C1C00
0E0C1C00
0E0C1C00
0E0C1C00
060C1800
060C1800
060C1800
060C1800
030C3000
030C3000
018C6000
00EFC000
001C0000
000C0000
000C0000
000C0000
000C0000
007F8000
ENDCHAR
STARTCHAR 03A9
ENCODING 937
SWIDTH 1000 0
DWIDTH 32 0
BBX 20 22 6 2
BITMAP
01F800
0E0600
1C0380
3801C0
3000C0
6000E0
600060
E00070
E00070
E00070
E00070
E00070
600060
600060
7000E0
3000C0
180180
8E0710
830C10
810810
FF0FF0
FF0FF0
ENDCHAR
STARTCHAR 03B1
ENCODING 945
SWIDTH 1000 0
DWIDTH 32 0
BBX 18 16 7 1
BITMAP
01E180
073100
0C3300
1C1A00
181E00
301C00
701C00
601800
601800
E01800
C03800
C07800
C05840
609880
630C80
3C0F00
ENDCHAR
STARTCHAR 03B2
ENCODING 946
SWIDTH 1000 0
DWIDTH 32 0
BBX 15 27 7 -3
BITMAP
00F8
01FC
038E
0206
0606
0406
0C06
0806
0804
1BC8
1BF0
13D8
1018
300C
300C
200C
200C
600C
600C
6018
7038
7870
C7C0
C000
C000
C000
C000
ENDCHAR
STARTCHAR 03B3
ENCODING 947
SWIDTH 1000 0
DWIDTH 32 0
BBX 18 20 6 -3
BITMAP
1C01C0
3E0180
630380
C10300
018600
008600
008C00
008800
00D800
005000
007000
006000
006000
004000
00C000
00C000
01C000
01C000
01C000
018000
ENDCHAR
STARTCHAR 03B4
ENCODING 948
SWIDTH 1000 0
DWIDTH 32 0
BBX 14 23 9 1
BITMAP
0FC0
1870
101C
100C
1800
0C00
0700
0180
07E0
1C70
3030
7038
6018
C018
C018
C018
C038
C030
C070
C060
C0C0
6180
1E00
ENDCHAR
STARTCHAR 03B5
ENCODING 949
SWIDTH 1000 0
DWIDTH 32 0
BBX 13 16 9 1
BITMAP
0FC0
3FF0
7818
6000
6000
2000
1F80
3780
6000
C000
C000
C000
C018
F070
7FE0
1F80
ENDCHAR
STARTCHAR 03B6
ENCODING 950
SWIDTH 1000 0
DWIDTH 32 0
BBX 15 28 8 -3
BITMAP
0200
070E
0C3C
0878
08F0
0FC0
0300
0600
0C00
0800
1800
3000
2000
6000
6000
C000
C000
C000
C000
6000
7800
3F00
0FC0
00F0
0030
0C10
0E20
03C0
ENDCHAR
STARTCHAR 03B7
ENCODING 951
SWIDTH 1000 0
DWIDTH 32 0
BBX 15 20 7 -3
BITMAP
3878
CD8C
8706
0606
0606
0C06
0C06
0C0C
180C
180C
180C
3818
3018
3018
7018
0038
0030
0030
0030
0070
ENDCHAR
STARTCHAR 03B8
ENCODING 952
SWIDTH 1000 0
DWIDTH 32 0
BBX 14 23 9 1
BITMAP
01E0
0638
0C18
1818
181C
300C
700C
600C
600C
E01C
FFFC
C018
C018
C018
C038
C030
C030
C060
C060
C0C0
4180
6300
1E00
ENDCHAR
STARTCHAR 03B9
ENCODING 953
SWIDTH 1000 0
DWIDTH 32 0
BBX 9 16 11 1
BITMAP
1C00
1800
1800
3000
3000
3000
6000
6000
4000
C000
C000
C100
C180
E300
7E00
3C00
ENDCHAR
STARTCHAR 03BA
ENCODING 954
SWIDTH 1000 0
DWIDTH 32 0
BBX 16 16 8 1
BITMAP
0E07
0C1F
0C38
18E0
1980
1A00
3700
3980
3180
3180
6180
6182
60C2
C0C4
C0FC
0070
ENDCHAR
STARTCHAR 03BB
ENCODING 955
SWIDTH 1000 0
DWIDTH 32 0
BBX 17 23 7 1
BITMAP
038000
07C000
08C000
004000
004000
004000
004000
004000
004000
00C000
00C000
01C000
034000
074000
064000
0C6000
1C6000
186000
306080
706100
603300
E03E00
001C00
ENDCHAR
STARTCHAR 03BC
ENCODING 956
SWIDTH 1000 0
DWIDTH 32 0
BBX 19 21 6 -3
BITMAP
020200
030180
070380
060300
040300
0C0600
080600
080600
180400
180C00
100C00
300C00
381C20
283C40
2C64C0
6FC780
678300
600000
400000
C00000
C00000
ENDCHAR
STARTCHAR 03BD
ENCODING 957
SWIDTH 1000 0
DWIDTH 32 0
BBX 16 16 8 1
BITMAP
3806
FC07
8C07
0C01
0C01
0C03
0C03
0C06
0C0C
0C1C
0C38
08E0
1FC0
1F00
1C00
2000
ENDCHAR
STARTCHAR 03BE
ENCODING 958
SWIDTH 1000 0
DWIDTH 32 0
BBX 12 28 10 -3
BITMAP
0800
3070
31E0
1F80
0400
0800
1800
1000
3000
3000
3000
1BE0
0FC0
3000
6000
4000
C000
C000
8000
C000
E000
7E00
3F80
01C0
00C0
20C0
7180
1F00
ENDCHAR
STARTCHAR 03BF
ENCODING 959
SWIDTH 1000 0
DWIDTH 32 0
BBX 14 16 9 1
BITMAP
07C0
0C70
1838
3018
701C
601C
600C
600C
E01C
E01C
6018
6018
6030
3070
18E0
0F80
ENDCHAR
STARTCHAR 03C0
ENCODING 960
SWIDTH 1000 0
DWIDTH 32 0
BBX 17 17 8 1
BITMAP
000180
3FFF00
7FFE00
C42000
842000
042000
0C6000
086000
084000
184000
10C000
30C000
30C300
70C200
60E600
E07C00
003800
ENDCHAR
STARTCHAR 03C1
ENCODING 961
SWIDTH 1000 0
DWIDTH 32 0
BBX 16 20 7 -3
BITMAP
00F8
030C
0606
0C06
0807
1803
1803
3803
3807
3806
2806
6C0C
6618
63F0
6000
6000
C000
C000
C000
C000
ENDCHAR
STARTCHAR 03C2
ENCODING 962
SWIDTH 500 0
DWIDTH 16 0
BBX 12 20 2 -3
BITMAP
0F80
3860
7030
6030
6070
4030
6000
6000
6000
3000
1800
0C00
0600
0300
0180
0180
0180
C180
E300
7E00
ENDCHAR
STARTCHAR 03C3
ENCODING 963
SWIDTH 1000 0
DWIDTH 32 0
BBX 17 16 9 1
BITMAP
07FF80
083F00
101000
301800
601800
601C00
600C00
601C00
E01C00
E01C00
601800
601800
603800
307000
18E000
0F8000
ENDCHAR
STARTCHAR 03C4
ENCODING 964
SWIDTH 1000 0
DWIDTH 32 0
BBX 16 17 8 1
BITMAP
0001
3FFF
7FFE
C080
8100
0100
0200
0200
0600
0400
0C00
0C00
0C00
0C10
0C20
0FE0
0780
ENDCHAR
STARTCHAR 03C5
ENCODING 965
SWIDTH 1000 0
DWIDTH 32 0
BBX 16 16 7 1
BITMAP
3806
7C0E
8C07
0603
0401
0C01
0C01
1801
1801
3003
3002
3006
380C
3C18
1FF0
07C0
ENDCHAR
STARTCHAR 03C6
ENCODING 966
SWIDTH 1000 0
DWIDTH 32 0
BBX 18 25 7 -3
BITMAP
001C00
001800
001800
001000
003000
003000
03FC00
0C2700
186380
304180
604180
604180
60C1C0
E08180
608180
608180
610300
310700
190C00
0FF000
020000
020000
060000
060000
0E0000
ENDCHAR
STARTCHAR 03C7
ENCODING 967
SWIDTH 1000 0
DWIDTH 32 0
BBX 17 20 7 -3
BITMAP
1E0380
3F0700
430600
010C00
019C00
019800
00B000
00B000
00E000
00C000
01C000
01C000
034000
064000
0E4000
0C4080
186100
303300
703E00
E01C00
ENDCHAR
STARTCHAR 03C8
ENCODING 968
SWIDTH 1000 0
DWIDTH 32 0
BBX 18 25 7 -3
BITMAP
001C00
001800
001800
001800
001000
063100
0C3100
183180
302080
3020C0
6060C0
6040C0
6040C0
E040C0
6081C0
608180
608380
318700
190E00
0FF800
030000
030000
020000
060000
0E0000
ENDCHAR
STARTCHAR 03C9
ENCODING 969
SWIDTH 1000 0
DWIDTH 32 0
BBX 20 17 6 1
BITMAP
020080
070040
0C0060
180060
300030
201030
603030
603030
C07030
C07030
C06030
C06030
C04060
E0A060
71A0C0
3F3180
1C1E00
ENDCHAR
STARTCHAR 0401
ENCODING 1025
SWIDTH 1000 0
DWIDTH 32 0
BBX 19 26 6 2
BITMAP
0E0700
0E0700
0E0700
000000
FFFFC0
3C01C0
180040
180040
180040
180040
180000
180400
180400
180C00
1FFC00
180C00
180400
180400
180400
180000
180020
180020
180020
180060
3C01E0
FFFFE0
ENDCHAR
STARTCHAR 0410
ENCODING 1040
SWIDTH 1000 0
DWIDTH 32 0
BBX 25 23 4 2
BITMAP
00100000
00180000
00180000
003C0000
002C0000
006E0000
00460000
00C60000
00830000
00830000
01838000
01018000
0301C000
0200C000
07FFE000
0400E000
0C006000
08007000
08003000
18003800
10001800
30001C00
FE00FF80
ENDCHAR
STARTCHAR 0411
ENCODING 1041
SWIDTH 1000 0
DWIDTH 32 0
BBX 20 22 6 2
BITMAP
FFFFC0
1C01C0
1800C0
180040
180040
180040
180000
180000
180000
180000
1FFE00
180380
1800C0
180060
180060
180070
180070
180060
180060
1800C0
1C0380
FFFE00
ENDCHAR
STARTCHAR 0412
ENCODING 1042
SWIDTH 1000 0
DWIDTH 32 0
BBX 20 22 6 2
BITMAP
FFFC00
1C0700
180180
1801C0
1800C0
1800C0
1801C0
1801C0
180380
180E00
1FF800
180780
1801C0
1800E0
180060
180070
180070
180070
180060
1800E0
1C0380
FFFE00
ENDCHAR
STARTCHAR 0413
ENCODING 1043
SWIDTH 1000 0
DWIDTH 32 0
BBX 18 22 7 2
BITMAP
FFFFC0
3C03C0
1800C0
180040
180040
180040
180000
180000
180000
180000
180000
180000
180000
180000
180000
180000
180000
180000
180000
180000
380000
FF0000
ENDCHAR
STARTCHAR 0414
ENCODING 1044
SWIDTH 1000 0
DWIDTH 32 0
BBX 22 26 5 -2
BITMAP
0FFFFC
0300E0
0300E0
0200E0
0200E0
0200E0
0200E0
0200E0
0200E0
0200E0
0200E0
0600E0
0400E0
0400E0
0C00E0
0800E0
0800E0
1000E0
1000E0
2000E0
6000E0
FFFFFC
C0001C
800004
800004
800004
ENDCHAR
STARTCHAR 0415
ENCODING 1045
SWIDTH 1000 0
DWIDTH 32 0
BBX 19 22 6 2
BITMAP
FFFFC0
3C01C0
180040
180040
180040
180040
180000
180400
180400
180C00
1FFC00
180C00
180400
180400
180400
180000
180020
180020
180020
180060
3C01E0
FFFFE0
ENDCHAR
STARTCHAR 0416
ENCODING 1046
SWIDTH 1000 0
DWIDTH 32 0
BBX 28 22 2 2
BITMAP
383FC1C0
64060260
740602E0
62060660
02060400
02060400
01060C00
01060800
00861000
00462000
007FE000
00E67000
00C63000
01861800
03861C00
07060E00
06060600
0E060700
1C060380
18060180
380601C0
FE3FC7F0
ENDCHAR
STARTCHAR 0417
ENCODING 1047
SWIDTH 1000 0
DWIDTH 32 0
BBX 17 23 8 1
BITMAP
07F000
3C1C00
700E00
600600
400600
000700
000600
000600
000C00
003800
07E000
001C00
000E00
000700
000300
000300
800380
800300
C00300
E00700
F00E00
381C00
0FF000
ENDCHAR
STARTCHAR 0418
ENCODING 1048
SWIDTH 1000 0
DWIDTH 32 0
BBX 22 22 5 2
BITMAP
FF03FC
380070
380060
180060
180060
1800E0
180160
180260
180460
181860
183060
186060
188060
190060
1A0060
1C0060
180060
180060
180060
380060
380070
FF03FC
ENDCHAR
STARTCHAR 0419
ENCODING 1049
SWIDTH 1000 0
DWIDTH 32 0
BBX 22 26 5 2
BITMAP
038700
038700
010200
00FC00
FF03FC
380070
380060
180060
180060
1800E0
180160
180260
180460
181860
183060
186060
188060
190060
1A0060
1C0060
180060
180060
180060
380060
380070
FF03FC
ENDCHAR
STARTCHAR 041A
ENCODING 1050
SWIDTH 1000 0
DWIDTH 32 0
BBX 23 22 5 2
BITMAP
FF00F8
1C01B8
180338
180238
180200
180400
180C00
180800
183000
18E000
1F7000
183800
181C00
180E00
180600
180700
180380
1801C0
1800E0
180070
1C0078
FF01FE
ENDCHAR
STARTCHAR 041B
ENCODING 1051
SWIDTH 1000 0
DWIDTH 32 0
BBX 23 23 4 1
BITMAP
03FFFE
004070
004030
004030
004030
004030
004030
004030
004030
004030
004030
004030
004030
004030
00C030
008030
E08030
E08030
E08030
810030
810070
C201FE
3C0000
ENDCHAR
STARTCHAR 041C
ENCODING 1052
SWIDTH 1000 0
DWIDTH 32 0
BBX 28 22 2 2
BITMAP
3F000FC0
0F000F00
07800F00
05801700
0D801700
0DC03700
0CC02300
08E02300
08604300
08604300
0870C300
08308300
08388300
08190300
08190300
081E0380
180E0380
180E0380
18040180
10040180
18000380
FF001FF0
ENDCHAR
STARTCHAR 041D
ENCODING 1053
SWIDTH 1000 0
DWIDTH 32 0
BBX 22 22 5 2
BITMAP
FF03FC
380070
380070
180060
180060
180060
180060
180060
180060
180060
1FFFE0
180060
180060
180060
180060
180060
180060
180060
180060
380060
380070
FF03FC
ENDCHAR
STARTCHAR 041E
ENCODING 1054
SWIDTH 1000 0
DWIDTH 32 0
BBX 22 23 5 1
BITMAP
00FC00
070300
0E01C0
1C00E0
380070
300030
700038
700018
600018
600018
E0001C
E0001C
E0001C
600018
600018
700038
700038
300030
380070
1C00E0
0E01C0
070380
01FE00
ENDCHAR
STARTCHAR 041F
ENCODING 1055
SWIDTH 1000 0
DWIDTH 32 0
BBX 22 22 5 2
BITMAP
FFFFFC
380070
380070
180060
180060
180060
180060
180060
180060
180060
180060
180060
180060
180060
180060
180060
180060
180060
180060
380060
380070
FF03FC
ENDCHAR
STARTCHAR 0420
ENCODING 1056
SWIDTH 1000 0
DWIDTH 32 0
BBX 19 22 7 2
BITMAP
FFFC00
3C0780
1801C0
1800C0
1800E0
1800E0
1800E0
1800E0
1800C0
1801C0
180700
1FFC00
180000
180000
180000
180000
180000
180000
180000
180000
180000
FF0000
ENDCHAR
STARTCHAR 0421
ENCODING 1057
SWIDTH 1000 0
DWIDTH 32 0
BBX 20 23 6 1
BITMAP
00FF00
0701E0
0C0070
180030
300030
600010
600000
E00000
C00000
C00000
C00000
C00000
C00000
C00000
C00000
E00010
E00010
700010
300030
380030
1C0070
0701C0
01FE00
ENDCHAR
STARTCHAR 0422
ENCODING 1058
SWIDTH 1000 0
DWIDTH 32 0
BBX 20 22 6 2
BITMAP
FFFFF0
E06070
806010
806010
806010
806010
006000
006000
006000
006000
006000
006000
006000
006000
006000
006000
006000
006000
006000
006000
006000
03FC00
ENDCHAR
STARTCHAR 0423
ENCODING 1059
SWIDTH 1000 0
DWIDTH 32 0
BBX 22 23 5 1
BITMAP
FF83FC
1C0060
0E0040
060040
070080
030080
038180
018100
01C300
00C200
006200
006400
003400
003800
001800
001000
001000
302000
782000
784000
20C000
318000
0F0000
ENDCHAR
STARTCHAR 0424
ENCODING 1060
SWIDTH 1000 0
DWIDTH 32 0
BBX 22 22 5 2
BITMAP
01FE00
003000
003000
003000
07FF80
1C30E0
383070
703030
603018
603018
E03018
E0301C
603018
603018
703038
383070
1C30E0
07B780
007800
003000
003000
01FE00
ENDCHAR
STARTCHAR 0425
ENCODING 1061
SWIDTH 1000 0
DWIDTH 32 0
BBX 24 22 4 2
BITMAP
7FC1FC
1E0070
0E0060
0700C0
038080
018100
00C300
00E600
007400
003800
001800
003C00
006E00
004700
008380
010180
0301C0
0600E0
0C0070
180038
3C003C
FF01FF
ENDCHAR
STARTCHAR 0426
ENCODING 1062
SWIDTH 1000 0
DWIDTH 32 0
BBX 23 26 4 -2
BITMAP
FF03FE
1C0070
1C0070
1C0070
1C0070
1C0070
1C0070
1C0070
1C0070
1C0070
1C0070
1C0070
1C0070
1C0070
1C0070
1C0070
1C0070
1C0070
1C0070
1C0070
1C0070
FFFFFE
00000E
000002
000002
000002
ENDCHAR
STARTCHAR 0427
ENCODING 1063
SWIDTH 1000 0
DWIDTH 32 0
BBX 21 22 5 2
BITMAP
FF07F8
1C00E0
1800C0
1800C0
1800C0
1800C0
1800C0
1800C0
1800C0
1800C0
1800C0
0C01C0
0C03C0
0706C0
01F8C0
0000C0
0000C0
0000C0
0000C0
0000C0
0000E0
0007F8
ENDCHAR
STARTCHAR 0428
ENCODING 1064
SWIDTH 1000 0
DWIDTH 32 0
BBX 28 22 2 2
BITMAP
FF3FCFF0
1C0E0380
1C060380
1C060380
1C060380
1C060380
1C060380
1C060380
1C060380
1C060380
1C060380
1C060380
1C060380
1C060380
1C060380
1C060380
1C060380
1C060380
1C060380
1C060380
1C0E0380
FFFFFFF0
ENDCHAR
STARTCHAR 0429
ENCODING 1065
SWIDTH 1000 0
DWIDTH 32 0
BBX 28 26 2 -2
BITMAP
FF3F9FE0
1C0E0380
18060300
18060300
18060300
18060300
18060300
18060300
18060300
18060300
18060300
18060300
18060300
18060300
18060300
18060300
18060300
18060300
18060300
18060300
1C0E0380
FFFFFFF0
00000070
00000030
00000010
00000010
ENDCHAR
STARTCHAR 042A
ENCODING 1066
SWIDTH 1000 0
DWIDTH 32 0
BBX 24 22 4 2
BITMAP
FFF800
E1C000
C0C000
80C000
80C000
80C000
00C000
00C000
00C000
00C000
00FFE0
00C03C
00C00E
00C007
00C007
00C003
00C003
00C007
00C007
00C00E
01C03C
07FFF0
ENDCHAR
STARTCHAR 042B
ENCODING 1067
SWIDTH 1000 0
DWIDTH 32 0
BBX 26 22 3 2
BITMAP
FF003FC0
38000700
18000600
18000600
18000600
18000600
18000600
18000600
18000600
18000600
1FFC0600
180F0600
18038600
1801C600
1800C600
1800C600
1800C600
1800C600
1801C600
18038600
38070700
FFFC3FC0
ENDCHAR
STARTCHAR 042C
ENCODING 1068
SWIDTH 1000 0
DWIDTH 32 0
BBX 20 22 6 2
BITMAP
FF8000
1C0000
1C0000
1C0000
1C0000
1C0000
1C0000
1C0000
1C0000
1C0000
1FFE00
1C03C0
1C00E0
1C0060
1C0070
1C0070
1C0070
1C0070
1C0060
1C00E0
1C03C0
FFFE00
ENDCHAR
STARTCHAR 042D
ENCODING 1069
SWIDTH 1000 0
DWIDTH 32 0
BBX 20 23 6 1
BITMAP
0FF800
780E00
E00380
C001C0
C000E0
8000E0
000070
000070
000030
07C030
1FF070
007FB0
001F30
000030
000070
800070
800060
8000E0
C000C0
C001C0
E00300
380E00
0FF000
ENDCHAR
STARTCHAR 042E
ENCODING 1070
SWIDTH 1000 0
DWIDTH 32 0
BBX 27 23 2 1
BITMAP
FF81F800
1C070E00
1C0C0300
1C180180
1C180180
1C3800C0
1C3000C0
1C3000E0
1C3000E0
1C3000E0
1FF000E0
1C7000E0
1C3000E0
1C3000E0
1C3000E0
1C3000E0
1C3800C0
1C1800C0
1C1801C0
1C0C0180
1C0E0300
FF870E00
0001F800
ENDCHAR
STARTCHAR 042F
ENCODING 1071
SWIDTH 1000 0
DWIDTH 32 0
BBX 21 23 5 1
BITMAP
01FFF8
0700E0
0C00C0
1C00C0
1800C0
1800C0
1800C0
1C00C0
1C00C0
0700C0
01FFC0
0060C0
00E0C0
00C0C0
01C0C0
0380C0
0300C0
0700C0
0E00C0
1C00C0
3000E0
E007F8
800000
ENDCHAR
STARTCHAR 0430
ENCODING 1072
SWIDTH 1000 0
DWIDTH 32 0
BBX 16 16 9 1
BITMAP
1FC0
70E0
6070
7030
7030
0030
07F0
1C30
3030
6030
E030
C030
C031
6073
619E
1E1C
ENDCHAR
STARTCHAR 0431
ENCODING 1073
SWIDTH 1000 0
DWIDTH 32 0
BBX 16 24 8 1
BITMAP
0002
0002
0006
01FC
07F0
1C00
3000
2000
67E0
5C38
700C
600C
E006
E006
E007
E007
E007
6007
6006
6006
300E
381C
1C38
07E0
ENDCHAR
STARTCHAR 0432
ENCODING 1074
SWIDTH 1000 0
DWIDTH 32 0
BBX 16 15 7 2
BITMAP
FFF0
381C
180E
1806
1806
180C
1818
1FF0
180E
1807
1803
1803
1807
180E
FFF8
ENDCHAR
STARTCHAR 0433
ENCODING 1075
SWIDTH 1000 0
DWIDTH 32 0
BBX 14 15 9 2
BITMAP
FFFC
380C
3004
3004
3004
3004
3000
3000
3000
3000
3000
3000
3000
3000
FE00
ENDCHAR
STARTCHAR 0434
ENCODING 1076
SWIDTH 1000 0
DWIDTH 32 0
BBX 18 19 7 -2
BITMAP
1FFFC0
060600
020600
020600
040600
040600
040600
040600
040600
080600
080600
100600
100600
200600
FFFFC0
C000C0
800040
800040
800040
ENDCHAR
STARTCHAR 0435
ENCODING 1077
SWIDTH 1000 0
DWIDTH 32 0
BBX 15 16 8 1
BITMAP
07E0
1C38
301C
300C
600E
6006
FFFE
E000
E000
E000
6000
7002
7004
3808
1C10
07E0
ENDCHAR
STARTCHAR 0436
ENCODING 1078
SWIDTH 1000 0
DWIDTH 32 0
BBX 26 15 3 2
BITMAP
383F0700
3C0C0F00
320C1300
020C1000
010C2000
018C6000
01EDE000
019E6000
030C3000
030C3000
060C1800
0C0C0C00
0C0C0C00
180C0600
FE3F1FC0
ENDCHAR
STARTCHAR 0437
ENCODING 1079
SWIDTH 1000 0
DWIDTH 32 0
BBX 13 16 10 1
BITMAP
1F80
F0E0
C060
C070
8070
0060
00C0
1F00
00E0
0030
8030
8038
8030
C030
E0E0
3F80
ENDCHAR
STARTCHAR 0438
ENCODING 1080
SWIDTH 1000 0
DWIDTH 32 0
BBX 18 15 7 2
BITMAP
FE1FC0
380700
380700
380E00
381E00
383600
386600
388600
390600
3A0600
3C0600
380600
380700
380700
FE1FC0
ENDCHAR
STARTCHAR 0439
ENCODING 1081
SWIDTH 1000 0
DWIDTH 32 0
BBX 18 21 7 2
BITMAP
061800
0E1C00
0E1C00
061800
01F000
000000
FE1FC0
380700
380700
380E00
381E00
383600
386600
388600
390600
3A0600
3C0600
380600
380700
380700
FE1FC0
ENDCHAR
STARTCHAR 043A
ENCODING 1082
SWIDTH 1000 0
DWIDTH 32 0
BBX 19 15 7 2
BITMAP
FF0380
180780
180980
181800
181000
186000
1FE000
187000
183000
181800
180C00
180E00
180700
180780
FF1FE0
ENDCHAR
STARTCHAR 043B
ENCODING 1083
SWIDTH 1000 0
DWIDTH 32 0
BBX 20 16 5 1
BITMAP
07FFF0
008180
008180
008180
008180
008180
008180
008180
008180
008180
010180
610180
E10180
C30180
660FF0
3C0000
ENDCHAR
STARTCHAR 043C
ENCODING 1084
SWIDTH 1000 0
DWIDTH 32 0
BBX 21 15 6 2
BITMAP
F801F8
3801C0
2C02C0
2C02C0
2604C0
2604C0
2608C0
2308C0
2308C0
2190C0
2190C0
20E0C0
20E0C0
20C0C0
FC47F8
ENDCHAR
STARTCHAR 043D
ENCODING 1085
SWIDTH 1000 0
DWIDTH 32 0
BBX 18 15 7 2
BITMAP
FE1FC0
380700
380700
380600
380600
380600
380600
3FFE00
380600
380600
380600
380600
380600
380700
FE1FC0
ENDCHAR
STARTCHAR 043E
ENCODING 1086
SWIDTH 1000 0
DWIDTH 32 0
BBX 16 16 8 1
BITMAP
07E0
1C38
380C
300C
6006
6006
E007
E007
E007
E007
6006
6006
700E
381C
1C38
07E0
ENDCHAR
STARTCHAR 043F
ENCODING 1087
SWIDTH 1000 0
DWIDTH 32 0
BBX 18 15 7 2
BITMAP
FFFFC0
380700
180600
180600
180600
180600
180600
180600
180600
180600
180600
180600
180600
380700
FE1FC0
ENDCHAR
STARTCHAR 0440
ENCODING 1088
SWIDTH 1000 0
DWIDTH 32 0
BBX 17 21 7 -3
BITMAP
080000
F9F800
1E0C00
1C0600
180300
180300
180380
180380
180380
180380
180300
180300
1C0600
1E0C00
19F800
180000
180000
180000
180000
180000
FF0000
ENDCHAR
STARTCHAR 0441
ENCODING 1089
SWIDTH 1000 0
DWIDTH 32 0
BBX 14 16 9 1
BITMAP
0FC0
1830
3038
6038
E038
C000
C000
C000
C000
C000
C000
E004
6008
7010
3C20
0FC0
ENDCHAR
STARTCHAR 0442
ENCODING 1090
SWIDTH 1000 0
DWIDTH 32 0
BBX 14 15 9 2
BITMAP
FFFC
C30C
8304
8304
8304
0300
0300
0300
0300
0300
0300
0300
0300
0300
1FE0
ENDCHAR
STARTCHAR 0443
ENCODING 1091
SWIDTH 1000 0
DWIDTH 32 0
BBX 19 20 7 -3
BITMAP
FF1FE0
380380
180300
0C0200
0C0600
060400
060C00
030800
038800
019000
01D000
00E000
00E000
004000
004000
008000
388000
398000
3B0000
1E0000
ENDCHAR
STARTCHAR 0444
ENCODING 1092
SWIDTH 1000 0
DWIDTH 32 0
BBX 18 28 7 -3
BITMAP
004000
07C000
00C000
00C000
00C000
00C000
00C000
00C000
1FFE00
30C300
60C180
60C180
C0C0C0
C0C0C0
C0C0C0
C0C0C0
C0C0C0
C0C0C0
E0C0C0
60C180
60C180
31E300
1EDE00
00C000
00C000
00C000
00C000
07F800
ENDCHAR
STARTCHAR 0445
ENCODING 1093
SWIDTH 1000 0
DWIDTH 32 0
BBX 20 15 6 2
BITMAP
7F9FE0
0C0300
060600
030C00
039800
01F000
00E000
006000
00B000
011800
020C00
040600
080700
380380
FE0FF0
ENDCHAR
STARTCHAR 0446
ENCODING 1094
SWIDTH 1000 0
DWIDTH 32 0
BBX 18 19 7 -2
BITMAP
FE3F80
380E00
300600
300600
300600
300600
300600
300600
300600
300600
300600
300600
300600
380E00
FFFFC0
0000C0
0000C0
000040
000040
ENDCHAR
STARTCHAR 0447
ENCODING 1095
SWIDTH 1000 0
DWIDTH 32 0
BBX 17 15 7 2
BITMAP
FE3F80
380E00
300600
300600
300600
300600
300600
180600
1C1E00
07E600
000600
000600
000600
000600
003F80
ENDCHAR
STARTCHAR 0448
ENCODING 1096
SWIDTH 1000 0
DWIDTH 32 0
BBX 24 15 4 2
BITMAP
FE7E7F
38181C
38181C
30180C
30180C
30180C
30180C
30180C
30180C
30180C
30180C
30180C
38181C
38181C
FFFFFF
ENDCHAR
STARTCHAR 0449
ENCODING 1097
SWIDTH 1000 0
DWIDTH 32 0
BBX 25 19 4 -2
BITMAP
FE7E7F00
38181C00
38181C00
30180C00
30180C00
30180C00
30180C00
30180C00
30180C00
30180C00
30180C00
30180C00
38181C00
38181C00
FFFFFF80
00000380
00000180
00000080
00000080
ENDCHAR
STARTCHAR 044A
ENCODING 1098
SWIDTH 1000 0
DWIDTH 32 0
BBX 18 15 7 2
BITMAP
FFC000
CE0000
860000
860000
060000
060000
060000
07FE00
060380
060180
0601C0
0601C0
0601C0
060380
3FFE00
ENDCHAR
STARTCHAR 044B
ENCODING 1099
SWIDTH 1000 0
DWIDTH 32 0
BBX 22 15 5 2
BITMAP
FE01FC
380070
380070
300030
300030
300030
300030
3FF030
301C30
300E30
300630
300630
300E70
381C70
FFF1FC
ENDCHAR
STARTCHAR 044C
ENCODING 1100
SWIDTH 1000 0
DWIDTH 32 0
BBX 16 15 8 2
BITMAP
FF00
3800
1800
1800
1800
1800
1800
1FF8
180E
1806
1807
1807
1806
180E
FFF8
ENDCHAR
STARTCHAR 044D
ENCODING 1101
SWIDTH 1000 0
DWIDTH 32 0
BBX 16 16 8 1
BITMAP
0FE0
7838
601C
400E
4006
0007
0F07
3FFF
00F7
0007
0006
8006
400C
201C
1830
07E0
ENDCHAR
STARTCHAR 044E
ENCODING 1102
SWIDTH 1000 0
DWIDTH 32 0
BBX 24 16 4 1
BITMAP
FF07E0
181C38
18381C
18300C
186006
186006
186006
1FE007
186007
186006
186006
186006
18300C
18381C
FF1C38
0007E0
ENDCHAR
STARTCHAR 044F
ENCODING 1103
SWIDTH 1000 0
DWIDTH 32 0
BBX 17 16 7 1
BITMAP
07FF80
1C0E00
380600
300600
300600
380600
1C0600
07FE00
038600
030600
060600
0E0600
0C0600
180600
603F80
800000
ENDCHAR
STARTCHAR 0451
ENCODING 1105
SWIDTH 1000 0
DWIDTH 32 0
BBX 15 21 8 1
BITMAP
1818
1C38
1818
0000
0000
07E0
1C38
301C
300C
600E
6006
FFFE
E000
E000
E000
6000
7002
7004
3808
1C10
07E0
ENDCHAR
STARTCHAR 1E3E
ENCODING 7742
SWIDTH 500 0
DWIDTH 16 0
BBX 16 26 0 2
BITMAP
00F0
0180
0300
0000
F81F
381C
381C
281C
281C
2C2C
2C2C
2C2C
242C
244C
264C
264C
264C
224C
228C
238C
238C
238C
218C
210C
210C
F83F
ENDCHAR
STARTCHAR 1E3F
ENCODING 7743
SWIDTH 500 0
DWIDTH 16 0
BBX 16 20 0 2
BITMAP
00F0
0180
0300
0000
2000
E738
39CC
318C
318C
318C
318C
318C
318C
318C
318C
318C
318C
318C
318C
7BDF
ENDCHAR
STARTCHAR 1F70
ENCODING 8048
SWIDTH 500 0
DWIDTH 16 0
BBX 13 21 2 1
BITMAP
3C00
0600
0300
0000
0040
1F40
31C0
60C0
60C0
E0C0
C0C0
C0C0
C0C0
C0C0
C0C0
C0C0
C0C0
60C0
60C8
3150
1E70
ENDCHAR
STARTCHAR 1F71
ENCODING 8049
SWIDTH 500 0
DWIDTH 16 0
BBX 13 21 2 1
BITMAP
03C0
0600
0C00
0000
0040
1F40
31C0
60C0
60C0
E0C0
C0C0
C0C0
C0C0
C0C0
C0C0
C0C0
C0C0
60C0
60C8
3150
1E70
ENDCHAR
STARTCHAR 1F72
ENCODING 8050
SWIDTH 500 0
DWIDTH 16 0
BBX 11 21 3 1
BITMAP
7800
0C00
0600
0000
0000
1F00
61C0
40C0
C040
C040
6000
6000
1F00
6000
C000
C020
C020
C060
C060
60E0
3F80
ENDCHAR
STARTCHAR 1F73
ENCODING 8051
SWIDTH 500 0
DWIDTH 16 0
BBX 11 21 3 1
BITMAP
0780
0C00
1800
0000
0000
1F00
61C0
40C0
C040
C040
6000
6000
1F00
6000
C000
C020
C020
C060
C060
60E0
3F80
ENDCHAR
STARTCHAR 2010
ENCODING 8208
SWIDTH 1000 0
DWIDTH 32 0
BBX 10 1 11 12
BITMAP
FFC0
ENDCHAR
STARTCHAR 2013
ENCODING 8211
SWIDTH 500 0
DWIDTH 16 0
BBX 6 1 5 12
BITMAP
FC
ENDCHAR
STARTCHAR 2014
ENCODING 8212
SWIDTH 1000 0
DWIDTH 32 0
BBX 28 1 2 12
BITMAP
FFFFFFF0
ENDCHAR
STARTCHAR 2015
ENCODING 8213
SWIDTH 1000 0
DWIDTH 32 0
BBX 28 1 2 12
BITMAP
FFFFFFF0
ENDCHAR
STARTCHAR 2016
ENCODING 8214
SWIDTH 1000 0
DWIDTH 32 0
BBX 6 32 13 -4
BITMAP
84
84
84
84
84
84
84
84
84
84
84
84
84
84
84
84
84
84
84
84
84
84
84
84
84
84
84
84
84
84
84
84
ENDCHAR
STARTCHAR 2018
ENCODING 8216
SWIDTH 1000 0
DWIDTH 32 0
BBX 5 9 25 18
BITMAP
18
30
60
40
C0
F0
F0
F0
60
ENDCHAR
STARTCHAR 2019
ENCODING 8217
SWIDTH 1000 0
DWIDTH 32 0
BBX 4 8 3 18
BITMAP
60
F0
F0
70
30
60
40
80
ENDCHAR
STARTCHAR 201C
ENCODING 8220
SWIDTH 1000 0
DWIDTH 32 0
BBX 11 9 19 18
BITMAP
1060
20C0
6180
C100
C300
E3C0
F3C0
F3C0
E180
ENDCHAR
STARTCHAR 201D
ENCODING 8221
SWIDTH 1000 0
DWIDTH 32 0
BBX 10 8 3 18
BITMAP
61C0
F3C0
F3C0
71C0
30C0
6080
4180
8300
ENDCHAR
STARTCHAR 2020
ENCODING 8224
SWIDTH 1000 0
DWIDTH 32 0
BBX 14 28 9 -2
BITMAP
0300
0780
0780
0780
0300
7B78
7FF8
FFFC
7338
0300
0780
0780
0300
0300
0300
0300
0300
0300
0300
0300
0300
0300
0300
0300
0300
0300
0300
0300
ENDCHAR
STARTCHAR 2021
ENCODING 8225
SWIDTH 1000 0
DWIDTH 32 0
BBX 12 30 10 -3
BITMAP
0600
0F00
0F00
0600
E670
FFF0
FFF0
E670
0F00
0600
0600
0600
0600
0600
0400
0400
0600
0600
0600
0600
0600
0F00
F6F0
FFF0
F6F0
0600
0600
0F00
0F00
0600
ENDCHAR
STARTCHAR 2022
ENCODING 8226
SWIDTH 500 0
DWIDTH 16 0
BBX 6 6 5 9
BITMAP
78
FC
FC
FC
FC
78
ENDCHAR
STARTCHAR 2025
ENCODING 8229
SWIDTH 1000 0
DWIDTH 32 0
BBX 20 4 6 10
BITMAP
600060
F000F0
F000F0
600060
ENDCHAR
STARTCHAR 2026
ENCODING 8230
SWIDTH 1000 0
DWIDTH 32 0
BBX 26 4 3 10
BITMAP
700C0380
F01E03C0
F01E03C0
700C0380
ENDCHAR
STARTCHAR 2030
ENCODING 8240
SWIDTH 1000 0
DWIDTH 32 0
BBX 28 29 2 -2
BITMAP
00018000
3C030000
66020000
43060000
C3040000
C3040000
C3080000
C1880000
C3100000
C3100000
C3300000
43200000
66600000
3C400000
00C00000
008E03C0
01910660
01318C20
03208C30
0260CC30
0660C830
0460D830
0C60C830
0860CC30
18208C30
10318C20
30110660
200E03C0
60000000
ENDCHAR
STARTCHAR 2032
ENCODING 8242
SWIDTH 1000 0
DWIDTH 32 0
BBX 5 9 1 17
BITMAP
18
30
30
30
20
60
40
40
80
ENDCHAR
STARTCHAR 2033
ENCODING 8243
SWIDTH 1000 0
DWIDTH 32 0
BBX 10 9 1 17
BITMAP
18C0
3180
3180
3180
2100
6300
4200
4200
8400
ENDCHAR
STARTCHAR 203B
ENCODING 8251
SWIDTH 1000 0
DWIDTH 32 0
BBX 26 26 3 -1
BITMAP
400C0080
E01E01C0
301E0300
181E0600
0C0C0C00
06001800
03003000
01806000
00C0C000
00618000
70330380
F81E0780
F80C07C0
F81E0780
70330380
00618000
00C0C000
01806000
03003000
06001800
0C0C0C00
181E0600
301E0300
601E0180
C00E00C0
80000080
ENDCHAR
STARTCHAR 203C
ENCODING 8252
SWIDTH 500 0
DWIDTH 16 0
BBX 10 27 3 -2
BITMAP
6180
E1C0
E1C0
E1C0
E1C0
E1C0
E1C0
E180
6180
6180
6180
6180
6180
6180
6180
6180
4080
4080
4080
0000
0000
0000
0000
6180
E3C0
F1C0
6180
ENDCHAR
STARTCHAR 203E
ENCODING 8254
SWIDTH 1000 0
DWIDTH 32 0
BBX 32 1 0 27
BITMAP
FFFFFFFF
ENDCHAR
STARTCHAR 203F
ENCODING 8255
SWIDTH 500 0
DWIDTH 16 0
BBX 12 3 2 -3
BITMAP
8010
6060
1F80
ENDCHAR
STARTCHAR 2042
ENCODING 8258
SWIDTH 500 0
DWIDTH 16 0
BBX 14 19 1 3
BITMAP
0300
0300
0B40
0EC0
0300
06C0
0A40
0300
0300
0000
0000
3030
97A4
DCEC
2850
3870
DCEC
97A4
3030
ENDCHAR
STARTCHAR 2047
ENCODING 8263
SWIDTH 500 0
DWIDTH 16 0
BBX 14 27 1 -2
BITMAP
3838
4C58
CC8C
8C8C
8C8C
CECC
ECEC
CCCC
0C0C
0C0C
1818
1818
1010
1010
1030
2020
2020
2020
2020
2020
0000
0000
0000
3030
7870
7870
3030
ENDCHAR
STARTCHAR 2048
ENCODING 8264
SWIDTH 500 0
DWIDTH 16 0
BBX 13 27 1 -2
BITMAP
3C30
4638
4638
8338
8330
E330
E330
E330
0630
0630
0C30
0C30
0830
0830
1030
1030
1010
1010
1010
1010
0000
0000
0000
3830
3878
3878
1830
ENDCHAR
STARTCHAR 2049
ENCODING 8265
SWIDTH 500 0
DWIDTH 16 0
BBX 12 27 2 -2
BITMAP
61C0
E260
E430
E430
EC30
EE30
6E30
6630
6030
6060
6060
6040
60C0
6080
6080
6080
4080
4080
4080
4080
0000
0000
0000
6180
F3C0
F3C0
6180
ENDCHAR
STARTCHAR 2051
ENCODING 8273
SWIDTH 1000 0
DWIDTH 32 0
BBX 9 25 11 0
BITMAP
0C00
0C00
0C00
C880
3B00
0C00
3F00
C880
0C00
0C00
0C00
0000
0000
0000
0000
0C00
0C00
4C80
E980
1A00
1C00
7B80
CC80
0C00
0C00
ENDCHAR
STARTCHAR 20AC
ENCODING 8364
SWIDTH 500 0
DWIDTH 16 0
BBX 13 23 1 1
BITMAP
03C8
0678
0C38
0818
1818
1808
1808
1800
3800
FFC0
3000
3000
3000
FFC0
3800
1808
1808
1808
1818
0810
0C30
0620
03C0
ENDCHAR
STARTCHAR 2103
ENCODING 8451
SWIDTH 1000 0
DWIDTH 32 0
BBX 27 26 1 1
BITMAP
38000000
44000000
4203F800
820E0E40
423803C0
467001C0
3C6000C0
00E000C0
00C00040
01C00040
01C00000
01800000
01800000
03800000
03800000
01800000
01800000
01800000
01C00020
01C00040
00E00040
006000C0
00700080
00380300
000E0600
0003F800
ENDCHAR
STARTCHAR 210F
ENCODING 8463
SWIDTH 500 0
DWIDTH 16 0
BBX 13 24 2 1
BITMAP
0600
3C00
0C00
0C80
0DC0
0E00
3800
D800
19C0
1660
3860
3060
3060
2060
2040
60C0
60C0
60C0
40C0
C088
C188
C190
8190
00E0
ENDCHAR
STARTCHAR 2113
ENCODING 8467
SWIDTH 500 0
DWIDTH 16 0
BBX 14 23 1 1
BITMAP
0060
0190
0110
0310
0610
0610
0430
0C30
0C30
0860
1860
18C0
18C0
1980
1B00
1A00
1C08
180C
3818
D830
0C60
0FE0
0780
ENDCHAR
STARTCHAR 2116
ENCODING 8470
SWIDTH 1000 0
DWIDTH 32 0
BBX 28 23 2 1
BITMAP
F07C0000
70100000
38100000
38100000
2C100000
2C100000
2C100000
26103C00
2610C600
23108200
23118300
21918300
21918100
21918100
20D18180
20D18180
20718180
20718300
20318300
20318300
60308270
F810C670
00103C70
ENDCHAR
STARTCHAR 2121
ENCODING 8481
SWIDTH 1000 0
DWIDTH 32 0
BBX 28 22 2 2
BITMAP
FFE00000
CC600000
8C200000
8C200000
8C200000
0C000000
0C3FCF80
0C184600
0C184600
0C180600
0C180600
0C188600
0C188600
0C1F8600
0C188600
0C188600
0C180600
0C180610
0C182610
0C186610
0C186630
3FBFEFF0
ENDCHAR
STARTCHAR 2127
ENCODING 8487
SWIDTH 500 0
DWIDTH 16 0
BBX 12 23 2 1
BITMAP
F9F0
F9F0
8910
8910
9090
30C0
6060
6060
C030
C030
C030
C030
C030
C030
C030
C030
C030
C030
4030
6060
20C0
30C0
0F00
ENDCHAR
STARTCHAR 212B
ENCODING 8491
SWIDTH 1000 0
DWIDTH 32 0
BBX 23 25 4 2
BITMAP
003C00
002400
004200
004400
002400
001800
001800
003800
002C00
006C00
004E00
00C600
008700
008300
010300
010180
030180
03FFC0
0600C0
0400E0
040060
080060
080070
180078
FF01FE
ENDCHAR
STARTCHAR 2135
ENCODING 8501
SWIDTH 500 0
DWIDTH 16 0
BBX 14 24 1 1
BITMAP
2000
2020
2060
2060
3030
3018
182C
1824
0C48
0C40
0E80
1380
3380
2180
61C0
60C0
6060
6070
6030
6038
6018
6018
6010
C010
ENDCHAR
STARTCHAR 2153
ENCODING 8531
SWIDTH 500 0
DWIDTH 16 0
BBX 14 29 1 -3
BITMAP
E008
6008
2010
2010
2030
2020
2060
2040
2040
2080
2080
2180
3100
FB00
0270
0288
0488
048C
0C08
0818
1870
1008
100C
200C
218C
618C
418C
C098
0070
ENDCHAR
STARTCHAR 2154
ENCODING 8532
SWIDTH 500 0
DWIDTH 16 0
BBX 14 30 1 -3
BITMAP
380C
4C08
C418
C410
4410
0430
0C20
0860
1040
3040
2480
4480
4580
FD00
0370
0298
0288
058C
0488
0C08
0818
0870
1008
100C
300C
218C
618C
418C
4098
8070
ENDCHAR
STARTCHAR 2155
ENCODING 8533
SWIDTH 500 0
DWIDTH 16 0
BBX 14 29 1 -3
BITMAP
E008
6008
2010
2010
2030
2020
2060
2040
2040
2080
2080
2180
3100
FB00
02F8
02F8
0480
0480
0C80
08F0
1888
108C
100C
200C
218C
618C
4188
C098
0070
ENDCHAR
STARTCHAR 2160
ENCODING 8544
SWIDTH 1000 0
DWIDTH 32 0
BBX 8 22 12 2
BITMAP
FF
3C
18
18
18
18
18
18
18
18
18
18
18
18
18
18
18
18
18
18
3C
FF
ENDCHAR
STARTCHAR 2161
ENCODING 8545
SWIDTH 1000 0
DWIDTH 32 0
BBX 20 22 6 2
BITMAP
FFFFF0
1C0380
0C0300
0C0300
0C0300
0C0300
0C0300
0C0300
0C0300
0C0300
0C0300
0C0300
0C0300
0C0300
0C0300
0C0300
0C0300
0C0300
0C0300
0C0300
1C0380
FFFFF0
ENDCHAR
STARTCHAR 2162
ENCODING 8546
SWIDTH 1000 0
DWIDTH 32 0
BBX 26 22 3 2
BITMAP
FFFFFFC0
1C0C0E00
180C0600
180C0600
180C0600
180C0600
180C0600
180C0600
180C0600
180C0600
180C0600
180C0600
180C0600
180C0600
180C0600
180C0600
180C0600
180C0600
180C0600
180C0600
1C0C0E00
FFFFFFC0
ENDCHAR
STARTCHAR 2163
ENCODING 8547
SWIDTH 1000 0
DWIDTH 32 0
BBX 28 23 3 1
BITMAP
FFFE07F0
1C7001C0
18300080
18300180
18380100
18180100
18180200
180C0200
180C0200
180E0400
18060400
18060400
18070800
18030800
18031800
18039000
18019000
1801B000
1800E000
1800E000
1C00E000
FF804000
00004000
ENDCHAR
STARTCHAR 2164
ENCODING 8548
SWIDTH 1000 0
DWIDTH 32 0
BBX 24 23 4 1
BITMAP
FF80FF
3C001C
1C0018
0C0010
0E0030
060020
060020
070060
030040
038040
018080
01C080
01C180
00C100
00E100
006200
007200
003600
003400
003C00
001800
001800
000800
ENDCHAR
STARTCHAR 2165
ENCODING 8549
SWIDTH 1000 0
DWIDTH 32 0
BBX 28 23 1 1
BITMAP
FF83FFF0
38006380
18004180
1C004180
0C008180
0C008180
0E008180
06010180
06010180
03010180
03020180
03820180
01860180
01840180
01C40180
00CC0180
00C80180
00E80180
00780180
00700180
00700380
00201FF0
00200000
ENDCHAR
STARTCHAR 2166
ENCODING 8550
SWIDTH 1000 0
DWIDTH 32 0
BBX 29 23 1 1
BITMAP
FF0FFFF8
380318E0
180118E0
18031860
18021860
1C021860
0C061860
0C041860
0E041860
06041860
06081860
06081860
03081860
03101860
03101860
01901860
01A01860
01A01860
01E01860
00C018E0
00C018E0
00C0FFF8
00400000
ENDCHAR
STARTCHAR 2167
ENCODING 8551
SWIDTH 1000 0
DWIDTH 32 0
BBX 30 23 1 1
BITMAP
FE3FFFFC
38066770
30046630
18046630
18046630
18086630
1C086630
0C086630
0C186630
0C106630
06106630
06106630
06206630
07206630
03206630
03206630
03406630
01C06630
01C06630
01C06630
01806770
0081FFFC
00800000
ENDCHAR
STARTCHAR 2168
ENCODING 8552
SWIDTH 1000 0
DWIDTH 32 0
BBX 27 22 3 2
BITMAP
FFFF9FC0
381C0700
180C0600
180E0400
18060800
18070800
18031000
1803B000
1801A000
1800E000
1800E000
1800E000
1801F000
18013000
18021800
18061C00
18040C00
180C0E00
18080600
18100700
38300780
FFFE1FE0
ENDCHAR
STARTCHAR 2169
ENCODING 8553
SWIDTH 1000 0
DWIDTH 32 0
BBX 24 22 4 2
BITMAP
7FC1FC
1E0070
0E0060
0700C0
038080
018100
00C300
00E600
007400
003800
001800
003C00
006E00
004700
008380
010180
0301C0
0600E0
0C0070
180038
3C003C
FF01FF
ENDCHAR
STARTCHAR 216A
ENCODING 8554
SWIDTH 1000 0
DWIDTH 32 0
BBX 27 22 2 2
BITMAP
7F9FFFE0
1C030380
0E020300
06040300
07040300
03080300
03980300
01900300
01F00300
00E00300
00E00300
00F00300
00B00300
01380300
01180300
020C0300
060C0300
04060300
08070300
18030300
38038300
FE0FFFE0
ENDCHAR
STARTCHAR 216B
ENCODING 8555
SWIDTH 1000 0
DWIDTH 32 0
BBX 29 22 1 2
BITMAP
FF1FFFF8
1C061CE0
0C041860
0E041860
06081860
03181860
03101860
01B01860
01A01860
00E01860
00E01860
00E01860
01F01860
01301860
02181860
021C1860
040C1860
0C0E1860
08061860
18071860
38039CE0
FE1FFFF8
ENDCHAR
STARTCHAR 2170
ENCODING 8560
SWIDTH 1000 0
DWIDTH 32 0
BBX 8 22 12 2
BITMAP
3C
3C
18
00
00
00
08
F8
18
18
18
18
18
18
18
18
18
18
18
18
18
FF
ENDCHAR
STARTCHAR 2171
ENCODING 8561
SWIDTH 1000 0
DWIDTH 32 0
BBX 18 22 7 2
BITMAP
3C0F00
3C0F00
180600
000000
000000
000000
080200
781E00
180600
180600
180600
180600
180600
180600
180600
180600
180600
180600
180600
180600
180600
FF3FC0
ENDCHAR
STARTCHAR 2172
ENCODING 8562
SWIDTH 1000 0
DWIDTH 32 0
BBX 24 22 4 2
BITMAP
3C3C3C
3C3C3C
181818
000000
000000
000000
080808
787878
181818
181818
181818
181818
181818
181818
181818
181818
181818
181818
181818
181818
18181C
FFFFFF
ENDCHAR
STARTCHAR 2173
ENCODING 8563
SWIDTH 1000 0
DWIDTH 32 0
BBX 24 23 5 1
BITMAP
380000
380000
380000
000000
000000
000000
080000
F9FC7F
38700C
387008
183008
183010
181810
181830
181C20
180C60
180C40
180640
180680
380380
380380
FE0300
000100
ENDCHAR
STARTCHAR 2174
ENCODING 8564
SWIDTH 1000 0
DWIDTH 32 0
BBX 18 16 7 1
BITMAP
FE0FC0
380300
180200
180200
0C0400
0C0400
0E0800
060800
071800
031000
033000
01A000
01A000
00C000
00C000
008000
ENDCHAR
STARTCHAR 2175
ENCODING 8565
SWIDTH 1000 0
DWIDTH 32 0
BBX 25 23 3 1
BITMAP
00001E00
00001E00
00000C00
00000000
00000000
00000000
00000400
FE1FFC00
38060C00
18060C00
18040C00
0C040C00
0C080C00
0E080C00
06100C00
06100C00
03300C00
03200C00
03A00C00
01C00C00
01C00C00
00807F80
00800000
ENDCHAR
STARTCHAR 2176
ENCODING 8566
SWIDTH 1000 0
DWIDTH 32 0
BBX 28 23 2 1
BITMAP
000071C0
000071C0
000071C0
00000000
00000000
00000000
00001040
FE3FF7C0
380671C0
380430C0
180C30C0
180830C0
0C0830C0
0C1030C0
061030C0
063030C0
062030C0
032030C0
034030C0
01C030C0
01C070C0
0181FFF0
00800000
ENDCHAR
STARTCHAR 2177
ENCODING 8567
SWIDTH 1000 0
DWIDTH 32 0
BBX 30 23 1 1
BITMAP
0000CE70
0001EE70
0000CE70
00000000
00000000
00000000
00004220
FE3FDFE0
3806CE60
1804C660
180CC620
0C08C620
0C08C620
0C10C620
0610C620
0620C620
0620C620
0320C620
0340C620
01C0C660
0180CE70
0183FFFC
00800000
ENDCHAR
STARTCHAR 2178
ENCODING 8568
SWIDTH 1000 0
DWIDTH 32 0
BBX 24 22 5 2
BITMAP
380000
380000
380000
000000
000000
000000
080000
F8FE7E
383818
381830
180C20
180640
180680
180380
180380
1802C0
1804C0
180860
181030
383038
38601C
FFF87F
ENDCHAR
STARTCHAR 2179
ENCODING 8569
SWIDTH 1000 0
DWIDTH 32 0
BBX 20 15 6 2
BITMAP
7F9FE0
0C0300
060600
030C00
039800
01F000
00E000
006000
00B000
011800
020C00
040600
080700
380380
FE0FF0
ENDCHAR
STARTCHAR 217A
ENCODING 8570
SWIDTH 1000 0
DWIDTH 32 0
BBX 25 22 3 2
BITMAP
00001E00
00001E00
00000C00
00000000
00000000
00000000
00000400
7F3F3C00
1C0C0C00
06080C00
06100C00
03200C00
01E00C00
01C00C00
00C00C00
01600C00
02300C00
06300C00
0C180C00
180C0C00
300E0E00
FE3FFF80
ENDCHAR
STARTCHAR 217B
ENCODING 8571
SWIDTH 1000 0
DWIDTH 32 0
BBX 28 22 2 2
BITMAP
000071C0
000071C0
000071C0
00000000
00000000
00000000
00001040
7E7FF7C0
1C1C71C0
0C1830C0
063030C0
072030C0
034030C0
018030C0
01C030C0
03E030C0
066030C0
043030C0
083830C0
101C30C0
300E71C0
FC7FFFF0
ENDCHAR
STARTCHAR 2190
ENCODING 8592
SWIDTH 1000 0
DWIDTH 32 0
BBX 28 11 2 7
BITMAP
03800000
06000000
1C000000
38000000
70000000
FFFFFFF0
70000000
38000000
1C000000
06000000
03800000
ENDCHAR
STARTCHAR 2191
ENCODING 8593
SWIDTH 1000 0
DWIDTH 32 0
BBX 12 28 10 -2
BITMAP
0400
0600
0F00
1F80
36C0
6660
6660
C630
8610
0600
0600
0600
0600
0600
0600
0600
0600
0600
0600
0600
0600
0600
0600
0600
0600
0600
0600
0600
ENDCHAR
STARTCHAR 2192
ENCODING 8594
SWIDTH 1000 0
DWIDTH 32 0
BBX 28 11 2 7
BITMAP
00001C00
00000600
00000380
000001C0
000000E0
FFFFFFF0
000000E0
000001C0
00000380
00000600
00001C00
ENDCHAR
STARTCHAR 2193
ENCODING 8595
SWIDTH 1000 0
DWIDTH 32 0
BBX 12 28 10 -2
BITMAP
0600
0600
0600
0600
0600
0600
0600
0600
0600
0600
0600
0600
0600
0600
0600
0600
0600
0600
0600
8610
C630
6660
6660
36C0
1F80
0F00
0600
0400
ENDCHAR
STARTCHAR 2194
ENCODING 8596
SWIDTH 500 0
DWIDTH 16 0
BBX 14 11 1 7
BITMAP
1860
3030
3030
6018
E01C
FFFC
E01C
6018
3030
3030
1860
ENDCHAR
STARTCHAR 2196
ENCODING 8598
SWIDTH 500 0
DWIDTH 16 0
BBX 12 24 2 0
BITMAP
1000
3C00
3F00
3B80
68E0
4C20
C420
C400
8600
8200
0300
0300
0100
0180
0180
0080
00C0
0040
0040
0060
0020
0030
0030
0020
ENDCHAR
STARTCHAR 2197
ENCODING 8599
SWIDTH 500 0
DWIDTH 16 0
BBX 12 24 2 0
BITMAP
0080
03C0
0FC0
1DC0
7160
4320
8230
0630
0610
0410
0C00
0C00
0800
1800
1800
1000
3000
2000
6000
6000
4000
C000
C000
8000
ENDCHAR
STARTCHAR 2198
ENCODING 8600
SWIDTH 500 0
DWIDTH 16 0
BBX 12 24 2 0
BITMAP
8000
C000
4000
4000
6000
2000
3000
3000
1000
1800
1800
0800
0C00
0420
0410
0630
0230
8320
6360
3960
1DC0
07C0
01C0
0080
ENDCHAR
STARTCHAR 2199
ENCODING 8601
SWIDTH 500 0
DWIDTH 16 0
BBX 12 24 2 0
BITMAP
0010
0030
0020
0020
0060
0040
00C0
00C0
0080
0180
0180
0100
0300
8200
8200
C600
C400
4C20
6C60
69C0
3B80
3E00
3800
1000
ENDCHAR
STARTCHAR 21C4
ENCODING 8644
SWIDTH 500 0
DWIDTH 16 0
BBX 12 24 2 0
BITMAP
0700
0300
0180
00C0
0060
FFF0
0060
00C0
0180
0300
0700
0000
0000
0E00
0C00
1800
3000
6000
FFF0
6000
3000
1800
0C00
0E00
ENDCHAR
STARTCHAR 21D2
ENCODING 8658
SWIDTH 1000 0
DWIDTH 32 0
BBX 28 17 2 4
BITMAP
00001000
00003800
00000C00
00000600
FFFFFF00
00000180
000000C0
00000060
00000030
00000060
000000C0
00000180
FFFFFF00
00000600
00000C00
00001800
00003000
ENDCHAR
STARTCHAR 21D4
ENCODING 8660
SWIDTH 1000 0
DWIDTH 32 0
BBX 28 17 2 4
BITMAP
00801000
01C03800
03000C00
06000600
0FFFFF00
18000180
300000C0
60000060
C0000030
60000060
300000C0
18000180
0FFFFF00
06000600
03000C00
01801800
00C03000
ENDCHAR
STARTCHAR 21E6
ENCODING 8678
SWIDTH 500 0
DWIDTH 16 0
BBX 12 11 2 7
BITMAP
0800
0800
1800
2800
47F0
8010
8010
6FE0
1800
0800
0800
ENDCHAR
STARTCHAR 21E7
ENCODING 8679
SWIDTH 500 0
DWIDTH 16 0
BBX 10 25 3 0
BITMAP
0800
0C00
1200
1200
2100
4080
4080
8040
7780
1400
1400
1400
1400
1400
1400
1400
1400
1400
1400
1400
1400
1400
1400
1400
1C00
ENDCHAR
STARTCHAR 21E8
ENCODING 8680
SWIDTH 500 0
DWIDTH 16 0
BBX 12 11 2 7
BITMAP
0200
0100
0280
0240
FE20
8010
8010
7E60
0280
0100
0200
ENDCHAR
STARTCHAR 21E9
ENCODING 8681
SWIDTH 500 0
DWIDTH 16 0
BBX 10 26 3 -1
BITMAP
0C00
1400
1400
1400
1400
1400
1400
1400
1400
1400
1400
1400
1400
1400
1400
1400
1400
F3C0
8040
4080
4100
2100
1200
1200
0C00
0800
ENDCHAR
STARTCHAR 2200
ENCODING 8704
SWIDTH 1000 0
DWIDTH 32 0
BBX 28 26 2 -1
BITMAP
C0000030
40000020
60000060
20000040
300000C0
10000180
18000180
0C000300
04000200
07FFFE00
02000400
03000C00
01000800
01801800
00C03000
00C03000
00606000
00606000
0030C000
00108000
00198000
00090000
000F0000
00060000
00060000
00040000
ENDCHAR
STARTCHAR 2202
ENCODING 8706
SWIDTH 1000 0
DWIDTH 32 0
BBX 15 25 9 0
BITMAP
03E0
0430
0818
1018
000C
000C
000C
000C
000C
000E
0F8E
184C
302C
601C
E01C
C01C
C01C
C018
C018
C038
C030
C060
60E0
31C0
1F00
ENDCHAR
STARTCHAR 2203
ENCODING 8707
SWIDTH 1000 0
DWIDTH 32 0
BBX 23 24 4 0
BITMAP
FFFFFE
000006
000006
000006
000006
000006
000006
000006
000006
000006
000006
FFFFFE
000006
000006
000006
000006
000006
000006
000006
000006
000006
000006
000006
FFFFFE
ENDCHAR
STARTCHAR 2205
ENCODING 8709
SWIDTH 500 0
DWIDTH 16 0
BBX 12 18 2 3
BITMAP
0020
0060
0F60
39C0
70E0
C1A0
C330
8310
8610
8410
8C10
C830
7820
30C0
3F80
6000
4000
4000
ENDCHAR
STARTCHAR 2207
ENCODING 8711
SWIDTH 1000 0
DWIDTH 32 0
BBX 24 24 4 -1
BITMAP
FFFFFF
FFFFFF
600002
600004
300004
100008
180008
0C0010
0C0010
060020
060020
030040
030040
018080
018080
00C100
00C100
006200
006200
003400
003C00
001800
001800
001000
ENDCHAR
STARTCHAR 2208
ENCODING 8712
SWIDTH 1000 0
DWIDTH 32 0
BBX 24 22 4 1
BITMAP
00FFFF
030000
0C0000
180000
300000
600000
400000
C00000
C00000
800000
FFFFFF
800000
C00000
C00000
C00000
600000
600000
300000
180000
0C0000
070000
00FFFF
ENDCHAR
STARTCHAR 2209
ENCODING 8713
SWIDTH 500 0
DWIDTH 16 0
BBX 12 21 2 2
BITMAP
00C0
07F0
1C80
3180
6180
4100
C100
C100
8300
8300
FFF0
8200
8600
C600
C400
4400
6C00
3C00
1C00
0FF0
1800
ENDCHAR
STARTCHAR 220B
ENCODING 8715
SWIDTH 1000 0
DWIDTH 32 0
BBX 24 22 4 1
BITMAP
FFFF00
0000C0
000030
000018
00000C
000006
000002
000003
000003
000001
FFFFFF
000001
000003
000003
000003
000006
000006
00000C
000018
000030
0000E0
FFFF00
ENDCHAR
STARTCHAR 2212
ENCODING 8722
SWIDTH 500 0
DWIDTH 16 0
BBX 12 1 2 12
BITMAP
FFF0
ENDCHAR
STARTCHAR 2213
ENCODING 8723
SWIDTH 500 0
DWIDTH 16 0
BBX 12 21 2 1
BITMAP
FFF0
0000
0000
0000
0000
0600
0600
0600
0600
0600
0600
0600
FFF0
0600
0600
0600
0600
0600
0600
0600
0600
ENDCHAR
STARTCHAR 221A
ENCODING 8730
SWIDTH 1000 0
DWIDTH 32 0
BBX 31 30 1 -2
BITMAP
0001FFFE
00030000
00030000
00020000
00060000
00060000
00040000
000C0000
000C0000
00080000
00180000
00100000
00100000
00300000
00200000
00200000
20600000
30400000
30C00000
30C00000
58800000
59800000
99800000
8D000000
0F000000
0F000000
06000000
06000000
04000000
04000000
ENDCHAR
STARTCHAR 221D
ENCODING 8733
SWIDTH 1000 0
DWIDTH 32 0
BBX 27 13 2 6
BITMAP
0F801F00
10E061C0
2030C040
60198060
400B0000
C00F0000
C0060000
400E0000
400B0000
60198060
2030C040
38E061C0
0F801F00
ENDCHAR
STARTCHAR 221E
ENCODING 8734
SWIDTH 1000 0
DWIDTH 32 0
BBX 28 12 2 6
BITMAP
0F801F00
386060C0
2030C060
40198020
400F0020
C0060030
C0060030
400F0020
40198020
6030C060
306061C0
0F801F00
ENDCHAR
STARTCHAR 221F
ENCODING 8735
SWIDTH 1000 0
DWIDTH 32 0
BBX 26 26 4 0
BITMAP
C0000000
C0000000
C0000000
C0000000
C0000000
C0000000
C0000000
C0000000
C0000000
C0000000
C0000000
C0000000
C0000000
C0000000
C0000000
C0000000
C0000000
C0000000
C0000000
C0000000
C0000000
C0000000
C0000000
C0000000
C0000000
FFFFFFC0
ENDCHAR
STARTCHAR 2220
ENCODING 8736
SWIDTH 1000 0
DWIDTH 32 0
BBX 26 25 3 0
BITMAP
00000040
000000C0
00000180
00000300
00000E00
00001C00
00003800
00007000
0000E000
0001C000
00038000
00070000
000E0000
001C0000
00380000
00700000
00E00000
01C00000
03800000
07000000
0E000000
1C000000
38000000
70000000
FFFFFFC0
ENDCHAR
STARTCHAR 2225
ENCODING 8741
SWIDTH 1000 0
DWIDTH 32 0
BBX 16 28 8 -2
BITMAP
0063
0062
0046
00C6
00C4
008C
018C
0188
0118
0318
0310
0230
0620
0620
0460
0C40
0C40
08C0
1880
1080
1180
3100
2100
2300
6200
4200
4600
C400
ENDCHAR
STARTCHAR 2226
ENCODING 8742
SWIDTH 500 0
DWIDTH 16 0
BBX 14 28 1 -2
BITMAP
0084
008C
0188
0108
0118
0310
0310
4230
6230
3620
1C20
0C60
0E40
0F40
09C0
18C0
18C0
10E0
11B0
3118
2108
2300
6200
6200
4600
4600
C400
8C00
ENDCHAR
STARTCHAR 2227
ENCODING 8743
SWIDTH 1000 0
DWIDTH 32 0
BBX 28 26 2 -1
BITMAP
00040000
00060000
000F0000
000D0000
00198000
00108000
0030C000
00204000
00606000
00402000
00C03000
00801000
01801800
01000800
03000C00
02000400
06000600
0C000300
0C000300
18000180
10000080
300000C0
20000040
60000060
40000020
C0000030
ENDCHAR
STARTCHAR 2228
ENCODING 8744
SWIDTH 1000 0
DWIDTH 32 0
BBX 28 26 2 -1
BITMAP
C0000030
40000020
60000060
20000040
300000C0
10000080
18000180
0C000300
0C000300
06000600
02000400
03000C00
01000800
01801800
00801000
00C03000
00402000
00606000
00204000
0030C000
00108000
00198000
000B0000
000F0000
00060000
00040000
ENDCHAR
STARTCHAR 2229
ENCODING 8745
SWIDTH 1000 0
DWIDTH 32 0
BBX 22 24 5 0
BITMAP
00FC00
07FF80
0F03C0
1C0060
300030
600018
600008
C00008
C0000C
C00004
800004
800004
800004
800004
800004
800004
800004
800004
800004
800004
800004
800004
800004
800004
ENDCHAR
STARTCHAR 222A
ENCODING 8746
SWIDTH 1000 0
DWIDTH 32 0
BBX 22 24 5 0
BITMAP
800004
800004
800004
800004
800004
800004
800004
800004
800004
800004
800004
800004
800004
800004
C0000C
C0000C
C0000C
600018
600018
300030
1C00E0
0F03C0
07FF80
00FC00
ENDCHAR
STARTCHAR 222B
ENCODING 8747
SWIDTH 1000 0
DWIDTH 32 0
BBX 16 29 8 -2
BITMAP
001C
0023
0063
0043
00C3
00C0
00C0
0080
0180
0180
0180
0180
0180
0180
0180
0180
0180
0180
0180
0180
0180
0300
0300
0300
0300
C200
E600
C400
7800
ENDCHAR
STARTCHAR 222C
ENCODING 8748
SWIDTH 1000 0
DWIDTH 32 0
BBX 26 29 3 -2
BITMAP
001C0780
002208C0
004318C0
00C710C0
00C330C0
00C03000
00803000
01803000
01806000
01806000
01806000
01806000
01806000
01806000
01806000
01806000
01806000
01806000
01806000
01806000
03006000
03004000
0300C000
0300C000
0300C000
C230C000
C6388000
C4310000
781E0000
ENDCHAR
STARTCHAR 222E
ENCODING 8750
SWIDTH 1000 0
DWIDTH 32 0
BBX 16 29 8 -2
BITMAP
001C
0023
0063
0043
00C3
00C0
00C0
0080
0180
0180
0180
07E0
0990
0990
1190
1190
0990
0DB0
07E0
0180
0180
0100
0300
0300
0300
C200
E200
C400
7800
ENDCHAR
STARTCHAR 2234
ENCODING 8756
SWIDTH 1000 0
DWIDTH 32 0
BBX 20 20 6 2
BITMAP
006000
00F000
00F000
006000
000000
000000
000000
000000
000000
000000
000000
000000
000000
000000
000000
000000
600060
F000F0
F000F0
600060
ENDCHAR
STARTCHAR 2235
ENCODING 8757
SWIDTH 1000 0
DWIDTH 32 0
BBX 20 20 6 2
BITMAP
600060
F000F0
F000F0
600060
000000
000000
000000
000000
000000
000000
000000
000000
000000
000000
000000
000000
006000
00F000
00F000
006000
ENDCHAR
STARTCHAR 223D
ENCODING 8765
SWIDTH 1000 0
DWIDTH 32 0
BBX 28 12 2 6
BITMAP
0FC01F00
384060C0
6000C040
40018020
40030020
C0020030
C0040030
400C0020
40180020
60304060
306021C0
0F801F00
ENDCHAR
STARTCHAR 2243
ENCODING 8771
SWIDTH 500 0
DWIDTH 16 0
BBX 12 10 2 8
BITMAP
3800
4C10
8320
81C0
0000
0000
0000
0000
0000
FFF0
ENDCHAR
STARTCHAR 2245
ENCODING 8773
SWIDTH 500 0
DWIDTH 16 0
BBX 12 13 2 6
BITMAP
3800
4C10
8320
01C0
0000
0000
0000
FFF0
0000
0000
0000
0000
FFF0
ENDCHAR
STARTCHAR 2248
ENCODING 8776
SWIDTH 500 0
DWIDTH 16 0
BBX 12 10 2 7
BITMAP
3810
C630
81C0
0000
0000
0000
3810
4C10
8320
01C0
ENDCHAR
STARTCHAR 2252
ENCODING 8786
SWIDTH 1000 0
DWIDTH 32 0
BBX 22 20 5 3
BITMAP
0E0000
0E0000
0E0000
0E0000
000000
000000
000000
FFFFFC
000000
000000
000000
000000
000000
FFFFFC
000000
000000
0001C0
0001C0
0001C0
0001C0
ENDCHAR
STARTCHAR 2260
ENCODING 8800
SWIDTH 1000 0
DWIDTH 32 0
BBX 22 22 5 1
BITMAP
000080
000180
000300
000300
000600
000600
000C00
FFFFFC
001800
001000
003000
002000
006000
FFFFFC
00C000
008000
018000
010000
030000
020000
060000
040000
ENDCHAR
STARTCHAR 2261
ENCODING 8801
SWIDTH 1000 0
DWIDTH 32 0
BBX 22 16 5 4
BITMAP
FFFFFC
000000
000000
000000
000000
000000
000000
FFFFFC
000000
000000
000000
000000
000000
000000
000000
FFFFFC
ENDCHAR
STARTCHAR 2262
ENCODING 8802
SWIDTH 500 0
DWIDTH 16 0
BBX 12 21 2 2
BITMAP
0060
0040
00C0
0080
FFF0
0180
0100
0300
0300
0200
FFF0
0400
0400
0C00
0800
0800
1800
FFF0
3000
3000
6000
ENDCHAR
STARTCHAR 2266
ENCODING 8806
SWIDTH 1000 0
DWIDTH 32 0
BBX 23 25 4 0
BITMAP
000002
00000E
00007C
0001E0
000F00
007800
03C000
1E0000
780000
9C0000
078000
00F000
001E00
0003C0
000078
00001E
000002
000000
000000
7FFFFE
000000
000000
000000
000000
7FFFFE
ENDCHAR
STARTCHAR 2267
ENCODING 8807
SWIDTH 1000 0
DWIDTH 32 0
BBX 23 25 5 0
BITMAP
800000
E00000
7C0000
0F0000
01E000
003C00
000780
0000F0
00003C
000072
0003C0
001E00
00F000
078000
3C0000
F00000
800000
000000
000000
FFFFFC
000000
000000
000000
000000
FFFFFC
ENDCHAR
STARTCHAR 226A
ENCODING 8810
SWIDTH 1000 0
DWIDTH 32 0
BBX 26 28 3 -2
BITMAP
0000E1C0
00018300
00030600
000E1C00
00183800
00306000
0060C000
00C18000
03870000
060C0000
0C180000
18300000
70600000
C1C00000
C1C00000
70600000
18300000
0C180000
060C0000
03870000
00C18000
0060C000
00306000
00183800
000E1C00
00030600
00018300
0000E1C0
ENDCHAR
STARTCHAR 226B
ENCODING 8811
SWIDTH 1000 0
DWIDTH 32 0
BBX 26 28 3 -2
BITMAP
E1C00000
30600000
18300000
0E1C0000
07060000
01830000
00C18000
0060C000
00387000
000C1800
00060C00
00030600
00018380
0000E0C0
0000E0C0
00018380
00030600
00060C00
000C1800
00387000
0060C000
00C18000
01830000
07060000
0E1C0000
18300000
30600000
E1C00000
ENDCHAR
STARTCHAR 2276
ENCODING 8822
SWIDTH 500 0
DWIDTH 16 0
BBX 14 22 1 1
BITMAP
0018
0078
01E0
0780
1E00
7000
F000
1C00
0700
81C0
6078
3818
0E08
0380
00E0
0038
0074
01C0
0700
1C00
7000
4000
ENDCHAR
STARTCHAR 2277
ENCODING 8823
SWIDTH 500 0
DWIDTH 16 0
BBX 14 22 1 1
BITMAP
6000
7800
1E00
0780
01E0
0038
003C
00E0
0380
1E08
7818
6070
81C0
0700
1C00
7000
B800
0E00
0380
00E0
0038
0008
ENDCHAR
STARTCHAR 2282
ENCODING 8834
SWIDTH 1000 0
DWIDTH 32 0
BBX 24 22 4 1
BITMAP
00FFFF
030000
0C0000
180000
300000
600000
400000
C00000
C00000
800000
800000
800000
800000
C00000
C00000
400000
600000
300000
180000
0C0000
070000
00FFFF
ENDCHAR
STARTCHAR 2283
ENCODING 8835
SWIDTH 1000 0
DWIDTH 32 0
BBX 24 22 4 1
BITMAP
FFFF00
0000C0
000030
000018
00000C
000006
000002
000003
000003
000001
000001
000001
000001
000003
000003
000002
000006
00000C
000018
000030
0000E0
FFFF00
ENDCHAR
STARTCHAR 2284
ENCODING 8836
SWIDTH 500 0
DWIDTH 16 0
BBX 12 21 2 2
BITMAP
00C0
07F0
1C80
3180
6180
4100
C100
8300
8300
8300
8200
8200
8600
8600
C400
4400
6400
3C00
1C00
0FF0
1800
ENDCHAR
STARTCHAR 2285
ENCODING 8837
SWIDTH 500 0
DWIDTH 16 0
BBX 12 22 2 1
BITMAP
0180
FF00
0380
03C0
0360
0220
0230
0610
0610
0410
0410
0C10
0C10
0C10
0830
0820
1860
18C0
1380
FE00
3000
3000
ENDCHAR
STARTCHAR 2286
ENCODING 8838
SWIDTH 1000 0
DWIDTH 32 0
BBX 24 24 4 0
BITMAP
03FFFF
0C0000
300000
600000
400000
C00000
C00000
800000
800000
800000
C00000
C00000
400000
600000
300000
0C0000
03FFFF
000000
000000
000000
000000
000000
000000
FFFFFF
ENDCHAR
STARTCHAR 2287
ENCODING 8839
SWIDTH 1000 0
DWIDTH 32 0
BBX 24 24 4 0
BITMAP
FFFFC0
000030
00000C
000006
000002
000003
000003
000001
000001
000001
000003
000003
000002
000006
00000C
000030
FFFFC0
000000
000000
000000
000000
000000
000000
FFFFFF
ENDCHAR
STARTCHAR 228A
ENCODING 8842
SWIDTH 500 0
DWIDTH 16 0
BBX 12 22 2 0
BITMAP
0FF0
3800
6000
4000
C000
8000
8000
8000
8000
C000
4000
6000
3800
0FF0
0000
0000
0000
0300
0200
FFF0
0400
0C00
ENDCHAR
STARTCHAR 228B
ENCODING 8843
SWIDTH 500 0
DWIDTH 16 0
BBX 12 22 2 0
BITMAP
FF00
01C0
0060
0020
0030
0010
0010
0010
0010
0030
0020
0060
01C0
FF00
0000
0000
0000
0300
0200
FFF0
0400
0C00
ENDCHAR
STARTCHAR 2295
ENCODING 8853
SWIDTH 500 0
DWIDTH 16 0
BBX 14 14 1 5
BITMAP
0F80
1860
6310
4308
8304
8304
BFF4
8304
8304
8304
4308
6318
1070
0FC0
ENDCHAR
STARTCHAR 2296
ENCODING 8854
SWIDTH 500 0
DWIDTH 16 0
BBX 14 15 1 5
BITMAP
0F80
1860
2010
4008
8004
8004
8004
BFF4
8004
8004
C008
4008
2010
1860
0FC0
ENDCHAR
STARTCHAR 2297
ENCODING 8855
SWIDTH 500 0
DWIDTH 16 0
BBX 14 15 1 5
BITMAP
0F80
1860
2010
4008
9864
8CC4
8784
8304
8784
8CC4
9864
5048
2010
1860
0FC0
ENDCHAR
STARTCHAR 22A5
ENCODING 8869
SWIDTH 1000 0
DWIDTH 32 0
BBX 28 26 2 0
BITMAP
00060000
00060000
00060000
00060000
00060000
00060000
00060000
00060000
00060000
00060000
00060000
00060000
00060000
00060000
00060000
00060000
00060000
00060000
00060000
00060000
00060000
00060000
00060000
00060000
00060000
FFFFFFF0
ENDCHAR
STARTCHAR 22BF
ENCODING 8895
SWIDTH 1000 0
DWIDTH 32 0
BBX 26 25 3 0
BITMAP
00000040
000000C0
000001C0
000003C0
000006C0
00000CC0
000018C0
000070C0
0000E0C0
0001C0C0
000380C0
000700C0
000E00C0
001C00C0
003800C0
007000C0
00E000C0
01C000C0
038000C0
070000C0
0E0000C0
1C0000C0
380000C0
700000C0
FFFFFFC0
ENDCHAR
STARTCHAR 22DA
ENCODING 8922
SWIDTH 500 0
DWIDTH 16 0
BBX 14 25 1 0
BITMAP
0008
0038
00E0
0780
1E00
7000
BC00
0700
01E0
0038
0008
0000
7FF8
0000
4000
7000
1E00
0380
00F0
003C
01E0
0780
3C00
7000
8000
ENDCHAR
STARTCHAR 22DB
ENCODING 8923
SWIDTH 500 0
DWIDTH 16 0
BBX 14 25 1 0
BITMAP
8000
7000
1C00
0780
01E0
0038
00F4
0380
1E00
7000
4000
0000
7FF8
0000
0008
0038
01E0
0700
3C00
F000
1E00
0780
00E0
0038
0008
ENDCHAR
STARTCHAR 2305
ENCODING 8965
SWIDTH 500 0
DWIDTH 16 0
BBX 12 14 2 4
BITMAP
FFF0
0400
0600
0600
0F00
0900
1980
1080
30C0
30C0
6060
6060
C030
C030
ENDCHAR
STARTCHAR 2306
ENCODING 8966
SWIDTH 500 0
DWIDTH 16 0
BBX 12 18 2 2
BITMAP
FFF0
0000
0000
0000
FFF0
0400
0600
0600
0F00
0900
1980
1080
30C0
30C0
6060
6060
C030
C030
ENDCHAR
STARTCHAR 2312
ENCODING 8978
SWIDTH 1000 0
DWIDTH 32 0
BBX 30 7 1 19
BITMAP
003FF000
01FFFE00
07C00F80
1E0001E0
70000038
E000001C
80000004
ENDCHAR
STARTCHAR 2318
ENCODING 8984
SWIDTH 1000 0
DWIDTH 32 0
BBX 28 28 2 -2
BITMAP
3C0003C0
C2000420
83000810
81000810
81000810
81000810
C1000860
3FFFFFC0
01000800
01000800
01000800
01000800
01000800
01000800
01000800
01000800
01000800
01000800
01000800
01000800
3FFFFFC0
61000830
81000810
81000810
81000810
83000C10
C2000420
3C0003C0
ENDCHAR
STARTCHAR 23BE
ENCODING 9150
SWIDTH 1000 0
DWIDTH 32 0
BBX 17 32 15 -4
BITMAP
FFFF80
C00000
C00000
C00000
C00000
C00000
C00000
C00000
C00000
C00000
C00000
C00000
C00000
C00000
C00000
C00000
C00000
C00000
C00000
C00000
C00000
C00000
C00000
C00000
C00000
C00000
C00000
C00000
C00000
C00000
C00000
C00000
ENDCHAR
STARTCHAR 23BF
ENCODING 9151
SWIDTH 1000 0
DWIDTH 32 0
BBX 17 32 15 -4
BITMAP
C00000
C00000
C00000
C00000
C00000
C00000
C00000
C00000
C00000
C00000
C00000
C00000
C00000
C00000
C00000
C00000
C00000
C00000
C00000
C00000
C00000
C00000
C00000
C00000
C00000
C00000
C00000
C00000
C00000
C00000
C00000
FFFF80
ENDCHAR
STARTCHAR 23C0
ENCODING 9152
SWIDTH 1000 0
DWIDTH 32 0
BBX 24 32 4 -4
BITMAP
001800
001800
001800
001800
00FF00
0399C0
0E1870
181818
30180C
201804
601806
401802
C01803
801801
801801
801801
801801
801801
801801
C01803
401802
601806
201804
30180C
181818
0E1870
0399C0
00FF00
001800
001800
001800
001800
ENDCHAR
STARTCHAR 23C1
ENCODING 9153
SWIDTH 1000 0
DWIDTH 32 0
BBX 32 32 0 -4
BITMAP
FFFFFFFF
00018000
00018000
00018000
001FF800
00718C00
00C18300
01818180
030180C0
02018040
04018060
04018020
0C018030
08018010
08018010
08018010
08018010
08018010
08018010
0C018030
04018020
06018060
02018040
030180C0
01818180
00E18700
0039BC00
000FF000
00018000
00018000
00018000
00018000
ENDCHAR
STARTCHAR 23C2
ENCODING 9154
SWIDTH 1000 0
DWIDTH 32 0
BBX 32 32 0 -4
BITMAP
00018000
00018000
00018000
00018000
000FF000
003DBC00
00E18600
01818180
03018080
02018040
06018060
04018020
0C018030
08018010
08018010
08018010
08018010
08018010
08018010
0C018030
04018020
04018060
02018040
030180C0
01818180
00C18300
00718E00
001FF800
00018000
00018000
00018000
FFFFFFFF
ENDCHAR
STARTCHAR 23C3
ENCODING 9155
SWIDTH 1000 0
DWIDTH 32 0
BBX 28 32 2 -4
BITMAP
00060000
00060000
00060000
00060000
00060000
00060000
000F0000
000F0000
001F8000
0036C000
00364000
00666000
00462000
00C63000
00861000
01861800
03060C00
02060400
06060600
04060200
0C060300
18060180
18060180
300600C0
20060040
60060060
7FFFFFE0
80060010
00060000
00060000
00060000
00060000
ENDCHAR
STARTCHAR 23C4
ENCODING 9156
SWIDTH 1000 0
DWIDTH 32 0
BBX 32 32 0 -4
BITMAP
FFFFFFFF
00018000
00018000
00018000
00018000
00018000
0003C000
0007C000
0007E000
000DB000
00099000
00199800
00118800
00318C00
00618600
00618600
00C18300
00818100
01818180
01018080
030180C0
06018060
06018020
0C018030
08018010
18018018
1FFFFFF8
20018004
00018000
00018000
00018000
00018000
ENDCHAR
STARTCHAR 23C5
ENCODING 9157
SWIDTH 1000 0
DWIDTH 32 0
BBX 32 32 0 -4
BITMAP
00018000
00018000
00018000
00018000
00018000
00018000
0003C000
0003C000
0007E000
000DB000
000D9000
00199800
00118800
00318C00
00218400
00618600
00C18300
00818100
01818180
01018080
030180C0
06018060
06018060
0C018030
08018010
18018018
1FFFFFF8
20018004
00018000
00018000
00018000
FFFFFFFF
ENDCHAR
STARTCHAR 23C6
ENCODING 9158
SWIDTH 1000 0
DWIDTH 32 0
BBX 28 32 2 -4
BITMAP
00060000
00060000
00060000
00060000
00060000
00060000
00060000
00060000
00060000
00060000
00060000
00060000
1F860000
70E60000
C01E0000
800E0000
00070010
00078030
000660E0
00061F80
00060000
00060000
00060000
00060000
00060000
00060000
00060000
00060000
00060000
00060000
00060000
00060000
ENDCHAR
STARTCHAR 23C7
ENCODING 9159
SWIDTH 1000 0
DWIDTH 32 0
BBX 32 32 0 -4
BITMAP
FFFFFFFF
00018000
00018000
00018000
00018000
00018000
00018000
00018000
00018000
00018000
00018000
00018000
07E18000
1C198000
30078000
20038000
0001C004
0001E00C
00019830
000187E0
00018000
00018000
00018000
00018000
00018000
00018000
00018000
00018000
00018000
00018000
00018000
00018000
ENDCHAR
STARTCHAR 23C8
ENCODING 9160
SWIDTH 1000 0
DWIDTH 32 0
BBX 32 32 0 -4
BITMAP
00018000
00018000
00018000
00018000
00018000
00018000
00018000
00018000
00018000
00018000
00018000
00018000
07E18000
0C398000
300F8000
20038000
0001C004
0001E00C
00019838
000187E0
00018000
00018000
00018000
00018000
00018000
00018000
00018000
00018000
00018000
00018000
00018000
FFFFFFFF
ENDCHAR
STARTCHAR 23C9
ENCODING 9161
SWIDTH 1000 0
DWIDTH 32 0
BBX 32 32 0 -4
BITMAP
FFFFFFFF
00018000
00018000
00018000
00018000
00018000
00018000
00018000
00018000
00018000
00018000
00018000
00018000
00018000
00018000
00018000
00018000
00018000
00018000
00018000
00018000
00018000
00018000
00018000
00018000
00018000
00018000
00018000
00018000
00018000
00018000
00018000
ENDCHAR
STARTCHAR 23CA
ENCODING 9162
SWIDTH 1000 0
DWIDTH 32 0
BBX 32 32 0 -4
BITMAP
00018000
00018000
00018000
00018000
00018000
00018000
00018000
00018000
00018000
00018000
00018000
00018000
00018000
00018000
00018000
00018000
00018000
00018000
00018000
00018000
00018000
00018000
00018000
00018000
00018000
00018000
00018000
00018000
00018000
00018000
00018000
FFFFFFFF
ENDCHAR
STARTCHAR 23CB
ENCODING 9163
SWIDTH 1000 0
DWIDTH 32 0
BBX 17 32 0 -4
BITMAP
FFFF80
000180
000180
000180
000180
000180
000180
000180
000180
000180
000180
000180
000180
000180
000180
000180
000180
000180
000180
000180
000180
000180
000180
000180
000180
000180
000180
000180
000180
000180
000180
000180
ENDCHAR
STARTCHAR 23CC
ENCODING 9164
SWIDTH 1000 0
DWIDTH 32 0
BBX 17 32 0 -4
BITMAP
000180
000180
000180
000180
000180
000180
000180
000180
000180
000180
000180
000180
000180
000180
000180
000180
000180
000180
000180
000180
000180
000180
000180
000180
000180
000180
000180
000180
000180
000180
000180
FFFF80
ENDCHAR
STARTCHAR 23CE
ENCODING 9166
SWIDTH 1000 0
DWIDTH 32 0
BBX 27 27 2 -2
BITMAP
00007FE0
00004020
00004020
00004020
00004020
00004020
00004020
00004020
00404020
00404020
01C04020
03404020
06404020
0C7FC020
18000060
30000060
C0000060
C0000040
60000040
30000080
18000380
0C7FFE00
06400000
03400000
00C00000
00400000
00400000
ENDCHAR
STARTCHAR 2423
ENCODING 9251
SWIDTH 1000 0
DWIDTH 32 0
BBX 24 7 4 -1
BITMAP
800001
800001
800001
800001
800001
800001
FFFFFF
ENDCHAR
STARTCHAR 2460
ENCODING 9312
SWIDTH 1000 0
DWIDTH 32 0
BBX 28 29 2 -2
BITMAP
003FC000
00C03000
03000C00
04000200
08020100
100E0080
203E0040
40060020
40060020
80060010
80060010
80060010
80060010
80060010
80060010
80060010
80060010
80060010
80060010
80060030
40060020
60060060
20070040
103FC080
08000100
04000200
03000C00
00C03000
003FC000
ENDCHAR
STARTCHAR 2461
ENCODING 9313
SWIDTH 1000 0
DWIDTH 32 0
BBX 28 28 2 -2
BITMAP
003FC000
01C03800
02000C00
0C000300
181F8180
3030C0C0
20606040
40C03020
40E03020
80E03010
80E03010
80007010
8000E010
8000C010
80018010
80030010
80060010
800C0010
80180810
40300820
40601820
20C03840
10FFF880
08000100
04000200
03000C00
00C03000
003FC000
ENDCHAR
STARTCHAR 2462
ENCODING 9314
SWIDTH 1000 0
DWIDTH 32 0
BBX 28 28 2 -2
BITMAP
003FC000
01C03800
06000E00
0C000300
181F8180
3030E0C0
20606040
40C03020
40E03020
80E03010
80003010
80006010
8000C010
800F0010
8001E010
80003010
80003010
80003810
80C03810
41E03820
40C03020
20C07040
1060E080
081F8100
04000200
03000400
00C03800
003FC000
ENDCHAR
STARTCHAR 2463
ENCODING 9315
SWIDTH 1000 0
DWIDTH 32 0
BBX 28 29 2 -2
BITMAP
001F8000
00E07000
01800800
06000600
08000100
10018080
20038040
20078040
40058020
C0098020
80118010
80318010
80618010
80418010
80818010
81018010
83018010
83FFF810
80018010
C0018010
40018020
60018060
20018040
100FF080
08000100
04000200
03000C00
00E03000
003FC000
ENDCHAR
STARTCHAR 2464
ENCODING 9316
SWIDTH 1000 0
DWIDTH 32 0
BBX 28 28 2 -1
BITMAP
003F8000
00E03000
03000C00
04000200
08000100
107FE080
20400040
40400020
40400020
80400010
80400010
804F8010
8070E010
80E07010
80403010
80003010
80003810
80003810
80C03810
40E03020
40C03020
20C06040
1060C080
181F8180
04000200
03000400
00C03800
003FC000
ENDCHAR
STARTCHAR 2465
ENCODING 9317
SWIDTH 1000 0
DWIDTH 32 0
BBX 28 29 2 -2
BITMAP
003F8000
00E07000
03000800
06000600
08000100
10078080
20186040
60307040
40607020
C0606020
80C00010
80C00010
80CF8010
80D0E010
81E06010
81C03010
81C03010
80C03010
80C03010
80C03010
40C03020
40607020
20606040
1030C080
080F8100
04000200
03000400
00C03800
003FC000
ENDCHAR
STARTCHAR 2466
ENCODING 9318
SWIDTH 1000 0
DWIDTH 32 0
BBX 28 28 2 -2
BITMAP
003FC000
00C03000
03000C00
0C000200
18000180
30FFF880
20E01040
40C03020
40802020
80806010
80804010
8000C010
80008010
80018010
80018010
80030010
80030010
80030010
80070010
40060020
40060020
20060040
10060080
18060100
04000200
03000C00
00C03000
003FC000
ENDCHAR
STARTCHAR 2467
ENCODING 9319
SWIDTH 1000 0
DWIDTH 32 0
BBX 28 29 2 -2
BITMAP
003F8000
00E07000
03000800
06000600
08000100
101F8080
2030C040
60606040
40C03020
C0C03020
80C03010
80606010
80304010
801D8010
800F0010
8031C010
8060E010
80C03010
81803010
81803810
41803820
41C03020
20C07040
1070E080
081F8100
04000200
03000400
00C03800
003FC000
ENDCHAR
STARTCHAR 2468
ENCODING 9320
SWIDTH 1000 0
DWIDTH 32 0
BBX 28 29 2 -2
BITMAP
003F8000
00E07000
03000800
06000600
08000100
101F8080
2030C040
60606040
40C02020
C0C03020
80C03010
80C03010
80C03010
80C03810
80607810
8070F810
801F3010
80003010
80003010
80E03010
40E07020
40E06020
2060C040
10618080
081F0100
04000200
03000400
00C03800
003FC000
ENDCHAR
STARTCHAR 2469
ENCODING 9321
SWIDTH 1000 0
DWIDTH 32 0
BBX 28 29 2 -2
BITMAP
003F8000
00E07000
03000C00
06000200
08000100
1080F080
27819840
61830C40
40830C20
C0830620
80870610
80860610
80860610
80860610
80860610
80860610
80860610
80860610
80860610
80830610
40830C20
40830C20
21C19840
17F0F080
08000100
04000200
03000C00
00C03000
003FC000
ENDCHAR
STARTCHAR 246A
ENCODING 9322
SWIDTH 1000 0
DWIDTH 32 0
BBX 28 29 2 -2
BITMAP
003F8000
00E07000
03000C00
06000200
08000100
10401080
27C0F040
61C03040
40C01020
C0C01020
80C01010
80C01010
80C01010
80C01010
80C01010
80C01010
80C01010
80C01010
80C01010
80C01010
40C01020
40C01020
21C03840
17F0FE80
08000100
04000200
03000C00
00C03000
003FC000
ENDCHAR
STARTCHAR 246B
ENCODING 9323
SWIDTH 1000 0
DWIDTH 32 0
BBX 28 28 2 -2
BITMAP
003FC000
00C03000
03000C00
04000200
18000100
1080F080
27831840
41820C20
40870C20
80870C10
80830C10
80800C10
80801C10
80801810
80803010
80803010
80806010
8080C010
80808210
40810220
40830220
21C20640
23E7FE80
14100100
0C000200
03000C00
00C03000
003FC000
ENDCHAR
STARTCHAR 246C
ENCODING 9324
SWIDTH 1000 0
DWIDTH 32 0
BBX 28 29 2 -2
BITMAP
001F8000
00E07000
01800800
06000600
0C000100
1080F080
33831840
25820C40
40860C20
C0870C20
80830C10
80800C10
80800C10
80801810
8080E010
80801810
80800C10
80800610
80800610
80860610
40870620
40860C20
21C31840
17F1F080
08000100
04000200
03000C00
00C03000
003FC000
ENDCHAR
STARTCHAR 246D
ENCODING 9325
SWIDTH 1000 0
DWIDTH 32 0
BBX 28 29 2 -2
BITMAP
003FC000
00C03000
03000C00
04000200
18000100
10801080
27803040
61803060
40805020
8080D010
80809010
80819010
80811010
80831010
80821010
80861010
80841010
80881010
808FFF10
80801010
40801020
40801020
21C03840
17F0FE80
08000100
04000200
03000C00
00C03000
003FC000
ENDCHAR
STARTCHAR 246E
ENCODING 9326
SWIDTH 1000 0
DWIDTH 32 0
BBX 28 28 2 -2
BITMAP
003FC000
01C03800
03000C00
0C000300
18000180
3783FC80
21820040
41820020
41820020
81820010
81820010
8186F010
81871C10
81860C10
81800610
81800610
81800610
81800610
81860610
41870E20
41860C20
21C31840
17F1F080
08000100
04000200
03000C00
00C03000
003FC000
ENDCHAR
STARTCHAR 246F
ENCODING 9327
SWIDTH 1000 0
DWIDTH 32 0
BBX 28 29 2 -2
BITMAP
003F8000
00E07000
03000C00
06000200
08000100
10807880
27808C40
61818C40
41830E20
C1830C20
81820010
81860010
81860010
8186F810
81878C10
81860C10
81860610
81860610
81860610
81860610
41820620
41830C20
21C18C40
17F0F080
08000100
04000200
03000C00
00C03000
003FC000
ENDCHAR
STARTCHAR 2470
ENCODING 9328
SWIDTH 1000 0
DWIDTH 32 0
BBX 28 28 2 -2
BITMAP
003FC000
01C03800
03000C00
0C000300
18000180
3387FE80
25860440
40840420
40840C20
80840810
80801810
80801010
80801010
80803010
80803010
80806010
80806010
80806010
80806010
40806020
4080E020
21C0E040
17F04080
08000100
04000200
03000C00
00C03000
003FC000
ENDCHAR
STARTCHAR 2471
ENCODING 9329
SWIDTH 1000 0
DWIDTH 32 0
BBX 28 29 2 -2
BITMAP
003F8000
00E07000
03000C00
06000200
08000100
1080F080
27838840
61830C40
40820420
C0860420
80830410
80830C10
8081D810
8080F010
8080F010
80813810
80821C10
80860E10
80840610
80840610
40860620
40860620
21C30C40
17F1F080
08000100
04000200
03000C00
00C03000
003FC000
ENDCHAR
STARTCHAR 2472
ENCODING 9330
SWIDTH 1000 0
DWIDTH 32 0
BBX 28 29 2 -2
BITMAP
003F8000
00E07000
03000C00
06000200
08000100
1080F080
27819840
61830C40
40860C20
C0860420
80860610
80860610
80860610
80860610
80830610
80831E10
8080E610
80800610
80800410
80830C10
40870C20
40871820
21C31840
17F1E080
08000100
04000200
03000C00
00C03000
003FC000
ENDCHAR
STARTCHAR 2473
ENCODING 9331
SWIDTH 1000 0
DWIDTH 32 0
BBX 28 28 2 -2
BITMAP
003FC000
00C03000
03000C00
04000200
18000100
11E03880
26304C40
4418C620
46188620
86198610
80198310
80198310
80318310
80318310
80618310
80418310
80C18310
81818310
81098610
43088620
4208C620
24084C40
27F83880
10000100
0C000200
03000C00
00C03000
003FC000
ENDCHAR
STARTCHAR 24D0
ENCODING 9424
SWIDTH 1000 0
DWIDTH 32 0
BBX 28 29 2 -2
BITMAP
003F8000
00E07000
03000800
06000600
08000100
10000080
20000040
60000040
401F0020
C0318020
8060C010
8060C010
8060C010
8001C010
801E4010
80304010
80604010
80C04010
80C04010
8061C810
403E7020
40000020
20000040
10000080
08000100
04000200
03000400
00C03800
003FC000
ENDCHAR
STARTCHAR 24D1
ENCODING 9425
SWIDTH 1000 0
DWIDTH 32 0
BBX 28 29 2 -2
BITMAP
003F8000
00E07000
03000800
06000600
08000100
10E00080
20600040
60200040
40200020
C0200020
8023C010
802C6010
80303010
80203010
80201810
80201810
80201810
80201810
80201810
80201810
40203020
40303020
20286040
1047C080
08000100
04000200
03000400
00C03800
003FC000
ENDCHAR
STARTCHAR 24D2
ENCODING 9426
SWIDTH 1000 0
DWIDTH 32 0
BBX 28 29 2 -2
BITMAP
003F8000
00E07000
03000800
06000600
08000100
10000080
20000040
60000040
400F8020
C030C020
80606010
8060E010
80C06010
80C00010
80C00010
80C00010
80C00010
80E02010
80602010
80304010
401F8020
40000020
20000040
10000080
08000100
04000200
03000400
00C03800
003FC000
ENDCHAR
STARTCHAR 24D3
ENCODING 9427
SWIDTH 1000 0
DWIDTH 32 0
BBX 28 29 2 -2
BITMAP
003F8000
00E07000
03000800
06000600
08000100
1001C080
2002C040
6000C040
4000C020
C000C020
801EC010
8061C010
80C0C010
80C0C010
8180C010
8180C010
8180C010
8180C010
8180C010
8180C010
40C0C020
40C0C020
20617040
101E8080
08000100
04000200
03000400
00C03800
003FC000
ENDCHAR
STARTCHAR 24D4
ENCODING 9428
SWIDTH 1000 0
DWIDTH 32 0
BBX 28 28 2 -2
BITMAP
003FC000
01C03800
02000C00
0C000300
18000180
30000080
20000040
40000020
401F8020
80204010
80606010
80C03010
80C03010
80FFC010
80C00010
80C00010
80E01010
80602010
80384010
401F8020
60000060
20000040
10000080
08000100
04000200
03000C00
00C07000
003FC000
ENDCHAR
STARTCHAR 24D5
ENCODING 9429
SWIDTH 1000 0
DWIDTH 32 0
BBX 28 29 2 -3
BITMAP
003FC000
00C03000
03000C00
04000200
18000100
1003C080
20066040
40046020
400C0020
800C0010
800C0010
807F8010
800C0010
800C0010
800C0010
800C0010
800C0010
800C0010
800C0010
C00C0030
400C0020
600C0060
203F00C0
10000080
08000300
06000600
03001C00
00E07000
003FC000
ENDCHAR
STARTCHAR 24D6
ENCODING 9430
SWIDTH 1000 0
DWIDTH 32 0
BBX 28 29 2 -2
BITMAP
003F8000
00E07000
03000800
06000600
08000100
10000080
20000040
601F7840
40319820
C060C020
8060C010
8060C010
8060C010
80318010
802F0010
80600010
807F8010
803FE010
80C03010
80C01010
40C03020
40607020
203FC040
10000080
08000100
04000200
03000400
00C03800
003FC000
ENDCHAR
STARTCHAR 24D7
ENCODING 9431
SWIDTH 1000 0
DWIDTH 32 0
BBX 28 29 2 -3
BITMAP
003FC000
01C03800
06000C00
0C000300
18200180
31E00080
20600040
40600020
40600020
80600010
8067C010
80686010
80702010
80603010
80603010
80603010
80603010
80603010
80603010
C0603020
40603020
60603060
21F8FCC0
10000080
08000100
06000600
03000C00
00E07000
003FC000
ENDCHAR
STARTCHAR 24D8
ENCODING 9432
SWIDTH 1000 0
DWIDTH 32 0
BBX 28 29 2 -3
BITMAP
003FC000
01C03800
06000C00
0C000300
18000180
30060080
20060040
40060020
40000020
80000010
80020010
801E0010
80060010
80060010
80060010
80060010
80060010
80060010
80060010
C0060020
40060020
60060060
201F80C0
10000080
08000300
06000600
03001C00
00E07000
003FC000
ENDCHAR
STARTCHAR 24D9
ENCODING 9433
SWIDTH 1000 0
DWIDTH 32 0
BBX 28 29 2 -2
BITMAP
003F8000
00E07000
03000800
06000600
08030100
10030080
20030040
60000040
40000020
C0010020
800F0010
80030010
80030010
80030010
80030010
80030010
80030010
80030010
80030010
80030010
40030020
40030020
20630040
10630080
08660100
043C0200
03000400
00C03800
003FC000
ENDCHAR
STARTCHAR 24DA
ENCODING 9434
SWIDTH 1000 0
DWIDTH 32 0
BBX 28 29 2 -2
BITMAP
003F8000
00E07000
03000800
06000600
08000100
10700080
20F00040
60300040
40300020
C0300020
80300010
8031F810
80306010
80308010
80310010
80360010
803E0010
80330010
80318010
8030C030
40306020
40307060
20FCFC40
10000080
08000100
04000200
03000C00
00C03000
003FC000
ENDCHAR
STARTCHAR 24DB
ENCODING 9435
SWIDTH 1000 0
DWIDTH 32 0
BBX 28 29 2 -3
BITMAP
003FC000
01C03800
06000C00
0C000300
18020180
301E0080
20060040
40060020
40060020
80060010
80060010
80060010
80060010
80060010
80060010
80060010
80060010
80060010
80060010
C0060020
40060020
60060060
201F80C0
10000080
08000300
06000600
03001C00
00E07000
003FC000
ENDCHAR
STARTCHAR 24DC
ENCODING 9436
SWIDTH 1000 0
DWIDTH 32 0
BBX 28 29 2 -2
BITMAP
003F8000
00E07000
03000800
06000600
08000100
10000080
20000040
60000040
41387820
CF448C20
83870410
83020410
83020610
83020610
83020610
83020610
83020610
83020610
83020610
83060610
4FCF9FA0
40000020
20000040
10000080
08000100
04000200
03000400
00C03800
003FC000
ENDCHAR
STARTCHAR 24DD
ENCODING 9437
SWIDTH 1000 0
DWIDTH 32 0
BBX 28 29 2 -2
BITMAP
003F8000
00E07000
03000800
06000600
08000100
10000080
20000040
60000040
40278020
C1E86020
80706010
80702010
80603010
80603010
80603010
80603010
80603010
80603010
80603010
80603010
41F8FC20
40000020
20000040
10000080
08000100
04000200
03000400
00C03800
003FC000
ENDCHAR
STARTCHAR 24DE
ENCODING 9438
SWIDTH 1000 0
DWIDTH 32 0
BBX 28 29 2 -2
BITMAP
003F8000
00E07000
03000800
06000600
08000100
10000080
20000040
60000040
400F0020
C030C020
80606010
80606010
80C03010
80C03010
80C03010
80C03010
80C03010
80C03010
80606010
8030C010
401F8020
40000020
20000040
10000080
08000100
04000200
03000400
00C03800
003FC000
ENDCHAR
STARTCHAR 24DF
ENCODING 9439
SWIDTH 1000 0
DWIDTH 32 0
BBX 28 28 2 -2
BITMAP
003FC000
01C03800
06000E00
0C000300
18000180
300000C0
2013C040
40FC6020
C0303020
80301810
80301810
80301810
80301810
80301810
80301810
80303010
80386010
8037C010
80300010
40300020
40300020
20300040
10FC0080
08000100
04000200
03000400
00C03800
003FC000
ENDCHAR
STARTCHAR 24E0
ENCODING 9440
SWIDTH 1000 0
DWIDTH 32 0
BBX 28 28 2 -2
BITMAP
003FC000
01C03800
06000E00
0C000300
18000180
300000C0
203E4040
40614020
C0C0C020
8180C010
8180C010
8180C010
8180C010
8180C010
8180C010
80C0C010
8061C010
803EC010
8000C010
4000C020
4000C020
2000C040
1003F080
08000100
04000200
03000400
00C03800
003FC000
ENDCHAR
STARTCHAR 24E1
ENCODING 9441
SWIDTH 1000 0
DWIDTH 32 0
BBX 28 29 2 -2
BITMAP
003F8000
00E07000
03000800
06000600
08000100
10000080
20000040
60000040
4008E020
C0393020
800A3010
800C0010
80080010
80080010
80080010
80080010
80080010
80080010
80080010
801C0010
403E0020
40000020
20000040
10000080
08000100
04000200
03000400
00C03800
003FC000
ENDCHAR
STARTCHAR 24E2
ENCODING 9442
SWIDTH 1000 0
DWIDTH 32 0
BBX 28 29 2 -2
BITMAP
003F8000
00E07000
03000800
06000600
08000100
10000080
20000040
60000040
401F0020
C030E020
80206010
80202010
80302010
803C0010
800F8010
8003C010
8040E010
80406010
80603010
80606010
40588020
40070020
20000040
10000080
08000100
04000200
03000400
00C03800
003FC000
ENDCHAR
STARTCHAR 24E3
ENCODING 9443
SWIDTH 1000 0
DWIDTH 32 0
BBX 28 29 2 -2
BITMAP
003F8000
00E07000
03000800
06000600
08000100
10000080
30080040
60080040
40080020
C0180020
807FC010
80080010
80080010
80080010
80080010
80080010
80080010
80080010
80080010
80080010
400C2020
400C4020
20078040
10000080
08000100
04000200
03000400
00C03800
003FC000
ENDCHAR
STARTCHAR 24E4
ENCODING 9444
SWIDTH 1000 0
DWIDTH 32 0
BBX 28 29 2 -2
BITMAP
003F8000
00E07000
03000800
06000600
08000100
10000080
20000040
60000040
40602020
C1E1E020
80606010
80606010
80606010
80606010
80606010
80606010
80606010
80606010
80606010
8030A010
401F3820
40004020
20000040
10000080
08000100
04000200
03000400
00C03800
003FC000
ENDCHAR
STARTCHAR 24E5
ENCODING 9445
SWIDTH 1000 0
DWIDTH 32 0
BBX 28 29 2 -2
BITMAP
003FC000
00C03000
03000C00
04000200
08000100
10000080
20000040
60000020
40000020
83F0FC20
80E03010
80602010
80602010
80304010
80304010
80188010
80188010
800D0010
800D0010
80060030
40060020
60040060
20000040
10000080
08000100
04000200
03000C00
00C03000
003FC000
ENDCHAR
STARTCHAR 24E6
ENCODING 9446
SWIDTH 1000 0
DWIDTH 32 0
BBX 28 29 2 -2
BITMAP
003FC000
00C03000
03000C00
04000200
08000100
10000080
20000040
60000020
40000020
8FCF9F20
83020410
81030410
81870810
81850810
80C58810
80C99010
80C89010
8068D010
8070E010
80706030
40306020
60204060
20000040
10000080
08000100
04000200
03000C00
00C03000
003FC000
ENDCHAR
STARTCHAR 24E7
ENCODING 9447
SWIDTH 1000 0
DWIDTH 32 0
BBX 28 28 2 -2
BITMAP
003FC000
01C03800
06000C00
0C000300
18000180
300000C0
20000040
40000020
41F9F820
80606010
8030C010
80198010
800F0010
80060010
80070010
80098010
8010C010
80206010
80C07010
43F9FC20
40000020
20000040
10000080
08000100
04000200
03000400
00C03800
003FC000
ENDCHAR
STARTCHAR 24E8
ENCODING 9448
SWIDTH 1000 0
DWIDTH 32 0
BBX 28 29 2 -3
BITMAP
003FC000
01C03800
06000C00
0C000300
18000180
30000080
20000040
41F8FC20
40603020
80303010
80302010
80186010
800C4010
800C4010
80068010
80068010
80030010
80030010
80020010
C0020020
40640020
606C0060
207800C0
10000080
08000300
06000600
03001C00
00E07000
003FC000
ENDCHAR
STARTCHAR 24E9
ENCODING 9449
SWIDTH 1000 0
DWIDTH 32 0
BBX 28 28 2 -2
BITMAP
003FC000
01C03800
06000C00
0C000300
18000180
300000C0
20000040
40000020
407FE020
8060E010
8040C010
80418010
80030010
80060010
800C0010
80181010
80181010
80303010
80607010
40FFF020
40000020
20000040
10000080
08000100
04000200
03000400
00C03800
003FC000
ENDCHAR
STARTCHAR 24EB
ENCODING 9451
SWIDTH 1000 0
DWIDTH 32 0
BBX 28 29 2 -2
BITMAP
003F8000
00FFF000
03FFFC00
07FFFE00
0FFFFF00
1F7FF780
387F07C0
7E7FE7C0
7E7FE7E0
FE7FE7E0
FE7FE7F0
FE7FE7F0
FE7FE7F0
FE7FE7F0
FE7FE7F0
FE7FE7F0
FE7FE7F0
FE7FE7F0
FE7FE7F0
FE7FE7F0
7E7FE7E0
7E7FE7E0
3E7FE7C0
180F0180
0FFFFF00
07FFFE00
03FFFC00
00FFF000
003FC000
ENDCHAR
STARTCHAR 24EC
ENCODING 9452
SWIDTH 1000 0
DWIDTH 32 0
BBX 28 29 2 -2
BITMAP
003FC000
00FFF000
03FFFC00
07FFFE00
0FFFFF00
1E7F0F80
387EE3C0
7E7CF3E0
7E7CF9E0
FE7CF9F0
FE7CF9F0
FE7FF3F0
FE7FF3F0
FE7FE7F0
FE7FE7F0
FE7FCFF0
FE7F9FF0
FE7FBFF0
FE7F7DF0
FE7E7DF0
7E7EFDE0
7E7DF9E0
3E3801C0
18180180
0FFFFF00
07FFFE00
03FFFC00
00FFF000
003FC000
ENDCHAR
STARTCHAR 24ED
ENCODING 9453
SWIDTH 1000 0
DWIDTH 32 0
BBX 28 29 2 -2
BITMAP
001F8000
00FFF000
01FFF800
07FFFE00
0FFFFF00
1FFF0F80
387EF7C0
3C7CF3C0
7E7DF9E0
FE7CF9E0
FE7CF9F0
FE7FFBF0
FE7FF3F0
FE7FE7F0
FE7F1FF0
FE7FE7F0
FE7FF3F0
FE7FF9F0
FE7FF9F0
FE7CF9F0
7E78F9E0
7E79F9E0
3E7CF3C0
181F0F80
0FFFFF00
07FFFE00
03FFFC00
00FFF000
003FC000
ENDCHAR
STARTCHAR 24EE
ENCODING 9454
SWIDTH 1000 0
DWIDTH 32 0
BBX 28 29 2 -2
BITMAP
003FC000
00FFF000
03FFFC00
07FFFE00
1FFFFF00
1E7FE780
387FC7C0
7E7FC7E0
7E7FA7E0
FE7FA7F0
FE7F67F0
FE7F67F0
FE7EE7F0
FE7EE7F0
FE7DE7F0
FE7DE7F0
FE7BE7F0
FE7BE7F0
FE7000F0
FE7FE7F0
7E7FE7E0
7E7FE7E0
3E7FE7C0
181F0180
0FFFFF00
07FFFE00
03FFFC00
00FFF000
003FC000
ENDCHAR
STARTCHAR 24EF
ENCODING 9455
SWIDTH 1000 0
DWIDTH 32 0
BBX 28 28 2 -2
BITMAP
003FC000
01FFF800
03FFFC00
0FFFFF00
1FFFFF80
387C0380
3E7DFFC0
7E7DFFE0
7E7DFFE0
FE7DFFF0
FE7DFFF0
FE7D07F0
FE7E73F0
FE7DF9F0
FE7FF9F0
FE7FF9F0
FE7FF9F0
FE7FF9F0
FE78F9F0
7E78F9E0
7E79F3E0
3E7CE3C0
181F0F80
1FFFFF00
07FFFE00
03FFFC00
00FFF000
003FC000
ENDCHAR
STARTCHAR 24F0
ENCODING 9456
SWIDTH 1000 0
DWIDTH 32 0
BBX 28 29 2 -2
BITMAP
003F8000
00FFF000
03FFFC00
07FFFE00
0FFFFF00
1F7F8780
387F33C0
7E7E79C0
7E7EF1E0
FE7CF1E0
FE7CFFF0
FE7CFFF0
FE7DFFF0
FE7987F0
FE7A73F0
FE78F9F0
FE79F9F0
FE79F9F0
FE7DF9F0
FE7CF9F0
7E7CF9E0
7E7CF9E0
3E7E73C0
181F0780
0FFFFF00
07FFFE00
03FFFC00
00FFF000
003FC000
ENDCHAR
STARTCHAR 24F1
ENCODING 9457
SWIDTH 1000 0
DWIDTH 32 0
BBX 28 28 2 -2
BITMAP
003FC000
01FFF800
03FFFC00
0FFFFF00
1FFFFF80
38780180
3E79FDC0
7E79FBE0
7E7BFBE0
FE7BF7F0
FE7FF7F0
FE7FE7F0
FE7FEFF0
FE7FEFF0
FE7FCFF0
FE7FCFF0
FE7FDFF0
FE7F9FF0
FE7F9FF0
7E7F9FE0
7E7F9FE0
3E7F9FC0
181F9F80
1FFFFF00
07FFFE00
03FFFC00
00FFF000
003FC000
ENDCHAR
STARTCHAR 24F2
ENCODING 9458
SWIDTH 1000 0
DWIDTH 32 0
BBX 28 29 2 -2
BITMAP
003F8000
00FFF000
03FFFC00
07FFFE00
0FFFFF00
1F7F0F80
387E73C0
7E7CFBC0
7E7CF9E0
FE7CF9E0
FE7CF9F0
FE7CFBF0
FE7E77F0
FE7F0FF0
FE7F9FF0
FE7E67F0
FE7CF3F0
FE79F9F0
FE79F9F0
FE79F9F0
7E79F9E0
7E7DF9E0
3E7CF3C0
181F0780
0FFFFF00
07FFFE00
03FFFC00
00FFF000
003FC000
ENDCHAR
STARTCHAR 24F3
ENCODING 9459
SWIDTH 1000 0
DWIDTH 32 0
BBX 28 29 2 -2
BITMAP
003F8000
00FFF000
03FFFC00
07FFFE00
0FFFFF00
1F7F0F80
387E67C0
7E7CF3C0
7E7CF9E0
FE79F9E0
FE79F9F0
FE79F9F0
FE79F9F0
FE7CF9F0
FE7CF9F0
FE7E79F0
FE7F09F0
FE7FF9F0
FE7FF9F0
FE7CF9F0
7E7CF3E0
7E7CF3E0
3E7CE7C0
181E0F80
0FFFFF00
07FFFE00
03FFFC00
00FFF000
003FC000
ENDCHAR
STARTCHAR 24F4
ENCODING 9460
SWIDTH 1000 0
DWIDTH 32 0
BBX 28 29 2 -2
BITMAP
003FC000
00FFF000
03FFFC00
07FFFE00
0FFFFF00
1C1FC780
39CF99C0
73E739E0
71E73DE0
F9E73CF0
FFE73CF0
FFCE7CF0
FFCE7CF0
FFDE7CF0
FF9E7CF0
FF3E7CF0
FF7E7CF0
FE7E7CF0
FEF73CF0
FDF73CF0
7BF73DE0
7BE739E0
300799C0
1007C780
0FFFFF00
07FFFE00
03FFFC00
00FFF000
003FC000
ENDCHAR
STARTCHAR 24F5
ENCODING 9461
SWIDTH 1000 0
DWIDTH 32 0
BBX 30 30 1 -3
BITMAP
003FE000
00C01800
031FC600
04703980
09800440
13010320
261F01A0
2C030090
48030048
50030028
90030028
A0030024
A0030014
A0030014
A0030014
A0030014
A0030014
A0030014
A0030024
50030028
50030028
68030050
24038090
141FE1A0
1B000340
0D800680
06703900
018FC600
00601800
001FE000
ENDCHAR
STARTCHAR 24F6
ENCODING 9462
SWIDTH 1000 0
DWIDTH 32 0
BBX 30 31 1 -3
BITMAP
001FE000
00601800
01800600
021FC100
0CE038C0
09000440
120FC320
24186090
28303090
50601848
50701828
90301824
A0003824
A0003014
A0007014
A000E014
A000C014
A0038014
A0060014
A00C0828
50180828
50100828
28200850
247FF890
167FF9A0
0B000340
0D800680
02703900
018FC600
00601800
001FE000
ENDCHAR
STARTCHAR 24F7
ENCODING 9463
SWIDTH 1000 0
DWIDTH 32 0
BBX 30 30 1 -3
BITMAP
001FE000
00601800
019FC600
06703980
0D8004C0
1B0FC360
161861A0
2C303090
48601848
50701828
50301828
A0001824
A0003014
A0006014
A0078014
A000F014
A0001814
A0001814
A0001C24
90601C28
50701828
48603850
24307090
140FC1A0
1B000340
0D8006C0
06703900
018FC600
00601800
001FE000
ENDCHAR
STARTCHAR 24F8
ENCODING 9464
SWIDTH 1000 0
DWIDTH 32 0
BBX 30 30 1 -3
BITMAP
003FE000
00C01800
031FC600
04E03980
09000440
1200C320
2401C0A0
2803C090
5002C048
5004C028
900CC028
A018C024
A030C014
A020C014
A040C014
A0C0C014
A180C014
A1FFFC14
A000C024
5000C028
5000C028
6800C050
2400C090
1607F9A0
1B000340
0D800680
06703900
018FC600
00601800
001FE000
ENDCHAR
STARTCHAR 24F9
ENCODING 9465
SWIDTH 1000 0
DWIDTH 32 0
BBX 30 30 1 -3
BITMAP
001FE000
00601800
019FC600
06703980
0D8004C0
1B000360
163FF1A0
2C3FF090
48200050
50200028
50200028
A0200024
A027C014
A0287014
A0303014
A0201814
A0001814
A0001C14
A0001C24
90701828
50701828
48603848
24603090
143861A0
1B0FC360
0D8006C0
06703980
018FC600
00601C00
001FE000
ENDCHAR
STARTCHAR 24FA
ENCODING 9466
SWIDTH 1000 0
DWIDTH 32 0
BBX 30 30 1 -3
BITMAP
001FE000
00601800
019FC600
06703980
0D8004C0
1B03C360
160C31A0
2C183090
48303848
50303028
50700028
A0600024
A063C014
A06C7014
A0703014
A0601814
A0601814
A0601814
A0601824
90601828
50303828
48303050
24186090
1407C1A0
1B000340
0D8006C0
06703900
018FC600
00601800
001FE000
ENDCHAR
STARTCHAR 24FB
ENCODING 9467
SWIDTH 1000 0
DWIDTH 32 0
BBX 30 30 1 -3
BITMAP
001FE000
00601800
019FC600
06703980
0D8004C0
1B000360
163FFDA0
2C3FF890
48300850
50201028
50203028
A0402024
A0406014
A0004014
A000C014
A000C014
A0018014
A0018014
A0018024
90030028
50030028
48030050
24030090
140301A0
1B030360
0D8006C0
06703980
018FC600
00601800
001FE000
ENDCHAR
STARTCHAR 24FC
ENCODING 9468
SWIDTH 1000 0
DWIDTH 32 0
BBX 30 30 1 -3
BITMAP
001FE000
00601800
019FC600
06703980
0D8004C0
1B0F8360
161861A0
2C303090
48201048
50601828
50301028
A0303024
A0182014
A00EC014
A0058014
A0186014
A0203014
A0401814
A0C01824
90C01828
50601828
48603850
24387090
140FC1A0
1B000340
0D8006C0
06703900
018FC600
00601800
001FE000
ENDCHAR
STARTCHAR 24FD
ENCODING 9469
SWIDTH 1000 0
DWIDTH 32 0
BBX 30 30 1 -3
BITMAP
001FE000
00601800
019FC600
06703980
0D8004C0
1B078360
161861A0
2C303090
48303048
50601828
50601828
A0601824
A0601814
A0601814
A0303814
A0187814
A00F9814
A0001814
A0001824
90303028
50703028
48306050
2430C090
140F81A0
1B000340
0D8006C0
06703900
018FC600
00601800
001FE000
ENDCHAR
STARTCHAR 24FE
ENCODING 9470
SWIDTH 1000 0
DWIDTH 32 0
BBX 30 30 1 -3
BITMAP
001FE000
00601800
019FC600
06703980
0D8004C0
1B000340
166079A0
2DE0CC90
48618650
50618628
50618628
A0630324
A0630314
A0630314
A0630314
A0630314
A0630314
A0630314
A0630324
90618628
50618628
48618648
2460CC90
15F879A0
1B000360
0D8006C0
06703980
018FC600
00601C00
001FE000
ENDCHAR
STARTCHAR 2500
ENCODING 9472
SWIDTH 1000 0
DWIDTH 32 0
BBX 32 1 0 12
BITMAP
FFFFFFFF
ENDCHAR
STARTCHAR 2501
ENCODING 9473
SWIDTH 1000 0
DWIDTH 32 0
BBX 32 4 0 10
BITMAP
FFFFFFFF
FFFFFFFF
FFFFFFFF
FFFFFFFF
ENDCHAR
STARTCHAR 2502
ENCODING 9474
SWIDTH 1000 0
DWIDTH 32 0
BBX 2 32 15 -4
BITMAP
C0
C0
C0
C0
C0
C0
C0
C0
C0
C0
C0
C0
C0
C0
C0
C0
C0
C0
C0
C0
C0
C0
C0
C0
C0
C0
C0
C0
C0
C0
C0
C0
ENDCHAR
STARTCHAR 2503
ENCODING 9475
SWIDTH 1000 0
DWIDTH 32 0
BBX 4 32 14 -4
BITMAP
F0
F0
F0
F0
F0
F0
F0
F0
F0
F0
F0
F0
F0
F0
F0
F0
F0
F0
F0
F0
F0
F0
F0
F0
F0
F0
F0
F0
F0
F0
F0
F0
ENDCHAR
STARTCHAR 250C
ENCODING 9484
SWIDTH 1000 0
DWIDTH 32 0
BBX 17 17 15 -4
BITMAP
FFFF80
C00000
C00000
C00000
C00000
C00000
C00000
C00000
C00000
C00000
C00000
C00000
C00000
C00000
C00000
C00000
C00000
ENDCHAR
STARTCHAR 250F
ENCODING 9487
SWIDTH 1000 0
DWIDTH 32 0
BBX 18 18 14 -4
BITMAP
FFFFC0
FFFFC0
FFFFC0
FFFFC0
F00000
F00000
F00000
F00000
F00000
F00000
F00000
F00000
F00000
F00000
F00000
F00000
F00000
F00000
ENDCHAR
STARTCHAR 2510
ENCODING 9488
SWIDTH 1000 0
DWIDTH 32 0
BBX 17 17 0 -4
BITMAP
FFFF80
000180
000180
000180
000180
000180
000180
000180
000180
000180
000180
000180
000180
000180
000180
000180
000180
ENDCHAR
STARTCHAR 2513
ENCODING 9491
SWIDTH 1000 0
DWIDTH 32 0
BBX 18 18 0 -4
BITMAP
FFFFC0
FFFFC0
FFFFC0
FFFFC0
0003C0
0003C0
0003C0
0003C0
0003C0
0003C0
0003C0
0003C0
0003C0
0003C0
0003C0
0003C0
0003C0
0003C0
ENDCHAR
STARTCHAR 2514
ENCODING 9492
SWIDTH 1000 0
DWIDTH 32 0
BBX 17 16 15 12
BITMAP
C00000
C00000
C00000
C00000
C00000
C00000
C00000
C00000
C00000
C00000
C00000
C00000
C00000
C00000
C00000
FFFF80
ENDCHAR
STARTCHAR 2517
ENCODING 9495
SWIDTH 1000 0
DWIDTH 32 0
BBX 18 18 14 10
BITMAP
F00000
F00000
F00000
F00000
F00000
F00000
F00000
F00000
F00000
F00000
F00000
F00000
F00000
F00000
FFFFC0
FFFFC0
FFFFC0
FFFFC0
ENDCHAR
STARTCHAR 2518
ENCODING 9496
SWIDTH 1000 0
DWIDTH 32 0
BBX 17 16 0 12
BITMAP
000180
000180
000180
000180
000180
000180
000180
000180
000180
000180
000180
000180
000180
000180
000180
FFFF80
ENDCHAR
STARTCHAR 251B
ENCODING 9499
SWIDTH 1000 0
DWIDTH 32 0
BBX 18 18 0 10
BITMAP
0003C0
0003C0
0003C0
0003C0
0003C0
0003C0
0003C0
0003C0
0003C0
0003C0
0003C0
0003C0
0003C0
0003C0
FFFFC0
FFFFC0
FFFFC0
FFFFC0
ENDCHAR
STARTCHAR 251C
ENCODING 9500
SWIDTH 1000 0
DWIDTH 32 0
BBX 17 32 15 -4
BITMAP
C00000
C00000
C00000
C00000
C00000
C00000
C00000
C00000
C00000
C00000
C00000
C00000
C00000
C00000
C00000
FFFF80
C00000
C00000
C00000
C00000
C00000
C00000
C00000
C00000
C00000
C00000
C00000
C00000
C00000
C00000
C00000
C00000
ENDCHAR
STARTCHAR 251D
ENCODING 9501
SWIDTH 1000 0
DWIDTH 32 0
BBX 17 32 15 -4
BITMAP
C00000
C00000
C00000
C00000
C00000
C00000
C00000
C00000
C00000
C00000
C00000
C00000
C00000
C00000
FFFF80
FFFF80
FFFF80
FFFF80
C00000
C00000
C00000
C00000
C00000
C00000
C00000
C00000
C00000
C00000
C00000
C00000
C00000
C00000
ENDCHAR
STARTCHAR 2520
ENCODING 9504
SWIDTH 1000 0
DWIDTH 32 0
BBX 18 32 14 -4
BITMAP
F00000
F00000
F00000
F00000
F00000
F00000
F00000
F00000
F00000
F00000
F00000
F00000
F00000
F00000
F00000
FFFFC0
F00000
F00000
F00000
F00000
F00000
F00000
F00000
F00000
F00000
F00000
F00000
F00000
F00000
F00000
F00000
F00000
ENDCHAR
STARTCHAR 2523
ENCODING 9507
SWIDTH 1000 0
DWIDTH 32 0
BBX 18 32 14 -4
BITMAP
F00000
F00000
F00000
F00000
F00000
F00000
F00000
F00000
F00000
F00000
F00000
F00000
F00000
F00000
FFFFC0
FFFFC0
FFFFC0
FFFFC0
F00000
F00000
F00000
F00000
F00000
F00000
F00000
F00000
F00000
F00000
F00000
F00000
F00000
F00000
ENDCHAR
STARTCHAR 2524
ENCODING 9508
SWIDTH 1000 0
DWIDTH 32 0
BBX 17 32 0 -4
BITMAP
000180
000180
000180
000180
000180
000180
000180
000180
000180
000180
000180
000180
000180
000180
000180
FFFF80
000180
000180
000180
000180
000180
000180
000180
000180
000180
000180
000180
000180
000180
000180
000180
000180
ENDCHAR
STARTCHAR 2525
ENCODING 9509
SWIDTH 1000 0
DWIDTH 32 0
BBX 17 32 0 -4
BITMAP
000180
000180
000180
000180
000180
000180
000180
000180
000180
000180
000180
000180
000180
000180
FFFF80
FFFF80
FFFF80
FFFF80
000180
000180
000180
000180
000180
000180
000180
000180
000180
000180
000180
000180
000180
000180
ENDCHAR
STARTCHAR 2528
ENCODING 9512
SWIDTH 1000 0
DWIDTH 32 0
BBX 18 32 0 -4
BITMAP
0003C0
0003C0
0003C0
0003C0
0003C0
0003C0
0003C0
0003C0
0003C0
0003C0
0003C0
0003C0
0003C0
0003C0
0003C0
FFFFC0
0003C0
0003C0
0003C0
0003C0
0003C0
0003C0
0003C0
0003C0
0003C0
0003C0
0003C0
0003C0
0003C0
0003C0
0003C0
0003C0
ENDCHAR
STARTCHAR 252B
ENCODING 9515
SWIDTH 1000 0
DWIDTH 32 0
BBX 18 32 0 -4
BITMAP
0003C0
0003C0
0003C0
0003C0
0003C0
0003C0
0003C0
0003C0
0003C0
0003C0
0003C0
0003C0
0003C0
0003C0
FFFFC0
FFFFC0
FFFFC0
FFFFC0
0003C0
0003C0
0003C0
0003C0
0003C0
0003C0
0003C0
0003C0
0003C0
0003C0
0003C0
0003C0
0003C0
0003C0
ENDCHAR
STARTCHAR 252C
ENCODING 9516
SWIDTH 1000 0
DWIDTH 32 0
BBX 32 17 0 -4
BITMAP
FFFFFFFF
00018000
00018000
00018000
00018000
00018000
00018000
00018000
00018000
00018000
00018000
00018000
00018000
00018000
00018000
00018000
00018000
ENDCHAR
STARTCHAR 252F
ENCODING 9519
SWIDTH 1000 0
DWIDTH 32 0
BBX 32 18 0 -4
BITMAP
FFFFFFFF
FFFFFFFF
FFFFFFFF
FFFFFFFF
00018000
00018000
00018000
00018000
00018000
00018000
00018000
00018000
00018000
00018000
00018000
00018000
00018000
00018000
ENDCHAR
STARTCHAR 2530
ENCODING 9520
SWIDTH 1000 0
DWIDTH 32 0
BBX 32 17 0 -4
BITMAP
FFFFFFFF
0003C000
0003C000
0003C000
0003C000
0003C000
0003C000
0003C000
0003C000
0003C000
0003C000
0003C000
0003C000
0003C000
0003C000
0003C000
0003C000
ENDCHAR
STARTCHAR 2533
ENCODING 9523
SWIDTH 1000 0
DWIDTH 32 0
BBX 32 18 0 -4
BITMAP
FFFFFFFF
FFFFFFFF
FFFFFFFF
FFFFFFFF
0003C000
0003C000
0003C000
0003C000
0003C000
0003C000
0003C000
0003C000
0003C000
0003C000
0003C000
0003C000
0003C000
0003C000
ENDCHAR
STARTCHAR 2534
ENCODING 9524
SWIDTH 1000 0
DWIDTH 32 0
BBX 32 16 0 12
BITMAP
00018000
00018000
00018000
00018000
00018000
00018000
00018000
00018000
00018000
00018000
00018000
00018000
00018000
00018000
00018000
FFFFFFFF
ENDCHAR
STARTCHAR 2537
ENCODING 9527
SWIDTH 1000 0
DWIDTH 32 0
BBX 32 18 0 10
BITMAP
00018000
00018000
00018000
00018000
00018000
00018000
00018000
00018000
00018000
00018000
00018000
00018000
00018000
00018000
FFFFFFFF
FFFFFFFF
FFFFFFFF
FFFFFFFF
ENDCHAR
STARTCHAR 2538
ENCODING 9528
SWIDTH 1000 0
DWIDTH 32 0
BBX 32 16 0 12
BITMAP
0003C000
0003C000
0003C000
0003C000
0003C000
0003C000
0003C000
0003C000
0003C000
0003C000
0003C000
0003C000
0003C000
0003C000
0003C000
FFFFFFFF
ENDCHAR
STARTCHAR 253B
ENCODING 9531
SWIDTH 1000 0
DWIDTH 32 0
BBX 32 18 0 10
BITMAP
0003C000
0003C000
0003C000
0003C000
0003C000
0003C000
0003C000
0003C000
0003C000
0003C000
0003C000
0003C000
0003C000
0003C000
FFFFFFFF
FFFFFFFF
FFFFFFFF
FFFFFFFF
ENDCHAR
STARTCHAR 253C
ENCODING 9532
SWIDTH 1000 0
DWIDTH 32 0
BBX 32 32 0 -4
BITMAP
00018000
00018000
00018000
00018000
00018000
00018000
00018000
00018000
00018000
00018000
00018000
00018000
00018000
00018000
00018000
FFFFFFFF
00018000
00018000
00018000
00018000
00018000
00018000
00018000
00018000
00018000
00018000
00018000
00018000
00018000
00018000
00018000
00018000
ENDCHAR
STARTCHAR 253F
ENCODING 9535
SWIDTH 1000 0
DWIDTH 32 0
BBX 32 32 0 -4
BITMAP
00018000
00018000
00018000
00018000
00018000
00018000
00018000
00018000
00018000
00018000
00018000
00018000
00018000
00018000
FFFFFFFF
FFFFFFFF
FFFFFFFF
FFFFFFFF
00018000
00018000
00018000
00018000
00018000
00018000
00018000
00018000
00018000
00018000
00018000
00018000
00018000
00018000
ENDCHAR
STARTCHAR 2542
ENCODING 9538
SWIDTH 1000 0
DWIDTH 32 0
BBX 32 32 0 -4
BITMAP
0003C000
0003C000
0003C000
0003C000
0003C000
0003C000
0003C000
0003C000
0003C000
0003C000
0003C000
0003C000
0003C000
0003C000
0003C000
FFFFFFFF
0003C000
0003C000
0003C000
0003C000
0003C000
0003C000
0003C000
0003C000
0003C000
0003C000
0003C000
0003C000
0003C000
0003C000
0003C000
0003C000
ENDCHAR
STARTCHAR 254B
ENCODING 9547
SWIDTH 1000 0
DWIDTH 32 0
BBX 32 32 0 -4
BITMAP
0003C000
0003C000
0003C000
0003C000
0003C000
0003C000
0003C000
0003C000
0003C000
0003C000
0003C000
0003C000
0003C000
0003C000
FFFFFFFF
FFFFFFFF
FFFFFFFF
FFFFFFFF
0003C000
0003C000
0003C000
0003C000
0003C000
0003C000
0003C000
0003C000
0003C000
0003C000
0003C000
0003C000
0003C000
0003C000
ENDCHAR
STARTCHAR 25A0
ENCODING 9632
SWIDTH 1000 0
DWIDTH 32 0
BBX 24 24 4 0
BITMAP
FFFFFF
FFFFFF
FFFFFF
FFFFFF
FFFFFF
FFFFFF
FFFFFF
FFFFFF
FFFFFF
FFFFFF
FFFFFF
FFFFFF
FFFFFF
FFFFFF
FFFFFF
FFFFFF
FFFFFF
FFFFFF
FFFFFF
FFFFFF
FFFFFF
FFFFFF
FFFFFF
FFFFFF
ENDCHAR
STARTCHAR 25A1
ENCODING 9633
SWIDTH 1000 0
DWIDTH 32 0
BBX 24 24 4 0
BITMAP
FFFFFF
800001
800001
800001
800001
800001
800001
800001
800001
800001
800001
800001
800001
800001
800001
800001
800001
800001
800001
800001
800001
800001
800001
FFFFFF
ENDCHAR
STARTCHAR 25B1
ENCODING 9649
SWIDTH 500 0
DWIDTH 16 0
BBX 14 6 1 9
BITMAP
1FFC
1008
2010
2010
4020
FFE0
ENDCHAR
STARTCHAR 25B2
ENCODING 9650
SWIDTH 1000 0
DWIDTH 32 0
BBX 26 25 3 0
BITMAP
00080000
000C0000
000C0000
001E0000
001E0000
003F0000
003F0000
007F8000
007F8000
00FFC000
00FFC000
01FFE000
01FFE000
03FFF000
03FFF000
07FFF800
0FFFFC00
0FFFFC00
1FFFFE00
1FFFFE00
3FFFFF00
3FFFFF00
7FFFFF80
7FFFFF80
FFFFFFC0
ENDCHAR
STARTCHAR 25B3
ENCODING 9651
SWIDTH 1000 0
DWIDTH 32 0
BBX 26 25 3 0
BITMAP
00080000
000C0000
000C0000
001E0000
00120000
00330000
00210000
00618000
00408000
00C0C000
00804000
01806000
01002000
03003000
02001000
06001800
04000800
0C000C00
18000600
18000600
30000300
30000300
60000180
60000180
FFFFFFC0
ENDCHAR
STARTCHAR 25B6
ENCODING 9654
SWIDTH 500 0
DWIDTH 16 0
BBX 13 18 2 3
BITMAP
8000
C000
F000
F800
FE00
FF00
FFC0
FFE0
FFF8
FFF0
FFE0
FF80
FF00
FC00
F800
E000
C000
8000
ENDCHAR
STARTCHAR 25B7
ENCODING 9655
SWIDTH 500 0
DWIDTH 16 0
BBX 13 18 2 3
BITMAP
8000
C000
F000
9800
8E00
8300
81C0
8060
8038
8030
8060
8180
8300
8C00
9800
E000
C000
8000
ENDCHAR
STARTCHAR 25BC
ENCODING 9660
SWIDTH 1000 0
DWIDTH 32 0
BBX 26 25 3 -1
BITMAP
FFFFFFC0
7FFFFF80
7FFFFF80
3FFFFF00
3FFFFF00
1FFFFE00
1FFFFE00
0FFFFC00
0FFFFC00
07FFF800
03FFF800
03FFF000
01FFE000
01FFE000
00FFC000
00FFC000
007F8000
007F8000
003F0000
003F0000
001E0000
001E0000
000C0000
000C0000
00080000
ENDCHAR
STARTCHAR 25BD
ENCODING 9661
SWIDTH 1000 0
DWIDTH 32 0
BBX 26 25 3 -1
BITMAP
FFFFFFC0
60000180
60000180
30000300
30000300
18000600
18000600
0C000C00
04000C00
06001800
02001000
03003000
01002000
01806000
00804000
00C0C000
00408000
00618000
00210000
00330000
00120000
001E0000
000C0000
000C0000
00080000
ENDCHAR
STARTCHAR 25C0
ENCODING 9664
SWIDTH 500 0
DWIDTH 16 0
BBX 13 18 1 3
BITMAP
0008
0018
0078
00F8
03F8
07F8
1FF8
3FF8
FFF8
7FF8
3FF8
0FF8
07F8
01F8
00F8
0038
0018
0008
ENDCHAR
STARTCHAR 25C1
ENCODING 9665
SWIDTH 500 0
DWIDTH 16 0
BBX 13 18 1 3
BITMAP
0008
0018
0078
00C8
0388
0608
1C08
3008
E008
6008
3808
0C08
0708
0188
00E8
0038
0018
0008
ENDCHAR
STARTCHAR 25C6
ENCODING 9670
SWIDTH 1000 0
DWIDTH 32 0
BBX 28 29 2 -2
BITMAP
00040000
00060000
000F0000
001F8000
003FC000
007FE000
00FFF000
01FFF800
03FFFC00
07FFFE00
0FFFFF00
1FFFFF80
3FFFFFC0
7FFFFFE0
FFFFFFF0
FFFFFFF0
7FFFFFE0
3FFFFFC0
1FFFFF80
0FFFFF00
07FFFE00
03FFFC00
01FFF800
00FFF000
007FE000
003FC000
001F8000
000F0000
00060000
ENDCHAR
STARTCHAR 25C7
ENCODING 9671
SWIDTH 1000 0
DWIDTH 32 0
BBX 28 29 2 -2
BITMAP
00040000
00060000
000F0000
00198000
0030C000
00606000
00C03000
01801800
03000C00
06000600
0C000300
18000180
300000C0
60000060
C0000030
C0000030
60000060
300000C0
18000180
0C000300
06000600
03000C00
01801800
00C03000
00606000
0030C000
00198000
000F0000
00060000
ENDCHAR
STARTCHAR 25C9
ENCODING 9673
SWIDTH 500 0
DWIDTH 16 0
BBX 14 14 1 5
BITMAP
0FC0
1060
6010
4788
8FCC
9FE4
9FE4
9FE4
9FE4
CFC4
4788
6010
1860
0FC0
ENDCHAR
STARTCHAR 25CB
ENCODING 9675
SWIDTH 1000 0
DWIDTH 32 0
BBX 26 27 3 -1
BITMAP
007F0000
01C0E000
06001800
0C000C00
18000600
30000300
60000100
40000080
40000080
C0000040
80000040
80000040
80000040
80000040
80000040
80000040
80000040
800000C0
40000080
40000080
20000100
30000300
18000600
0C000C00
06001800
01C0E000
007F8000
ENDCHAR
STARTCHAR 25CE
ENCODING 9678
SWIDTH 1000 0
DWIDTH 32 0
BBX 27 27 3 -1
BITMAP
007F8000
01C0E000
06001800
0C000C00
18000600
30000300
603F0100
40E1C080
C1806080
83003040
82001040
86001840
84000840
84000860
84000860
84000840
86001840
82001040
C30030C0
41806080
60C1C180
303F0300
18000200
0C000C00
06001800
03C0E000
007F8000
ENDCHAR
STARTCHAR 25CF
ENCODING 9679
SWIDTH 1000 0
DWIDTH 32 0
BBX 26 27 3 -1
BITMAP
007F0000
01FFE000
07FFF800
0FFFFC00
1FFFFE00
3FFFFF00
7FFFFF00
7FFFFF80
7FFFFF80
FFFFFFC0
FFFFFFC0
FFFFFFC0
FFFFFFC0
FFFFFFC0
FFFFFFC0
FFFFFFC0
FFFFFFC0
FFFFFFC0
7FFFFF80
7FFFFF80
3FFFFF00
3FFFFF00
1FFFFE00
0FFFFC00
07FFF800
01FFE000
007F8000
ENDCHAR
STARTCHAR 25D0
ENCODING 9680
SWIDTH 500 0
DWIDTH 16 0
BBX 14 14 1 5
BITMAP
0FC0
1E20
7E18
7E08
FE04
FE04
FE04
FE04
FE04
FE0C
7E08
7E10
1E60
0FC0
ENDCHAR
STARTCHAR 25D1
ENCODING 9681
SWIDTH 500 0
DWIDTH 16 0
BBX 14 14 1 5
BITMAP
0FC0
11E0
21F0
41F8
81FC
81FC
81FC
81FC
81FC
C1FC
41F8
61F8
19E0
0FC0
ENDCHAR
STARTCHAR 25D2
ENCODING 9682
SWIDTH 500 0
DWIDTH 16 0
BBX 14 14 1 5
BITMAP
0FC0
1860
2018
4008
C00C
8004
8004
FFFC
FFFC
FFFC
7FF8
7FF0
1FF0
0FC0
ENDCHAR
STARTCHAR 25D3
ENCODING 9683
SWIDTH 500 0
DWIDTH 16 0
BBX 14 14 1 5
BITMAP
0FC0
1FE0
3FF0
7FF8
FFFC
FFFC
FFFC
8004
8004
C00C
4008
6018
1070
0FC0
ENDCHAR
STARTCHAR 25E6
ENCODING 9702
SWIDTH 500 0
DWIDTH 16 0
BBX 8 8 4 8
BITMAP
3C
66
42
81
81
42
66
3C
ENDCHAR
STARTCHAR 25EF
ENCODING 9711
SWIDTH 1000 0
DWIDTH 32 0
BBX 28 29 2 -2
BITMAP
003F8000
00E07000
03000800
06000600
08000100
10000080
20000040
60000040
40000020
C0000020
80000010
80000010
80000010
80000010
80000010
80000010
80000010
80000010
80000010
80000010
40000020
40000020
20000040
10000080
08000100
04000200
03000400
00C03800
003FC000
ENDCHAR
STARTCHAR 2600
ENCODING 9728
SWIDTH 1000 0
DWIDTH 32 0
BBX 30 30 1 -3
BITMAP
00030000
00030000
00030000
00030000
08030080
0C0300C0
06000180
010FC300
01BFF400
007FF800
00FFFC00
00FFFC00
01FFFE00
01FFFE00
FDFFFEFC
01FFFE00
01FFFE00
01FFFE00
00FFFC00
00FFFC00
007FF800
01BFF600
030FC300
06000180
0C0300C0
08030080
00030000
00030000
00030000
00030000
ENDCHAR
STARTCHAR 2601
ENCODING 9729
SWIDTH 1000 0
DWIDTH 32 0
BBX 28 22 2 -1
BITMAP
003E0000
00FF0000
01FF8000
01FFC000
03FFE000
03FFE000
03FFF3C0
03FFF7E0
07FFFFF0
07FFFFF0
1FFFFFF0
3FFFFFF0
7FFFFFE0
FFFFFF80
FFFFFFE0
FFFFFFF0
FFFFFFF0
FFFBFFF0
7FF3FFF0
3FC1FFE0
1F80FFC0
00003F00
ENDCHAR
STARTCHAR 2602
ENCODING 9730
SWIDTH 1000 0
DWIDTH 32 0
BBX 30 30 1 -3
BITMAP
00020000
00030000
00030000
003FF000
00FFFC00
03FFFF00
0FFFFFC0
1FFFFFE0
1FFFFFE0
3FFFFFF0
7FFFFFF8
63C78F18
41830608
81030204
81030404
00030000
00030000
00030000
00030000
00030000
00030000
00030000
00030000
00030000
00030000
00030000
00230000
00230000
00220000
001C0000
ENDCHAR
STARTCHAR 2603
ENCODING 9731
SWIDTH 1000 0
DWIDTH 32 0
BBX 30 29 1 -2
BITMAP
C00E1018
C00E2818
01802418
02804200
01008100
000100C0
30020080
303E0100
00C10130
0100E230
02001D00
021CE100
021CE100
721CE100
52000100
21084200
0087841C
0300030C
C4000080
C8000040
10030040
10030020
10030020
10000020
10030020
08030040
08030040
06000180
01FFFE00
ENDCHAR
STARTCHAR 2605
ENCODING 9733
SWIDTH 1000 0
DWIDTH 32 0
BBX 30 30 1 -3
BITMAP
00020000
00020000
00030000
00030000
00030000
00078000
00078000
00078000
000FC000
000FC000
000FC000
FFFFFFFC
3FFFFFF0
1FFFFFE0
07FFFF80
03FFFF00
01FFFE00
007FF800
007FF800
00FFFC00
00FFFC00
00FFFC00
01FCFE00
01F87E00
01F03E00
03C00F00
03800700
03000300
04000080
08000080
ENDCHAR
STARTCHAR 2606
ENCODING 9734
SWIDTH 1000 0
DWIDTH 32 0
BBX 30 29 1 -2
BITMAP
00020000
00020000
00030000
00030000
00030000
00048000
00048000
00048000
000C4000
00084000
00084000
FFF87FFC
30000030
18000060
06000180
03000300
00C00C00
00601800
00400800
00C00C00
00820400
00830400
018CC600
01186200
01303200
03C00F00
03800700
03000300
04000080
ENDCHAR
STARTCHAR 260E
ENCODING 9742
SWIDTH 1000 0
DWIDTH 32 0
BBX 30 24 1 0
BITMAP
03FFFF00
1FFFFFC0
3FFFFFF0
3FFFFFF0
7F703BF8
7C7038F8
7C7038F8
F87FF8FC
00FFFC00
01FFFE00
01F87E00
03E01F00
03C00F00
03C00F00
07800780
0F800780
1F800FC0
1FC00FE0
3FC00FF0
3FE01FF0
3FF87FF0
7FFFFFF0
7FFFFFF8
7FFFFFF8
ENDCHAR
STARTCHAR 2616
ENCODING 9750
SWIDTH 1000 0
DWIDTH 32 0
BBX 26 26 3 0
BITMAP
00080000
001E0000
00330000
00C0C000
03807000
0E001C00
18000600
30000300
30000300
30000300
20000100
20000100
20000100
20000100
20000100
60000180
60000180
60000180
60000180
40000080
40000080
40000080
40000080
C00000C0
C00000C0
FFFFFFC0
ENDCHAR
STARTCHAR 2617
ENCODING 9751
SWIDTH 1000 0
DWIDTH 32 0
BBX 26 26 3 0
BITMAP
000C0000
001E0000
007F8000
01FFE000
03FFF000
0FFFFC00
3FFFFF00
3FFFFF00
3FFFFF00
3FFFFF00
3FFFFF00
3FFFFF00
3FFFFF00
3FFFFF00
3FFFFF00
7FFFFF80
7FFFFF80
7FFFFF80
7FFFFF80
7FFFFF80
7FFFFF80
7FFFFF80
7FFFFF80
FFFFFFC0
FFFFFFC0
FFFFFFC0
ENDCHAR
STARTCHAR 261E
ENCODING 9758
SWIDTH 1000 0
DWIDTH 32 0
BBX 28 13 2 6
BITMAP
783E3FC0
44C1C030
87004010
86006030
84049FC0
841BA800
87E0C400
88037200
84028C00
84058400
8B054400
8AC33800
FC3FF000
ENDCHAR
STARTCHAR 2640
ENCODING 9792
SWIDTH 1000 0
DWIDTH 32 0
BBX 20 28 6 -2
BITMAP
01F800
030C00
040200
080100
180180
100080
100080
100080
180180
180180
0C0300
070E00
03FC00
00F000
006000
006000
006000
006000
FFFFF0
006000
006000
006000
006000
006000
006000
006000
006000
006000
ENDCHAR
STARTCHAR 2642
ENCODING 9794
SWIDTH 1000 0
DWIDTH 32 0
BBX 25 25 3 0
BITMAP
0003FF80
00000380
00000780
00000680
00000C80
00001880
00003080
00006080
0000C080
00018080
00030080
0F860000
186C0000
20180000
40080000
C00C0000
C0040000
80040000
80040000
80040000
C00C0000
40080000
20180000
18700000
0FC00000
ENDCHAR
STARTCHAR 2660
ENCODING 9824
SWIDTH 500 0
DWIDTH 16 0
BBX 14 19 1 3
BITMAP
0200
0300
0780
0FC0
0FC0
1FE0
3FF0
7FF8
7FF8
FFFC
FFFC
FFFC
FFFC
FFFC
7FF8
0780
0780
0780
0FC0
ENDCHAR
STARTCHAR 2661
ENCODING 9825
SWIDTH 500 0
DWIDTH 16 0
BBX 14 18 1 3
BITMAP
3870
4488
C30C
8304
8204
8004
C00C
4008
4008
6018
2010
3030
1020
1860
08C0
0480
0300
0200
ENDCHAR
STARTCHAR 2662
ENCODING 9826
SWIDTH 500 0
DWIDTH 16 0
BBX 14 21 1 2
BITMAP
0200
0300
0300
0480
0CC0
0840
1860
1020
2010
6018
4008
C00C
6018
2010
1020
1860
0840
0480
0780
0300
0200
ENDCHAR
STARTCHAR 2663
ENCODING 9827
SWIDTH 500 0
DWIDTH 16 0
BBX 14 18 1 3
BITMAP
0780
0FC0
0FC0
1FE0
1FE0
0FC0
7FB8
FFFC
FFFC
FFFC
FFFC
FFFC
FFFC
7FF8
0780
0780
0780
0FC0
ENDCHAR
STARTCHAR 2664
ENCODING 9828
SWIDTH 500 0
DWIDTH 16 0
BBX 14 19 1 3
BITMAP
0200
0300
0780
0CC0
1840
1020
2010
6018
4008
C00C
8004
8004
8484
C48C
7CF8
0480
0480
0480
0FC0
ENDCHAR
STARTCHAR 2665
ENCODING 9829
SWIDTH 500 0
DWIDTH 16 0
BBX 14 18 1 3
BITMAP
3870
7CF8
FFFC
FFFC
FFFC
FFFC
FFFC
7FF8
7FF8
7FF8
3FF0
3FF0
1FE0
1FE0
0FC0
0780
0300
0200
ENDCHAR
STARTCHAR 2666
ENCODING 9830
SWIDTH 500 0
DWIDTH 16 0
BBX 14 21 1 2
BITMAP
0200
0300
0300
0780
0FC0
0FC0
1FE0
1FE0
3FF0
7FF8
7FF8
FFFC
7FF8
3FF0
1FE0
1FE0
0FC0
0780
0780
0300
0200
ENDCHAR
STARTCHAR 2667
ENCODING 9831
SWIDTH 500 0
DWIDTH 16 0
BBX 14 19 1 3
BITMAP
0780
0C40
0840
1860
1860
0840
0840
7CF8
C00C
8004
8004
8004
8484
8CC4
7CF8
0480
0480
0480
0FC0
ENDCHAR
STARTCHAR 2668
ENCODING 9832
SWIDTH 1000 0
DWIDTH 32 0
BBX 26 25 3 1
BITMAP
00080000
00080000
02103000
04102000
04302000
04306000
0C306000
04106000
06182000
06183000
030C3000
030C1800
01061800
01060800
21860900
41020880
81060840
83061040
82041040
C40860C0
C01001C0
70000380
3E001F00
0FFFFC00
01FFC000
ENDCHAR
STARTCHAR 2669
ENCODING 9833
SWIDTH 500 0
DWIDTH 16 0
BBX 5 18 4 3
BITMAP
08
08
08
08
08
08
08
08
08
08
08
08
08
08
78
F8
F8
F0
ENDCHAR
STARTCHAR 266A
ENCODING 9834
SWIDTH 1000 0
DWIDTH 32 0
BBX 21 27 6 -1
BITMAP
008000
00C000
00C000
00E000
00F800
00BC00
009E00
008F00
008380
0081E0
0080F0
008070
008038
008038
008018
008010
008030
008060
0080C0
008100
008000
1F8000
7F8000
FF8000
FF8000
FF0000
7C0000
ENDCHAR
STARTCHAR 266B
ENCODING 9835
SWIDTH 500 0
DWIDTH 16 0
BBX 14 18 1 3
BITMAP
001C
01FC
0FFC
0F84
0804
0804
0804
0804
0804
0804
0804
0804
0804
087C
7878
F870
F800
F000
ENDCHAR
STARTCHAR 266C
ENCODING 9836
SWIDTH 500 0
DWIDTH 16 0
BBX 14 18 1 3
BITMAP
001C
01FC
0FE4
0E04
08FC
0FFC
0F04
0804
0804
0804
0804
0804
0804
087C
7878
F870
F800
F000
ENDCHAR
STARTCHAR 266D
ENCODING 9837
SWIDTH 1000 0
DWIDTH 32 0
BBX 12 27 11 -1
BITMAP
8000
8000
8000
8000
8000
8000
8000
8000
8000
8F80
90C0
E0E0
8060
8070
8070
8060
8060
80E0
80C0
81C0
8180
8300
8600
8C00
9800
E000
C000
ENDCHAR
STARTCHAR 266E
ENCODING 9838
SWIDTH 500 0
DWIDTH 16 0
BBX 6 18 5 3
BITMAP
80
80
80
84
BC
FC
C4
84
84
84
84
BC
FC
C4
04
04
04
04
ENDCHAR
STARTCHAR 266F
ENCODING 9839
SWIDTH 1000 0
DWIDTH 32 0
BBX 18 27 7 -1
BITMAP
000800
040800
040800
040800
040800
040800
040BC0
043FC0
07FE00
FFC800
FC0800
840800
040800
040800
040800
040840
040FC0
04FFC0
1FF800
FF0800
F40800
040800
040800
040800
040800
040800
040000
ENDCHAR
STARTCHAR 2713
ENCODING 10003
SWIDTH 1000 0
DWIDTH 32 0
BBX 21 21 7 2
BITMAP
000008
000010
000030
000020
000040
000080
000180
000300
000600
000C00
000C00
001800
403000
E06000
60C000
71C000
738000
3F0000
3E0000
1C0000
080000
ENDCHAR
STARTCHAR 2756
ENCODING 10070
SWIDTH 1000 0
DWIDTH 32 0
BBX 28 29 2 -2
BITMAP
00040000
00060000
000F0000
001F8000
003FC000
007FE000
00FFF000
00FFF000
047FE400
063FC600
0F1F8F00
1F8F1F80
3FC63FC0
7FE07FE0
FFF0FFF0
FFF0FFF0
7FE47FE0
3FC63FC0
1F8F1F80
0F1F8F00
063FC600
007FE000
00FFF000
00FFF000
007FE000
003FC000
001F8000
000F0000
00060000
ENDCHAR
STARTCHAR 2776
ENCODING 10102
SWIDTH 1000 0
DWIDTH 32 0
BBX 28 29 2 -2
BITMAP
003FC000
00FFF000
03FFFC00
07FFFE00
0FFFFF00
1FF1FF80
3FC1FFC0
7FF9FFE0
7FF9FFE0
FFF9FFF0
FFF9FFF0
FFF9FFF0
FFF9FFF0
FFF9FFF0
FFF9FFF0
FFF9FFF0
FFF9FFF0
FFF9FFF0
FFF9FFF0
FFF9FFF0
7FF9FFE0
7FF9FFE0
3FF8FFC0
1FC03F80
0FFFFF00
07FFFE00
03FFFC00
00FFF000
003FC000
ENDCHAR
STARTCHAR 2777
ENCODING 10103
SWIDTH 1000 0
DWIDTH 32 0
BBX 28 28 2 -2
BITMAP
003FC000
01FFF800
03FFFC00
0FFFFF00
1FE07F80
3FCF3FC0
3F9F9FC0
7F3FCFE0
7F1FCFE0
FF1FCFF0
FF1FCFF0
FFFF9FF0
FFFF9FF0
FFFF3FF0
FFFE7FF0
FFFCFFF0
FFF9FFF0
FFF3FFF0
FFE7F7F0
7FCFF7E0
7F9FE7E0
3F3FE7C0
1F400780
0FFFFF00
07FFFE00
03FFFC00
00FFF000
003FC000
ENDCHAR
STARTCHAR 2778
ENCODING 10104
SWIDTH 1000 0
DWIDTH 32 0
BBX 28 28 2 -2
BITMAP
003FC000
01FFF800
07FFFE00
0FFFFF00
1FE07F80
3FCF1FC0
3F9F9FC0
7F3FCFE0
7F1FCFE0
FF1FCFF0
FFFFCFF0
FFFF9FF0
FFFF3FF0
FFF1FFF0
FFFF1FF0
FFFFCFF0
FFFFCFF0
FFFFC7F0
FF3FE7F0
7E1FC7E0
7F3FCFE0
3F3F8FC0
1F9F1F80
0FE07F00
07FFFE00
03FFFC00
00FFF000
003FC000
ENDCHAR
STARTCHAR 2779
ENCODING 10105
SWIDTH 1000 0
DWIDTH 32 0
BBX 28 29 2 -2
BITMAP
001F8000
00FFF000
01FFF800
07FFFE00
0FFFFF00
1FFE7F80
3FFC7FC0
3FFA7FC0
7FFA7FE0
FFF67FE0
FFEE7FF0
FFCE7FF0
FF9E7FF0
FFBE7FF0
FF7E7FF0
FEFE7FF0
FCFE7FF0
FD0007F0
FC0007F0
FFFE7FF0
7FFE7FE0
7FFE7FE0
3FFE7FC0
1FF00F80
0FFFFF00
07FFFE00
03FFFC00
00FFF000
003FC000
ENDCHAR
STARTCHAR 277A
ENCODING 10106
SWIDTH 1000 0
DWIDTH 32 0
BBX 28 29 2 -2
BITMAP
003F8000
00FFF000
03FFFC00
07FFFE00
0FFFFF00
1F801F80
3F801FC0
7FBFFFE0
7FBFFFE0
FFBFFFE0
FFBFFFF0
FFBFFFF0
FFB07FF0
FFCF1FF0
FF9F8FF0
FFBFCFF0
FFFFC7F0
FFFFC7F0
FFFFC7F0
FF3FC7F0
7F1FCFE0
7F3F8FE0
3F3F9FC0
1F9F3F80
0FE0FF00
07FFFE00
03FFFC00
00FFF000
003FC000
ENDCHAR
STARTCHAR 277B
ENCODING 10107
SWIDTH 1000 0
DWIDTH 32 0
BBX 28 29 2 -2
BITMAP
003F8000
00FFF000
03FFF800
07FFFE00
0FFFFF00
1FF87F80
3FE79FC0
7FCF8FC0
7F9F8FE0
FF9F9FE0
FF3FFFF0
FF3FFFF0
FF307FF0
FF2F1FF0
FF5F9FF0
FE3FCFF0
FE3FCFF0
FF3FCFF0
FF3FCFF0
FF3FCFF0
7F3FCFE0
7F9F8FE0
3F9F9FC0
1FCF3F80
0FF07F00
07FFFE00
03FFFC00
00FFF000
003FC000
ENDCHAR
STARTCHAR 277C
ENCODING 10108
SWIDTH 1000 0
DWIDTH 32 0
BBX 28 28 2 -2
BITMAP
003FC000
00FFF000
03FFFC00
0FFFFE00
1FFFFF80
3F000780
3F3FEFC0
7F3FCFE0
7F7FDFE0
FF7FBFF0
FF7FBFF0
FFFF3FF0
FFFF7FF0
FFFE7FF0
FFFE7FF0
FFFCFFF0
FFFCFFF0
FFFCFFF0
FFF8FFF0
7FF9FFE0
7FF9FFE0
3FF9FFC0
1FF9FF80
1FF9FF00
07FFFE00
03FFFC00
00FFF000
003FC000
ENDCHAR
STARTCHAR 277D
ENCODING 10109
SWIDTH 1000 0
DWIDTH 32 0
BBX 28 29 2 -2
BITMAP
003F8000
00FFF000
03FFF800
07FFFE00
0FFFFF00
1FE07F80
3FCF3FC0
7F9F9FC0
7F3FCFE0
FF3FCFE0
FF3FCFF0
FF9FDFF0
FFCFBFF0
FFE67FF0
FFF1FFF0
FFCE3FF0
FFBF1FF0
FF3F8FF0
FE7FCFF0
FE7FC7F0
7E7FE7E0
7E3FCFE0
3F3F8FC0
1F8F1F80
0FE07F00
07FFFE00
03FFFC00
00FFF000
003FC000
ENDCHAR
STARTCHAR 277E
ENCODING 10110
SWIDTH 1000 0
DWIDTH 32 0
BBX 28 29 2 -2
BITMAP
003F8000
00FFF000
03FFF800
07FFFE00
0FFFFF00
1FF07F80
3FCF3FC0
7F9F9FC0
7F3F9FE0
FF3FCFE0
FF3FCFF0
FF3FCFF0
FF3FCFF0
FF3FC7F0
FF9F87F0
FF8F47F0
FFE0CFF0
FFFFCFF0
FFFFCFF0
FF1FCFF0
7F1F8FE0
7F1F9FE0
3FBF3FC0
1F9E7F80
0FE0FF00
07FFFE00
03FFFC00
00FFF000
003FC000
ENDCHAR
STARTCHAR 277F
ENCODING 10111
SWIDTH 1000 0
DWIDTH 32 0
BBX 28 29 2 -2
BITMAP
003F8000
00FFF000
03FFFC00
07FFFE00
0FFFFF00
1F7F0F80
387E67C0
7E7EF3C0
7E7CF3E0
FE7CF9E0
FE79F9F0
FE79F9F0
FE79F9F0
FE79F9F0
FE79F9F0
FE79F9F0
FE79F9F0
FE79F9F0
FE78F9F0
FE7CF9F0
7E7CF3E0
7E7CF3E0
3E7E67C0
181F0F80
0FFFFF00
07FFFE00
03FFFC00
00FFF000
003FC000
ENDCHAR
STARTCHAR 2934
ENCODING 10548
SWIDTH 500 0
DWIDTH 16 0
BBX 12 24 2 1
BITMAP
0100
0380
07C0
0DE0
1960
3130
2110
2110
0100
0100
0100
0100
0100
0100
0100
0100
0100
0100
0100
0300
0300
0200
0E00
F800
ENDCHAR
STARTCHAR 2935
ENCODING 10549
SWIDTH 500 0
DWIDTH 16 0
BBX 12 24 2 0
BITMAP
F800
0E00
0200
0300
0300
0100
0100
0100
0100
0100
0100
0100
0100
0100
0100
0100
2110
2110
3130
1960
0DE0
07C0
0380
0100
ENDCHAR
STARTCHAR 29BF
ENCODING 10687
SWIDTH 1000 0
DWIDTH 32 0
BBX 27 27 3 -1
BITMAP
007F8000
01C0E000
06001800
0C000C00
18000600
30000300
60000100
40000080
C0000080
801E0040
803F0040
807F8040
807F8040
807F8060
807F8060
807F8040
803F0040
801E0040
C00000C0
40000080
60000180
30000300
18000200
0C000C00
06001800
03C0E000
007F8000
ENDCHAR
STARTCHAR 29FA
ENCODING 10746
SWIDTH 500 0
DWIDTH 16 0
BBX 12 18 2 3
BITMAP
1080
1080
1080
1080
1080
1080
1080
1080
FFF0
1080
1080
1080
1080
1080
1080
1080
1080
1080
ENDCHAR
STARTCHAR 29FB
ENCODING 10747
SWIDTH 500 0
DWIDTH 16 0
BBX 12 18 2 3
BITMAP
2640
2640
2640
2640
2640
2640
2640
2640
FFF0
2640
2640
2640
2640
2640
2640
2640
2640
2640
ENDCHAR
STARTCHAR 3000
ENCODING 12288
SWIDTH 1000 0
DWIDTH 32 0
BBX 0 0 0 0
BITMAP
ENDCHAR
STARTCHAR 3001
ENCODING 12289
SWIDTH 1000 0
DWIDTH 32 0
BBX 6 6 2 -2
BITMAP
C0
70
38
1C
1C
0C
ENDCHAR
STARTCHAR 3002
ENCODING 12290
SWIDTH 1000 0
DWIDTH 32 0
BBX 8 8 1 -3
BITMAP
3E
63
41
81
81
41
62
3C
ENDCHAR
STARTCHAR 3003
ENCODING 12291
SWIDTH 1000 0
DWIDTH 32 0
BBX 14 14 8 6
BITMAP
071C
061C
0E18
0E38
0C30
0C30
1830
1860
1060
3040
20C0
6080
4100
8100
ENDCHAR
STARTCHAR 3005
ENCODING 12293
SWIDTH 1000 0
DWIDTH 32 0
BBX 21 19 4 4
BITMAP
006000
003000
003000
006000
006000
00C030
00C7F8
01F838
030060
0200E0
0600C0
0C0180
180300
21C200
407400
801C00
000F00
000780
000380
ENDCHAR
STARTCHAR 3006
ENCODING 12294
SWIDTH 1000 0
DWIDTH 32 0
BBX 22 24 5 0
BITMAP
000060
000038
00003C
000030
000060
0001C0
000180
038300
046600
0C3C00
081800
183C00
106C00
10C600
308700
210300
230300
260000
6C0000
680000
580000
700000
F00000
200000
ENDCHAR
STARTCHAR 3007
ENCODING 12295
SWIDTH 1000 0
DWIDTH 32 0
BBX 26 25 3 0
BITMAP
007F8000
01C0E000
06001800
0C000C00
18000600
30000300
20000100
40000080
40000080
C00000C0
80000040
80000040
80000040
80000040
80000040
C00000C0
40000080
40000080
20000100
30000300
18000600
0C000C00
06001800
0180E000
007F8000
ENDCHAR
STARTCHAR 3008
ENCODING 12296
SWIDTH 1000 0
DWIDTH 32 0
BBX 12 29 18 -2
BITMAP
0030
0060
0040
00C0
0180
0300
0200
0600
0C00
1800
1000
3000
6000
C000
8000
C000
6000
3000
1000
1800
0C00
0600
0200
0300
0180
00C0
0040
0060
0030
ENDCHAR
STARTCHAR 3009
ENCODING 12297
SWIDTH 1000 0
DWIDTH 32 0
BBX 12 29 2 -2
BITMAP
C000
6000
2000
3000
1800
0C00
0400
0600
0300
0180
0080
00C0
0060
0030
0010
0030
0060
00C0
0080
0180
0300
0600
0400
0C00
1800
3000
2000
6000
C000
ENDCHAR
STARTCHAR 300A
ENCODING 12298
SWIDTH 1000 0
DWIDTH 32 0
BBX 14 29 17 -2
BITMAP
00CC
0088
0110
0330
0220
0660
0440
0CC0
0880
1100
3300
2200
6600
4400
CC00
4400
6600
2200
3300
1100
0880
0CC0
0440
0660
0220
0330
0110
0088
00CC
ENDCHAR
STARTCHAR 300B
ENCODING 12299
SWIDTH 1000 0
DWIDTH 32 0
BBX 14 29 1 -2
BITMAP
CC00
4400
2200
3300
1100
1980
0880
0CC0
0440
0220
0330
0110
0198
0088
00CC
0088
0198
0110
0330
0220
0440
0CC0
0880
1980
1100
3300
2200
4400
CC00
ENDCHAR
STARTCHAR 300C
ENCODING 12300
SWIDTH 1000 0
DWIDTH 32 0
BBX 8 23 21 3
BITMAP
FF
C0
C0
C0
C0
C0
C0
C0
C0
C0
C0
C0
C0
C0
C0
C0
C0
C0
C0
C0
C0
C0
C0
ENDCHAR
STARTCHAR 300D
ENCODING 12301
SWIDTH 1000 0
DWIDTH 32 0
BBX 8 23 3 -2
BITMAP
03
03
03
03
03
03
03
03
03
03
03
03
03
03
03
03
03
03
03
03
03
03
FF
ENDCHAR
STARTCHAR 300E
ENCODING 12302
SWIDTH 1000 0
DWIDTH 32 0
BBX 10 23 19 3
BITMAP
FFC0
8040
8040
9FC0
9000
9000
9000
9000
9000
9000
9000
9000
9000
9000
9000
9000
9000
9000
9000
9000
9000
9000
F000
ENDCHAR
STARTCHAR 300F
ENCODING 12303
SWIDTH 1000 0
DWIDTH 32 0
BBX 10 23 3 -2
BITMAP
03C0
0240
0240
0240
0240
0240
0240
0240
0240
0240
0240
0240
0240
0240
0240
0240
0240
0240
FE40
8040
8040
8040
FFC0
ENDCHAR
STARTCHAR 3010
ENCODING 12304
SWIDTH 1000 0
DWIDTH 32 0
BBX 6 29 23 -2
BITMAP
FC
F8
F0
F0
E0
C0
C0
C0
80
80
80
80
80
80
80
80
80
80
80
80
80
C0
C0
C0
E0
E0
F0
F8
FC
ENDCHAR
STARTCHAR 3011
ENCODING 12305
SWIDTH 1000 0
DWIDTH 32 0
BBX 6 29 3 -2
BITMAP
FC
7C
3C
3C
1C
1C
0C
0C
04
04
04
04
04
04
04
04
04
04
04
04
04
0C
0C
0C
1C
3C
3C
7C
FC
ENDCHAR
STARTCHAR 3012
ENCODING 12306
SWIDTH 1000 0
DWIDTH 32 0
BBX 22 26 5 -2
BITMAP
FFFFFC
FFFFFC
FFFFFC
000000
000000
000000
000000
000000
FFFFFC
FFFFFC
FFFFFC
007800
007800
007800
007800
007800
007800
007800
007800
007800
007800
007800
007800
007800
007800
007800
ENDCHAR
STARTCHAR 3013
ENCODING 12307
SWIDTH 1000 0
DWIDTH 32 0
BBX 22 14 5 5
BITMAP
FFFFFC
FFFFFC
FFFFFC
FFFFFC
000000
000000
000000
000000
000000
FFFFFC
FFFFFC
FFFFFC
FFFFFC
FFFFFC
ENDCHAR
STARTCHAR 3014
ENCODING 12308
SWIDTH 1000 0
DWIDTH 32 0
BBX 6 30 23 -3
BITMAP
04
0C
38
E0
80
80
80
80
80
80
80
80
80
80
80
80
80
80
80
80
80
80
80
80
80
80
E0
38
0C
04
ENDCHAR
STARTCHAR 3015
ENCODING 12309
SWIDTH 1000 0
DWIDTH 32 0
BBX 6 30 3 -3
BITMAP
80
C0
70
1C
04
04
04
04
04
04
04
04
04
04
04
04
04
04
04
04
04
04
04
04
04
04
1C
70
C0
80
ENDCHAR
STARTCHAR 3016
ENCODING 12310
SWIDTH 1000 0
DWIDTH 32 0
BBX 9 29 20 -2
BITMAP
FF80
8100
8200
8400
8400
8800
8800
8800
9000
9000
9000
9000
9000
9000
9000
9000
9000
9000
9000
9000
9000
8800
8800
8800
8400
8400
8200
8100
FF80
ENDCHAR
STARTCHAR 3017
ENCODING 12311
SWIDTH 1000 0
DWIDTH 32 0
BBX 9 29 3 -2
BITMAP
FF80
4080
2080
2080
1080
1080
0880
0880
0880
0480
0480
0480
0480
0480
0480
0480
0480
0480
0480
0480
0880
0880
0880
0880
1080
2080
2080
4080
FF80
ENDCHAR
STARTCHAR 3018
ENCODING 12312
SWIDTH 1000 0
DWIDTH 32 0
BBX 9 30 20 -3
BITMAP
0080
0380
0680
1880
6080
8180
8600
8800
8800
8800
8800
8800
8800
8800
8800
8800
8800
8800
8800
8800
8800
8800
8C00
8300
8080
6080
1880
0680
0180
0080
ENDCHAR
STARTCHAR 3019
ENCODING 12313
SWIDTH 1000 0
DWIDTH 32 0
BBX 9 30 3 -3
BITMAP
8000
C000
B000
8C00
8300
C080
3080
0880
0880
0880
0880
0880
0880
0880
0880
0880
0880
0880
0880
0880
0880
0880
1880
6080
8080
8300
8C00
B000
C000
8000
ENDCHAR
STARTCHAR 301C
ENCODING 12316
SWIDTH 1000 0
DWIDTH 32 0
BBX 26 7 3 9
BITMAP
07800000
1FE00000
38780040
601C0080
C0070300
8003FE00
0000F800
ENDCHAR
STARTCHAR 301D
ENCODING 12317
SWIDTH 1000 0
DWIDTH 32 0
BBX 9 13 21 14
BITMAP
8000
6000
F000
1800
0C00
0200
4180
E000
3800
1C00
0600
0100
0080
ENDCHAR
STARTCHAR 301F
ENCODING 12319
SWIDTH 1000 0
DWIDTH 32 0
BBX 9 12 2 -2
BITMAP
8000
6000
3800
0C00
0700
8380
4100
3000
1800
0E00
0380
0100
ENDCHAR
STARTCHAR 3020
ENCODING 12320
SWIDTH 1000 0
DWIDTH 32 0
BBX 30 21 1 1
BITMAP
1FFFFFE0
1FFFFFE0
1FFFFFE0
00000000
00000000
1FFFFFE0
1FFFFFE0
1FFFFFE0
00030000
73430D38
C7E31F8C
82430904
43C30708
60030018
10830C20
08400840
08201040
04186080
03078300
01E01C00
003FF000
ENDCHAR
STARTCHAR 3033
ENCODING 12339
SWIDTH 1000 0
DWIDTH 32 0
BBX 10 27 9 -4
BITMAP
0100
0180
00C0
00C0
00C0
01C0
01C0
0180
0380
0300
0700
0600
0E00
0C00
0C00
1800
1800
3000
3000
2000
6000
6000
4000
4000
C000
8000
8000
ENDCHAR
STARTCHAR 3034
ENCODING 12340
SWIDTH 1000 0
DWIDTH 32 0
BBX 17 27 9 -4
BITMAP
010000
018000
00C000
00C000
00C000
01C000
01C000
018000
038000
030000
070000
060000
0E0000
0C0000
0C0600
180380
183180
301C80
300C00
200400
600000
600000
400000
400000
C00000
800000
800000
ENDCHAR
STARTCHAR 3035
ENCODING 12341
SWIDTH 1000 0
DWIDTH 32 0
BBX 13 28 9 0
BITMAP
8000
8000
8000
C000
4000
6000
2000
3000
1800
1800
0C00
0C00
0600
0700
0300
0380
0180
01C0
00C0
00E0
00E0
0070
0070
0070
0070
0038
0030
0030
ENDCHAR
STARTCHAR 303B
ENCODING 12347
SWIDTH 1000 0
DWIDTH 32 0
BBX 13 20 9 2
BITMAP
0800
0C00
0600
0300
01C0
00E0
03E0
0C00
0800
0800
0800
0C00
0700
01C0
00F0
01F8
0700
1800
6000
8000
ENDCHAR
STARTCHAR 303C
ENCODING 12348
SWIDTH 1000 0
DWIDTH 32 0
BBX 28 27 2 -1
BITMAP
FFFFFFF0
FFFFFFF0
C0000070
C00001B0
C0000330
C0000630
C0000C30
C0001830
C0003030
C0006030
C000C030
C0018030
C0030030
C0060030
C00C0030
C0180030
C0300030
C0600030
C0C00030
C1800030
C3000030
C6000030
CC000030
D8000030
E0000030
FFFFFFF0
FFFFFFF0
ENDCHAR
STARTCHAR 303D
ENCODING 12349
SWIDTH 1000 0
DWIDTH 32 0
BBX 24 28 5 -2
BITMAP
0C0000
140000
E21C00
632600
03E200
01C200
000300
000100
000100
000180
000180
000080
000080
0000C0
0000C0
000040
000060
000060
000020
000030
000030
000018
000018
00001C
00000C
00000E
000007
000004
ENDCHAR
STARTCHAR 3041
ENCODING 12353
SWIDTH 1000 0
DWIDTH 32 0
BBX 21 23 6 -2
BITMAP
018000
00C000
00C000
008600
309F00
0FF800
018000
019800
018C00
01FF80
070C60
0D0830
191830
313018
612018
C14018
C18018
C18030
C38070
CD80E0
F18180
000F00
003000
ENDCHAR
STARTCHAR 3042
ENCODING 12354
SWIDTH 1000 0
DWIDTH 32 0
BBX 25 27 4 -1
BITMAP
00C00000
00600000
00600000
00600000
0061C000
2067C000
18FE0000
07C00000
00440000
00430000
0047C000
00F9F800
01C30C00
07C30600
0CC60300
18C60300
30CC0300
60D80380
60D80300
C0F00300
C0E00300
C1C00700
C7E00600
FE601C00
78603800
0040E000
000F0000
ENDCHAR
STARTCHAR 3043
ENCODING 12355
SWIDTH 1000 0
DWIDTH 32 0
BBX 23 18 5 0
BITMAP
800000
600100
6000C0
700060
600030
600018
60001C
60000C
60800E
60800E
210006
210004
330000
360000
1E0000
1E0000
0E0000
060000
ENDCHAR
STARTCHAR 3044
ENCODING 12356
SWIDTH 1000 0
DWIDTH 32 0
BBX 26 20 3 1
BITMAP
E0004000
60002000
70001800
60000C00
60000600
60000700
60000300
60000380
60000180
604001C0
604001C0
208000C0
218000C0
31800000
33000000
1B000000
1F000000
0F000000
07000000
03000000
ENDCHAR
STARTCHAR 3045
ENCODING 12357
SWIDTH 1000 0
DWIDTH 32 0
BBX 15 23 8 -2
BITMAP
0800
0E00
03F0
03F0
0E00
0000
0000
01F0
9E1C
F80C
E006
0006
0006
0006
0006
0006
000E
000C
0018
0030
00E0
0380
1C00
ENDCHAR
STARTCHAR 3046
ENCODING 12358
SWIDTH 1000 0
DWIDTH 32 0
BBX 18 27 7 -1
BITMAP
080000
040000
03E000
00FC00
030C00
040000
000000
000000
01F800
9F8600
FC0300
F00180
C00180
000180
0001C0
0001C0
000180
000180
000180
000300
000700
000600
001C00
003800
00E000
038000
1C0000
ENDCHAR
STARTCHAR 3047
ENCODING 12359
SWIDTH 1000 0
DWIDTH 32 0
BBX 21 22 6 -1
BITMAP
020000
038000
00FC00
00FC00
018000
000000
000600
10FF00
1F8E00
1C1C00
003800
006000
00C000
018000
037000
079800
0E0800
1C0C00
380C00
700600
E007E0
C003F8
ENDCHAR
STARTCHAR 3048
ENCODING 12360
SWIDTH 1000 0
DWIDTH 32 0
BBX 24 26 5 0
BITMAP
020000
010000
00F000
003F00
004300
018000
000000
000100
000F80
10F9C0
1F8300
1C0600
000C00
001800
003000
004000
008000
033C00
07C400
0F0600
1C0600
380200
700300
E00300
C001FE
8000FF
ENDCHAR
STARTCHAR 3049
ENCODING 12361
SWIDTH 1000 0
DWIDTH 32 0
BBX 21 21 6 -1
BITMAP
1C0000
060200
0601C0
060070
066030
85E038
8F8018
7C0000
040000
040000
043F00
05C0C0
0E0060
3C0060
640030
C40030
840060
C40060
6440C0
3C3F00
180000
ENDCHAR
STARTCHAR 304A
ENCODING 12362
SWIDTH 1000 0
DWIDTH 32 0
BBX 25 25 4 0
BITMAP
08000000
07000000
03006000
03001800
03000E00
03000700
03380380
83FC0380
47C00180
3F000000
03000000
03000000
0307E000
03383800
03C00C00
07000E00
1F000600
33000600
43000600
C3000600
83000600
C3000C00
63201800
3E183000
1C07E000
ENDCHAR
STARTCHAR 304B
ENCODING 12363
SWIDTH 1000 0
DWIDTH 32 0
BBX 27 25 3 0
BITMAP
01800000
00E00000
00600000
00600000
00406000
00C01000
00C00C00
81FC0600
8F860300
FD830180
618300C0
010300C0
03030060
02030060
06030FE0
060300E0
0C030060
0C030000
18060000
19060000
30CE0000
707C0000
60780000
E0380000
40300000
ENDCHAR
STARTCHAR 304C
ENCODING 12364
SWIDTH 1000 0
DWIDTH 32 0
BBX 28 27 3 0
BITMAP
000000C0
00000070
01800630
00E00390
00600180
00600080
00406000
00C01000
00C00C00
81FC0600
8F860300
FD830180
618300C0
010300C0
03030060
02030060
06030FE0
060300E0
0C030060
0C030000
18060000
19060000
30CE0000
707C0000
60780000
E0380000
40300000
ENDCHAR
STARTCHAR 304D
ENCODING 12365
SWIDTH 1000 0
DWIDTH 32 0
BBX 21 27 6 -1
BITMAP
078000
00C000
00C000
006380
006F00
003C00
61F000
1F1000
001838
000878
800FE0
C00F00
607E00
1FC200
000300
000180
001180
000FC0
0001C0
200080
200000
300000
100000
180000
0E0300
07FF80
01FF00
ENDCHAR
STARTCHAR 304E
ENCODING 12366
SWIDTH 1000 0
DWIDTH 32 0
BBX 25 29 6 -1
BITMAP
00000800
00000700
07804380
00C03180
00C01D80
00638C00
006F0C00
003C0000
61F00000
1F100000
00183800
00087800
800FE000
C00F0000
607E0000
1FC20000
00030000
00018000
00118000
000FC000
0001C000
20008000
20000000
30000000
10000000
18000000
0E030000
07FF8000
01FF0000
ENDCHAR
STARTCHAR 304F
ENCODING 12367
SWIDTH 1000 0
DWIDTH 32 0
BBX 16 27 7 -1
BITMAP
0018
000C
000E
001C
0078
00E0
01C0
0700
0C00
1800
3000
6000
C000
6000
7000
1C00
0E00
0780
01C0
00E0
0070
0038
001C
000E
0007
0007
0003
ENDCHAR
STARTCHAR 3050
ENCODING 12368
SWIDTH 1000 0
DWIDTH 32 0
BBX 21 27 7 -1
BITMAP
001800
000C00
000E00
001C00
007800
00E000
01C040
070030
0C0238
180398
3001C0
6000C0
C000C0
600000
700000
1C0000
0E0000
078000
01C000
00E000
007000
003800
001C00
000E00
000700
000700
000300
ENDCHAR
STARTCHAR 3051
ENCODING 12369
SWIDTH 1000 0
DWIDTH 32 0
BBX 24 28 5 -2
BITMAP
000180
4002C0
6000C0
300060
300060
700060
600060
600066
63007F
60C1F8
407F60
C00060
C00060
C00060
C00060
800060
880060
880060
900060
9000C0
F000C0
F000C0
600180
600380
600300
200600
001800
003000
ENDCHAR
STARTCHAR 3052
ENCODING 12370
SWIDTH 1000 0
DWIDTH 32 0
BBX 27 29 5 -2
BITMAP
00000300
000181C0
4002D8E0
6000CE60
30006600
30006300
70006000
60006000
60006600
63007F00
60C1F800
407F6000
C0006000
C0006000
C0006000
C0006000
80006000
88006000
88006000
90006000
9000C000
F000C000
F000C000
60018000
60038000
60030000
20060000
00180000
00300000
ENDCHAR
STARTCHAR 3053
ENCODING 12371
SWIDTH 1000 0
DWIDTH 32 0
BBX 21 22 5 1
BITMAP
080380
0C1FC0
03FF80
001C00
003000
004000
000000
000000
000000
000000
000000
000000
000000
000000
800000
800000
400000
600000
300000
3C0078
0FFFF8
01FFC0
ENDCHAR
STARTCHAR 3054
ENCODING 12372
SWIDTH 1000 0
DWIDTH 32 0
BBX 26 26 5 1
BITMAP
00000300
00000180
000039C0
00000CC0
08038E00
0C1FC600
03FF8000
001C0000
00300000
00400000
00000000
00000000
00000000
00000000
00000000
00000000
00000000
00000000
80000000
80000000
40000000
60000000
30000000
3C007800
0FFFF800
01FFC000
ENDCHAR
STARTCHAR 3055
ENCODING 12373
SWIDTH 1000 0
DWIDTH 32 0
BBX 21 25 5 0
BITMAP
01C000
026000
006000
003038
0030F0
0013E0
801F80
803C00
60EC00
1F8600
000600
000300
000300
000180
0001C0
000EC0
0001E0
100040
100000
100000
180000
0C0000
0F0000
03FF80
00FFC0
ENDCHAR
STARTCHAR 3056
ENCODING 12374
SWIDTH 1000 0
DWIDTH 32 0
BBX 27 27 5 0
BITMAP
00000380
000000C0
01C01CE0
02600640
00600700
00303B00
0030F000
0013E000
801F8000
803C0000
60EC0000
1F860000
00060000
00030000
00030000
00018000
0001C000
000EC000
0001E000
10004000
10000000
10000000
18000000
0C000000
0F000000
03FF8000
00FFC000
ENDCHAR
STARTCHAR 3057
ENCODING 12375
SWIDTH 1000 0
DWIDTH 32 0
BBX 20 25 7 0
BITMAP
E00000
700000
300000
300000
300000
300000
700000
600000
600000
600000
600000
600000
600000
600000
600010
600010
600030
600020
600040
6000C0
600180
300700
3C1E00
1FFC00
07E000
ENDCHAR
STARTCHAR 3058
ENCODING 12376
SWIDTH 1000 0
DWIDTH 32 0
BBX 20 25 7 0
BITMAP
E00000
700000
300000
300300
300180
3010C0
700CC0
600600
600600
600000
600000
600000
600000
600000
600010
600010
600030
600020
600040
6000C0
600180
300700
3C1E00
1FFC00
07E000
ENDCHAR
STARTCHAR 3059
ENCODING 12377
SWIDTH 1000 0
DWIDTH 32 0
BBX 28 29 2 -3
BITMAP
00070000
00038000
00018000
00018000
00018000
00011FE0
C07FFFF0
7FF10000
7C010000
00010000
00010000
001F0000
00718000
00618000
00C0C000
00C0C000
00C1C000
0041C000
0063C000
003EC000
0000C000
00018000
00018000
00018000
00030000
00060000
00040000
00080000
00100000
ENDCHAR
STARTCHAR 305A
ENCODING 12378
SWIDTH 1000 0
DWIDTH 32 0
BBX 29 31 2 -3
BITMAP
00000040
00000030
00070318
00038198
000181C0
000180C0
00018000
00011FE0
C07FFFF0
7FF10000
7C010000
00010000
00010000
001F0000
00718000
00618000
00C0C000
00C0C000
00C1C000
0041C000
0063C000
003EC000
0000C000
00018000
00018000
00018000
00030000
00060000
00040000
00080000
00100000
ENDCHAR
STARTCHAR 305B
ENCODING 12379
SWIDTH 1000 0
DWIDTH 32 0
BBX 30 25 1 0
BITMAP
00001C00
00000E00
03C00E00
00C00C00
00C00C00
00C00C00
00C00C00
00C00FF8
80CFFFFC
83FC0C00
FFC00800
70C00800
00C01800
00C19800
00C0F800
00C07800
00C03000
00C03000
00C00000
00C00000
00400000
00600000
00780780
001FFFC0
0007FF00
ENDCHAR
STARTCHAR 305C
ENCODING 12380
SWIDTH 1000 0
DWIDTH 32 0
BBX 31 27 1 0
BITMAP
00000038
0000000C
00001DCE
00000E64
03C00E70
00C00C30
00C00C00
00C00C00
00C00C00
00C00FF8
80CFFFFC
83FC0C00
FFC00800
70C00800
00C01800
00C19800
00C0F800
00C07800
00C03000
00C03000
00C00000
00C00000
00400000
00600000
00780780
001FFFC0
0007FF00
ENDCHAR
STARTCHAR 305D
ENCODING 12381
SWIDTH 1000 0
DWIDTH 32 0
BBX 25 25 3 0
BITMAP
00006000
020FF000
03FC7000
01C1E000
00038000
00060000
001C0000
00300000
00600000
00803F80
833FC380
87F20000
7F0C0000
70180000
00300000
00200000
00600000
00600000
00600000
00600000
00700000
00300000
001C0000
000FF000
0003F800
ENDCHAR
STARTCHAR 305E
ENCODING 12382
SWIDTH 1000 0
DWIDTH 32 0
BBX 28 28 3 0
BITMAP
00000080
000000E0
00000870
00006630
020FF3B0
03FC7180
01C1E180
00038000
00060000
001C0000
00300000
00600000
00803F80
833FC380
87F20000
7F0C0000
70180000
00300000
00200000
00600000
00600000
00600000
00600000
00700000
00300000
001C0000
000FF000
0003F800
ENDCHAR
STARTCHAR 305F
ENCODING 12383
SWIDTH 1000 0
DWIDTH 32 0
BBX 26 26 3 0
BITMAP
00400000
00F00000
00300000
00300000
00600000
00600000
40670000
20FF0000
1FF80000
00800000
01807E00
0181FF00
03063800
03006000
02004000
06000000
04000000
0C000000
0C000000
18000000
38100000
30080000
700C0000
60060380
E003FFC0
4000FF80
ENDCHAR
STARTCHAR 3060
ENCODING 12384
SWIDTH 1000 0
DWIDTH 32 0
BBX 26 26 3 0
BITMAP
00400600
00F00380
003031C0
00301CC0
00600E00
00600600
40670000
20FF0000
1FF80000
00800000
01807E00
0181FF00
03063800
03006000
02004000
06000000
04000000
0C000000
0C000000
18000000
38100000
30080000
700C0000
60060380
E003FFC0
4000FF80
ENDCHAR
STARTCHAR 3061
ENCODING 12385
SWIDTH 1000 0
DWIDTH 32 0
BBX 23 27 4 -1
BITMAP
020000
078000
018000
018000
018000
010700
833E00
C3F800
3F0000
020000
060000
060000
060000
0607F0
043818
04E00C
07C00E
070006
060006
04000E
00000C
00001C
000038
0000F0
0003C0
003E00
004000
ENDCHAR
STARTCHAR 3062
ENCODING 12386
SWIDTH 1000 0
DWIDTH 32 0
BBX 23 28 4 -1
BITMAP
000018
02000E
078086
018062
018030
018030
010710
833E00
C3F800
3F0000
020000
060000
060000
060000
0607F0
043818
04E00C
07C00E
070006
060006
04000E
00000C
00001C
000038
0000F0
0003C0
003E00
004000
ENDCHAR
STARTCHAR 3063
ENCODING 12387
SWIDTH 1000 0
DWIDTH 32 0
BBX 22 15 5 1
BITMAP
001FC0
01E060
8F0030
FC0018
700018
00000C
00000C
000018
000018
000038
000070
0000E0
000380
001E00
01E000
ENDCHAR
STARTCHAR 3064
ENCODING 12388
SWIDTH 1000 0
DWIDTH 32 0
BBX 25 18 3 2
BITMAP
0007F000
003C0C00
01C00700
8F000300
FC000180
70000180
00000180
00000180
00000180
00000180
00000380
00000300
00000600
00001C00
00003800
0001E000
001F0000
00E00000
ENDCHAR
STARTCHAR 3065
ENCODING 12389
SWIDTH 1000 0
DWIDTH 32 0
BBX 28 26 3 2
BITMAP
00000080
000000E0
00000870
00000730
000003B0
00000180
00000180
00000000
0007F000
003C0C00
01C00700
8F000300
FC000180
70000180
00000180
00000180
00000180
00000180
00000380
00000300
00000600
00001C00
00003800
0001E000
001F0000
00E00000
ENDCHAR
STARTCHAR 3066
ENCODING 12390
SWIDTH 1000 0
DWIDTH 32 0
BBX 25 23 3 0
BITMAP
00003F00
000FFF80
83F18000
FF020000
70040000
00080000
00180000
00300000
00300000
00600000
00600000
00600000
00600000
00600000
00600000
00600000
00600000
00600000
00300000
00380000
001C1C00
000FFC00
0001FC00
ENDCHAR
STARTCHAR 3067
ENCODING 12391
SWIDTH 1000 0
DWIDTH 32 0
BBX 27 23 3 0
BITMAP
00003F00
000FFF80
83F18000
FF020000
70040000
00080380
001800C0
00301CE0
00300660
00600700
00600300
00600000
00600000
00600000
00600000
00600000
00600000
00600000
00300000
00380000
001C1C00
000FFC00
0001FC00
ENDCHAR
STARTCHAR 3068
ENCODING 12392
SWIDTH 1000 0
DWIDTH 32 0
BBX 19 25 7 0
BITMAP
380000
1C0000
0C0000
0C0000
0C0000
0C0300
0C0180
040380
040F80
063C00
06F000
03C000
070000
0C0000
380000
600000
400000
C00000
800000
800000
800000
C00000
7003E0
3FFFE0
07FF00
ENDCHAR
STARTCHAR 3069
ENCODING 12393
SWIDTH 1000 0
DWIDTH 32 0
BBX 23 27 7 0
BITMAP
000020
00001C
38010E
1C00C6
0C0076
0C0030
0C0030
0C0300
0C0180
040380
040F80
063C00
06F000
03C000
070000
0C0000
380000
600000
400000
C00000
800000
800000
800000
C00000
7003E0
3FFFE0
07FF00
ENDCHAR
STARTCHAR 306A
ENCODING 12394
SWIDTH 1000 0
DWIDTH 32 0
BBX 24 26 4 0
BITMAP
01C000
00C000
00C000
00C000
019C80
41FC70
3FE01C
03001E
03007E
060007
060003
0C0100
0C0100
180100
380100
300180
600180
E00180
C07F80
8183C0
0301F0
0201BC
02018E
030387
01FF03
007E00
ENDCHAR
STARTCHAR 306B
ENCODING 12395
SWIDTH 1000 0
DWIDTH 32 0
BBX 23 24 5 0
BITMAP
600000
300000
304038
3020F8
701FC0
600300
600400
400800
400000
C00000
C00000
800000
800000
800000
880000
880000
908000
B04000
F06000
E0381E
E01FFE
6007FC
600000
200000
ENDCHAR
STARTCHAR 306C
ENCODING 12396
SWIDTH 1000 0
DWIDTH 32 0
BBX 27 24 3 1
BITMAP
001C0000
000C0000
080E0000
0C0C0000
0C0C0000
041FE000
047C3800
078C0C00
06080600
0E180700
1E180300
1E100380
32100180
22300180
63200180
43600180
C1400180
C1C0F980
C1810F00
C1C20380
C3C207C0
C66306C0
7C431CE0
3800F060
ENDCHAR
STARTCHAR 306D
ENCODING 12397
SWIDTH 1000 0
DWIDTH 32 0
BBX 28 26 3 0
BITMAP
03000000
01C00000
01C00000
00C00000
00800000
00800000
0080F800
41C30C00
46E60600
7CC80200
31900300
01A00300
01C00180
03800180
07800180
0D800180
1D800180
39800180
3180FB00
69830F00
ED820700
C5840380
838606C0
03820C60
03831C70
0180F020
ENDCHAR
STARTCHAR 306E
ENCODING 12398
SWIDTH 1000 0
DWIDTH 32 0
BBX 26 22 3 1
BITMAP
003FC000
00F87000
03981C00
06180600
0C180700
18180300
30180180
30180180
601801C0
603801C0
C03000C0
C03000C0
C06001C0
C06001C0
C0C00180
C0C00180
C1800380
E3000700
66000E00
3C001C00
18007800
000FC000
ENDCHAR
STARTCHAR 306F
ENCODING 12399
SWIDTH 1000 0
DWIDTH 32 0
BBX 26 25 4 0
BITMAP
6001C000
3000E000
30006000
30006000
30004000
30004000
21004700
60807F00
6041F800
603F4000
40004000
40004000
C0004000
C0004000
C0004000
C8006000
C8006000
D0006000
D03FE000
F0407C00
E0806F00
E0806380
60C0E0C0
607FC040
603F8000
ENDCHAR
ENDFONT
